<?xml version="1.0" standalone="no"?>
<!DOCTYPE svg PUBLIC "-//W3C//DTD SVG 20010904//EN"
 "http://www.w3.org/TR/2001/REC-SVG-20010904/DTD/svg10.dtd">
<svg version="1.0" xmlns="http://www.w3.org/2000/svg"
 width="16.000000pt" height="16.000000pt" viewBox="0 0 16.000000 16.000000"
 preserveAspectRatio="xMidYMid meet">
<metadata>
Created by potrace 1.11, written by Peter Selinger 2001-2013
</metadata>
<g transform="translate(0.000000,16.000000) scale(0.001600,-0.001600)"
fill="#000000" stroke="none">
<path d="M3231 6904 c-374 -51 -689 -193 -982 -443 -318 -270 -547 -652 -645
-1077 -23 -103 -28 -147 -32 -322 -10 -471 72 -794 285 -1117 336 -509 745
-779 1286 -850 136 -17 431 -20 557 -5 388 47 734 191 1015 420 39 32 116 105
170 162 633 663 754 1595 302 2325 -322 518 -796 832 -1375 908 -141 19 -439
18 -581 -1z m351 -349 c317 -67 609 -429 733 -910 56 -216 69 -337 68 -615 -1
-562 -114 -1008 -327 -1291 -157 -208 -343 -298 -591 -286 -216 11 -357 69
-491 202 -149 148 -276 386 -338 632 -52 207 -61 307 -61 718 0 391 7 476 51
690 67 327 271 653 484 778 138 80 327 113 472 82z"/>
<path d="M6190 6904 c-342 -47 -654 -180 -917 -392 l-82 -66 50 -60 c122 -151
303 -461 340 -586 7 -22 15 -40 18 -40 3 0 21 46 39 103 64 199 158 355 301
497 148 148 279 202 491 204 118 1 171 -12 280 -71 136 -74 249 -184 357 -351
145 -221 240 -513 274 -841 15 -145 6 -544 -16 -701 -77 -555 -277 -941 -559
-1080 -112 -55 -204 -74 -336 -66 -258 14 -430 101 -574 293 -80 106 -184 310
-230 453 -26 80 -36 100 -41 85 -92 -244 -213 -458 -363 -644 l-77 -94 59 -51
c214 -188 480 -320 754 -375 146 -30 273 -41 456 -41 427 0 800 109 1127 328
418 282 739 763 849 1277 28 128 38 423 20 576 -47 408 -243 796 -567 1125
-280 284 -650 465 -1059 519 -144 19 -450 18 -594 -1z"/>
</g>
</svg>
