<?xml version="1.0" standalone="no"?>
<!DOCTYPE svg PUBLIC "-//W3C//DTD SVG 20010904//EN"
 "http://www.w3.org/TR/2001/REC-SVG-20010904/DTD/svg10.dtd">
<svg version="1.0" xmlns="http://www.w3.org/2000/svg"
 width="512.000000pt" height="512.000000pt" viewBox="0 0 512.000000 512.000000"
 preserveAspectRatio="xMidYMid meet">
<metadata>
Created by potrace 1.11, written by Peter Selinger 2001-2013
</metadata>
<g transform="translate(0.000000,512.000000) scale(0.100000,-0.100000)"
fill="#000000" stroke="none">
<path d="M1345 3810 c-208 -36 -381 -108 -537 -225 -252 -189 -412 -432 -499
-755 -20 -74 -23 -110 -23 -270 -1 -324 49 -503 205 -730 216 -316 469 -483
814 -536 17 -3 102 -7 190 -9 123 -3 184 1 265 15 277 48 502 161 686 345 385
384 509 914 323 1382 -66 168 -158 302 -305 448 -197 197 -419 305 -704 344
-102 14 -305 10 -415 -9z m315 -232 c43 -13 123 -64 174 -108 149 -131 274
-408 304 -675 9 -78 9 -360 0 -450 -47 -460 -230 -766 -487 -813 -104 -19
-234 -1 -331 46 -164 79 -312 332 -361 622 -22 126 -18 629 6 750 32 166 61
247 123 353 103 173 229 271 377 290 47 6 157 -2 195 -15z"/>
<path d="M3325 3814 c-215 -33 -412 -117 -578 -248 l-63 -50 68 -90 c39 -52
99 -152 138 -231 39 -77 70 -131 70 -120 0 22 26 98 55 160 53 113 182 273
234 290 11 3 21 10 21 14 0 5 33 19 73 32 97 31 230 32 300 1 241 -108 420
-416 463 -797 8 -76 8 -331 0 -409 -49 -445 -198 -730 -425 -817 -109 -41
-292 -26 -403 33 -60 32 -140 106 -183 170 -40 59 -101 187 -126 263 -20 64
-23 68 -32 45 -63 -156 -180 -353 -258 -436 l-30 -31 54 -46 c163 -139 366
-227 593 -256 117 -15 366 -6 479 18 357 76 626 263 832 579 85 129 168 326
187 442 3 19 10 58 15 85 16 84 5 338 -19 435 -61 250 -184 459 -380 648 -174
169 -392 274 -653 317 -105 17 -316 16 -432 -1z"/>
</g>
</svg>
