<svg xmlns="http://www.w3.org/2000/svg" viewBox="0 0 253.65 170.76"><defs><style>.a,.c{fill:none;stroke-linecap:round;stroke-miterlimit:10;stroke-width:2.5px;}.a{stroke:#b3b3b3;}.b{fill:#cc5e25;}.c{stroke:#cc5e25;}</style></defs><title>clock</title><rect class="a" x="1.25" y="47.21" width="251.15" height="109.08"/><rect class="a" x="11.07" y="57.75" width="111.5" height="88"/><rect class="a" x="131.07" y="57.75" width="111.5" height="88"/><polyline class="a" points="28.16 161.95 28.16 169.51 16.83 169.51 16.83 161.95"/><polyline class="a" points="100.15 41.55 100.15 33.99 145.47 33.99 145.47 41.55"/><polyline class="a" points="236.82 161.95 236.82 169.51 225.49 169.51 225.49 161.95"/><line class="a" x1="16.82" y1="97.75" x2="16.82" y2="107.75"/><line class="a" x1="116.82" y1="97.75" x2="116.82" y2="107.75"/><line class="a" x1="137.82" y1="97.75" x2="137.82" y2="107.75"/><line class="a" x1="235.82" y1="97.75" x2="235.82" y2="107.75"/><path class="b" d="M31.23,103.81c0-16,6.65-26.81,15.61-26.81,10.29,0,15.05,13.37,15.05,24,0,16-6,24.85-15,24.85C35.57,125.86,31.23,112.28,31.23,103.81ZM53.7,118.37c1.54-3.36,2.17-8.68,2.17-18.9s-3.5-20-9.45-20c-2.73,0-4.69,1-6.3,4.2-2.52,4.9-2.8,13.09-2.8,18.9,0,6.65.84,11.55,2.38,14.77,2.17,4.62,4.83,6,7.28,6C49.15,123.34,51.81,122.5,53.7,118.37Z"/><path class="b" d="M79,94.71a37.23,37.23,0,0,1,8,.77c6.86,1.82,10.78,6.72,10.78,13,.07,10-8.12,17.36-17.64,17.36-5.18,0-9.1-1.89-9.1-3.92a1.67,1.67,0,0,1,1.54-1.82,7.27,7.27,0,0,1,3.5,1.4,12.56,12.56,0,0,0,5.53,1.33,11.09,11.09,0,0,0,10.92-10.78c0-4.9-1.61-8.75-6.16-10.71a19,19,0,0,0-9.1-1.54A1.63,1.63,0,0,1,76,99.68c-.35-.14-.42-.35-.35-.77l2.52-19.74c.07-.84.21-1.12,1.12-1.12h15c2.45,0,3.08-1.19,4.27-3.5a.57.57,0,0,1,.84-.35c.77.35,1.12.42,1,.84l-2.52,7c-.49,1.12-.84,1.4-3,1.4H80.23Z"/><path class="b" d="M174.32,124.81c-.63,0-.84-.14-.84-.77V111.72H153.94c-.63,0-1.05-.28-1.05-.84s.21-.7.7-1.4l22.75-31.36c.42-.56,1-1.12,1.54-1.12s.91.49.91,2.1v28h5.67c.49,0,.84.14.84.56V111c0,.42-.21.7-1.12.7H178.8v12.11c0,.77-.14,1-1,1Zm-.77-36.61c0-1.12-.7-1.33-1.33-.42l-12.88,17.78c-.84,1.19-.77,1.89.49,1.89h13.72Z"/><path class="b" d="M200.47,94.71a37.23,37.23,0,0,1,8,.77c6.86,1.82,10.78,6.72,10.78,13,.07,10-8.12,17.36-17.64,17.36-5.18,0-9.1-1.89-9.1-3.92a1.67,1.67,0,0,1,1.54-1.82,7.27,7.27,0,0,1,3.5,1.4,12.56,12.56,0,0,0,5.53,1.33A11.09,11.09,0,0,0,214,112.07c0-4.9-1.61-8.75-6.16-10.71a19,19,0,0,0-9.1-1.54,1.63,1.63,0,0,1-1.26-.14c-.35-.14-.42-.35-.35-.77l2.52-19.74c.07-.84.21-1.12,1.12-1.12h15c2.45,0,3.08-1.19,4.27-3.5a.57.57,0,0,1,.84-.35c.77.35,1.12.42,1,.84l-2.52,7c-.49,1.12-.84,1.4-3,1.4H201.73Z"/><line class="c" x1="85.07" y1="36.25" x2="69.07" y2="36.25"/><line class="c" x1="88" y1="27.25" x2="74.14" y2="19.25"/><line class="c" x1="96.07" y1="21.18" x2="88.07" y2="7.32"/><line class="c" x1="104.07" y1="17.25" x2="104.07" y2="1.25"/><line class="c" x1="159.07" y1="37.25" x2="175.07" y2="37.25"/><line class="c" x1="156.14" y1="28.25" x2="170" y2="20.25"/><line class="c" x1="148.07" y1="22.18" x2="156.07" y2="8.32"/><line class="c" x1="140.07" y1="18.25" x2="140.07" y2="2.25"/></svg>