<svg xmlns="http://www.w3.org/2000/svg" viewBox="0 0 283.46 77.42"><defs><style>.a{fill:#fff;}</style></defs><title>logo-white</title><path class="a" d="M241.36,36.28c4.83,4.83,7.1,10.18,7.1,16.25a23.6,23.6,0,0,1-6.38,15.63,22.81,22.81,0,0,1-17.28,7.41c-6.48,0-12-1.85-16.66-7.41-4.53-5.35-5.56-9.67-5.56-15.94a23,23,0,0,1,8.64-17.07,22.27,22.27,0,0,1,14.61-4.94A21.76,21.76,0,0,1,241.36,36.28Zm-5.45,15.94c0-11.31-6-17.9-10.7-17.9a8.07,8.07,0,0,0-6.48,2.78c-3.19,3.6-4.42,7.92-4.42,15.43,0,6,.41,9.87,3.19,14.3a8.64,8.64,0,0,0,8.13,4.42C232.41,71.25,235.91,62.71,235.91,52.22Z"/><path class="a" d="M1.44,37A1.3,1.3,0,0,1,0,35.58c0-.82.62-1.44,1.95-1.95,2.87-1,11.79-8.61,14-12.92a1.69,1.69,0,0,1,1.64-1c.82,0,1.23.62,1.23,1.44l-.41,10.15H32c.61,0,.82.41.72.82l-1,4.31c-.1.41-.41.62-1,.62H18.25c-.21,4.31-.31,9.23-.31,13.74V62c0,8,3.38,9.64,5.43,9.64a14.21,14.21,0,0,0,5.95-1.23c.72-.31,1-.31,1.23.21l.62,1.23a1.27,1.27,0,0,1-.41,1.44,21.33,21.33,0,0,1-12.92,4.1c-6.15,0-10.77-4.92-10.77-9.23,0-3.69.31-13.95.31-17.84V37Z"/><path class="a" d="M101.54,44.91c0-3.08-.62-5.13-5.33-6.36-.92-.21-1-.51-1-.92V36.51c0-.41.21-.62.72-.82,1.44-.62,11.59-4.2,13.33-4.92a7.09,7.09,0,0,1,2.46-.62c.62,0,.92.41.82,1.23-.2,1.64-.2,8.2-.2,16.71V59.17c0,3.9,0,7.59.2,8.82.2,1.85.62,2.67,1.64,2.67h4.1c.82,0,1,.21,1,.72v2.05c0,.62-.2,1-.82,1-.82,0-5.54-.31-12.41-.31-5.95,0-9.84.31-11.07.31-.51,0-.82-.21-.82-1V71.47c0-.62.41-.82,1-.82H99.7c1,0,1.54-.41,1.64-2.05.1-3.08.2-6.36.2-9.23Z"/><path class="a" d="M136.72,30.76a4.59,4.59,0,0,1,2.05-.62c.62,0,1.13.41,1.23,1.44l.62,5.95H141a19.57,19.57,0,0,1,14.77-7.38c6.15,0,9.64,3.08,12.1,7.59h.62c3.28-4.31,8.61-7.59,14.36-7.59,4.1,0,6.77.62,9.43,3.49S197,37.94,197,46.86V58.55c0,2.87-.21,7.79-.21,9,0,2.26,1.23,3.08,2.67,3.08h2.67c.61,0,.82.21.82.72v2.15c0,.62-.21.92-.82.92s-3.49-.31-9.84-.31c-5.74,0-9.43.31-10,.31s-.82-.31-.82-.82V71.47c0-.62.21-.82.82-.82h1.64a1.93,1.93,0,0,0,2.05-2.05c.2-2.26.41-5.95.41-9v-12c0-4.92-.41-7.59-2.26-9.23a7.9,7.9,0,0,0-6.15-2.26c-2.87,0-5.95,2.26-7.28,4.2-1.54,2.15-1.54,5.23-1.54,8V67.37c0,2.26.62,3.28,1.85,3.28h2.66c.82,0,1,.21,1,.72v2.26c0,.51-.1.82-.62.82-.82,0-3.49-.31-10.05-.31-6.36,0-9.74.31-10.36.31s-.72-.31-.72-.82V71.68c0-.82.2-1,.82-1H156c1.43,0,2.46-1,2.46-4.72V48.4c0-7.38-1.23-9.64-2.67-10.87-1.23-1-3.49-1.44-5.54-1.44a9,9,0,0,0-7.38,4.31c-1.44,2.05-1.64,4.31-1.64,7.28V65.94c0,3.69.82,4.72,2.05,4.72h2.26c.82,0,1,.21,1,.62v2.36c0,.51-.2.82-.82.82-.82,0-3.69-.31-10.25-.31-6.15,0-9.43.31-10.25.31-.62,0-.82-.21-.82-.92V71.37c0-.51.41-.72,1.23-.72h3.08c1,0,1.64-.82,1.84-2.67V46.76c0-3.28-.61-5.13-3.08-6.56l-2.15-1.13c-.51-.31-.72-.51-.72-.92v-1c0-.41.31-.62.72-.82Z"/><path class="a" d="M105,19.79c-3.28,0-6.56-2.56-6.56-6.15,0-3.08,3-6.36,7.18-6.36A6.16,6.16,0,0,1,112,13.23C112,16.3,109.85,19.79,105,19.79Z"/><path class="a" d="M243,68"/><path class="a" d="M241.8,68.15"/><path class="a" d="M276.37,36.27a21.76,21.76,0,0,0-15.53-6.07,22.27,22.27,0,0,0-14.61,4.94l-.41.35A27.23,27.23,0,0,1,250.47,43a15.54,15.54,0,0,1,3.27-5.91,8.07,8.07,0,0,1,6.48-2.78c4.73,0,10.7,6.58,10.7,17.9,0,10.49-3.5,19-10.29,19a8.64,8.64,0,0,1-8.13-4.42A18.84,18.84,0,0,1,250.33,62a29.69,29.69,0,0,1-5.16,8.27c4.2,3.9,9.07,5.28,14.63,5.28a22.81,22.81,0,0,0,17.28-7.41,23.6,23.6,0,0,0,6.38-15.63C283.46,46.45,281.2,41.1,276.37,36.27Z"/><path class="a" d="M88.32,70.65H86.47c-1.64,0-3.49-.2-3.49-1.64V49.32c0-5.84.21-11-4.51-15.07-3.08-2.67-5.74-4.1-10.25-4.1a17.93,17.93,0,0,0-10.67,3.63V38a10.2,10.2,0,0,1,6.26-2.51,7.45,7.45,0,0,1,5.74,2.46c2.67,2.67,2.67,8.41,2.67,13.74v6.87c0,3.28,0,8.61-.2,10-.21,1.64-1.64,2.05-2.87,2.05H67.4c-.51,0-.72.21-.72.62v2.46c0,.51.2.72.82.72,1,0,4.72-.31,10.87-.31s9.54.31,10.15.31.82-.31.82-.82V71.37C89.34,70.86,89.14,70.65,88.32,70.65Z"/><path class="a" d="M58.68,70.65H56.22c-1.43,0-1.84-1-1.84-4.31V44.2c0-.07,0-.14,0-.2V36.4h0V30c0-5,0-25.74.2-27.58C54.79.82,54.58,0,53.76,0a8.79,8.79,0,0,0-2.87.82C47.61,2.46,40.63,5.95,37.56,6.77c-1.23.62-1.44.82-1.44,1.23V9c0,.41.21.61.82.82l1.84.62c3.49,1.44,4.72,3.49,4.72,9.23l.2,36.61C43.71,61,43.61,67,43.2,69c-.31,1.23-1.74,1.64-3.38,1.64H37.25c-.51,0-.92.21-.92.72v2.26c0,.62.31.82.82.82.82,0,4.72-.31,11.08-.31,5.33,0,9.84.31,10.66.31.62,0,.82-.41.82-1V71.58C59.71,70.86,59.3,70.65,58.68,70.65Z"/></svg>