<svg xmlns="http://www.w3.org/2000/svg" viewBox="0 0 124.02 102.8"><defs><style>.a{fill:none;stroke:#b3b3b3;stroke-linecap:round;stroke-miterlimit:10;stroke-width:2.5px;}</style></defs><title>map</title><path class="a" d="M66.85,1.25A20.34,20.34,0,0,0,48.37,30.08L66.85,66.32,85.33,30.08A20.34,20.34,0,0,0,66.85,1.25Zm0,30a9.64,9.64,0,1,1,9.64-9.64,9.65,9.65,0,0,1-9.64,9.64Z"/><polyline class="a" points="77.33 56.85 84.92 62 104.94 46.43 122.41 87.41 94.77 101.39 62.34 84.87 29.32 101.39 1.67 86.46 22.32 46.43 37.26 62 53.72 51.63"/><line class="a" x1="37.26" y1="62" x2="29.32" y2="101.39"/><line class="a" x1="62.34" y1="84.87" x2="62.18" y2="68.62"/><line class="a" x1="84.92" y1="62" x2="94.77" y2="101.39"/></svg>