<svg xmlns="http://www.w3.org/2000/svg" width="540.936" height="315.242">
  <linearGradient id="a" gradientUnits="userSpaceOnUse" x1="128.322" y1="128.703" x2="144.754" y2="128.703">
    <stop offset="0" stop-color="#f29113"/>
    <stop offset="1" stop-color="#ffcc1d"/>
  </linearGradient>
  <path d="M130.196 137.023c-1.999-2.6-2.4-5.999-1.198-8.799 1-1.999 3.399-6.4 9.999-10.999l1 1.799c-2.8 2.6-3.201 4.401-2.4 4.601 1.999.399 3.8 1.2 5.398 2.999 2.8 3.601 2.201 8.799-1.4 11.8-3.597 2.799-8.599 2.199-11.399-1.401z" fill="url(#a)"/>
  <path d="M192.844 187.877c1.234-.611 3.441-2.043.747-4.666-.44-.429-2.443-2.21-3.922-4.151-.194-.275-.49-.704-.827-1.281-.148-.254-.29-.481-.414-.715-.084-.185-.138-.363-.195-.542-.083-.382-.075-.837.162-1.525.272-.787.691-1.645.467-2.421-.516-1.784-.967-3.18-1.546-4.291V144.95c-.694-21.058-6.444-35.324-24.719-35.324 0 0-6.6-.2-13.6 2.199l1 1.999c14.798-4.199 22.997 7.6 22.997 26.4v11.199c-33.797 8.799-50.595 14.4-50.595 33.599 0 20.798 22.597 20.599 22.597 20.599 8.602 0 16.202-3 21.402-7.401-.401-.799-1.202-2.4-1.602-2.999-2.8 1.799-6.6 2.999-11.399 2.999-11.8 0-17.198-8.199-17.198-16.798 0-13.2 11.998-21.6 36.796-27.6v34.398c0 13.109 7.908 16.479 12.4 17.137l.14.023c.407.056.784.091 1.122.107.103.004.218.006.325.007.111.002.236.009.335.007v-.019c.351-.006.687-.006 1.104-.039 2.452-.194 3.877-1.908 3.394-5.037-.035-.225-.595-2.878.426-3.378s1.225-1.936.405-2.963c-.22-.276-1.259-.014-.387-.687.872-.673 1.494-1.863.807-2.952-.69-1.089-1.722-1.807-.222-2.549zM254.346 113.624l1.202-2.199h-39l-1 26.4h2.4c1.998-18.2 15.801-23.2 36.398-24.201zM243.546 201.42l-1.198 2.4h36.998l1.801-30.398h-2.4c-2.404 19.598-12.803 26.798-35.201 27.998zM315.344 138.423c3.601-3 4.2-8.199 1.4-11.8-1.599-1.799-3.399-2.6-5.398-2.999-.801-.2-.401-2.001 2.4-4.601l-1-1.799c-6.6 4.599-9 9-9.999 10.999-1.202 2.8-.801 6.199 1.198 8.799 2.8 3.601 7.801 4.201 11.399 1.401z" fill="#102d69"/>
  <path d="M369.94 197.62c-8.798 0-8.798-11.8-8.798-11.8v-36.199c0-23.598-5.2-39.997-24.798-39.997 0 0-6.6-.2-13.6 2.199l1 1.999c14.798-4.199 22.997 7.6 22.997 26.4v11.199c-8.058 2.098-15.085 4.021-21.204 5.987l.023-.029c-14.248 3.993-18.876 5.514-22.756 8.786-2.35 1.981-3.388 4.185-4.082 5.789-.621 1.437-.255 2.285-.098 2.703.227.605.58 2.338.205 3.259-1.09 2.678-4.274 6.508-4.274 6.508-2.122 3.732 2.667 4.341 2.667 4.341.821.656.136 3.11.136 3.11-.274.745.683 1.77.683 1.77-1.094.533-.548 1.934-.548 1.934 2.121 1.308.156 2.638.067 4.965-.185 4.827 3.089 4.529 6.463 4.876 2.953.304 10.866.557 17.198.09.575-.039 1.14-.096 1.704-.162.29-.03.605-.05.884-.084.005-.011 0-.021.005-.032 6.493-.916 12.183-3.506 16.331-7.016-.401-.799-1.202-2.4-1.602-2.999-2.8 1.799-6.6 2.999-11.399 2.999-11.8 0-17.198-8.199-17.198-16.798 0-13.2 11.998-21.6 36.796-27.6v34.398c0 18.199 15.401 17.4 15.401 17.4 9.599 0 15-7.201 16.199-13.2l-2.201-.799c-1.199 6.003-6.201 6.003-6.201 6.003zM406.743 188.22v-78.595l-23.596 4.599v1.999c8.199 1.202 9.999 4 9.999 11v60.996c0 10.199-.401 11.199-8 13.4v2.199h29.799v-2.199c-7-1.799-8.202-2.398-8.202-13.399zM465.143 188.22v-45.998c0-23.998-12.2-32.597-28.799-32.597-8.199 0-16.599 4.199-22.6 10.199l2.201 2.4c3.598-2.8 7.798-5 12.998-5 14.798 0 22.6 10.199 22.6 25.799v45.197c0 10.199-.401 11.399-8 13.6v1.999h29.799v-1.999c-7.001-1.8-8.199-2.599-8.199-13.6z" fill="#102d69"/>
  <linearGradient id="b" gradientUnits="userSpaceOnUse" x1="67.594" y1="157.665" x2="246.894" y2="157.665">
    <stop offset="0" stop-color="#f29113"/>
    <stop offset="1" stop-color="#ffcc1d"/>
  </linearGradient>
  <path d="M230.412 212.485c-16.481 21.413-42.345 35.25-71.393 35.25-49.667 0-90.072-40.405-90.072-90.07s40.405-90.07 90.072-90.07c41.061 0 75.768 27.631 86.568 65.268a5.919 5.919 0 0 1 1.307-.35c-10.955-38.214-46.189-66.271-87.875-66.271-50.413 0-91.425 41.012-91.425 91.423s41.012 91.423 91.425 91.423c29.803 0 56.315-14.341 73.016-36.478a4.51 4.51 0 0 1-1.623-.125z" fill="url(#b)"/>
  <linearGradient id="c" gradientUnits="userSpaceOnUse" x1="67.594" y1="157.665" x2="250.44" y2="157.665">
    <stop offset="0" stop-color="#f29113"/>
    <stop offset="1" stop-color="#ffcc1d"/>
  </linearGradient>
  <path d="M159.019 249.087c-50.413 0-91.425-41.012-91.425-91.423s41.012-91.423 91.425-91.423c50.409 0 91.421 41.012 91.421 91.423s-41.012 91.423-91.421 91.423zm0-181.493c-49.667 0-90.072 40.405-90.072 90.07s40.405 90.07 90.072 90.07c49.663 0 90.068-40.405 90.068-90.07s-40.405-90.07-90.068-90.07z" fill="url(#c)"/>
  <g>
    <path fill="#102d69" d="M214.349 203.82h16.798l50.797-92.396h-14.997z"/>
  </g>
  <path fill="none" d="M0 0h540.936v313.357H0z"/>
</svg>
