<svg xmlns="http://www.w3.org/2000/svg" viewBox="0 0 283.46 143.3"><defs><style>.cls-1{fill:#bbce00;}</style></defs><title>Bee_Smart_Logo</title><g id="Calque_2" data-name="Calque 2"><g id="Calque_1-2" data-name="Calque 1"><path class="cls-1" d="M171.07,39.17V81.62h51.8V39.17Zm42.58,23a9.23,9.23,0,0,1-4,.61,53.3,53.3,0,0,0-10.51.84A2,2,0,0,0,197.78,65a60.72,60.72,0,0,1-2.51,8.19h-1.55c-2.07,0-3.1-1-3.1-2.88,0-.19,0-.86.16-2s.15-1.79.15-1.91c0-1.58-.75-2.38-2.22-2.38a3.53,3.53,0,0,0-.69.14,5.78,5.78,0,0,1-.73.11c-.13,0-.76-.07-1.85-.25L183,63.64a2.79,2.79,0,0,1-1.17-1.57,1.24,1.24,0,0,1-.09-.5A4.75,4.75,0,0,1,182,60.2a2.71,2.71,0,0,1-.57-1c0-.6.59-1.16,1.78-1.7a8.83,8.83,0,0,1,3.69-.8s.66,0,1.92.14l2.09.13c1.29,0,2.06-.3,2.31-.92l2.54-7c.3-.46.57-.91.81-1.34a2.92,2.92,0,0,1,2.31-.85c2.3,0,3.44,1.65,3.44,4.94a28.42,28.42,0,0,0-1,3.93c2.78.43,6.87,1.07,12.3,1.94a7.13,7.13,0,0,1,2,2.63A17.24,17.24,0,0,1,213.65,62.15Z"/><path class="cls-1" d="M111.34,65a4.62,4.62,0,0,1-1.69,4c-1.2.14-2.35.42-6.24,1.06l-4.5.7a36,36,0,0,0-6.47,1,3.3,3.3,0,0,0-1.83-.13c-.23.36-.41.52-.4.58.06.6,3.28,2.58,10.91,2.32a55.28,55.28,0,0,1,5.95-.71c2.69,0,1.86.74,2,1.74,0,.26,1.53.75,0,1.73l-1.18,1.48A26.73,26.73,0,0,0,104,79.92c-.07,0-1.2.07-3.34.11a27.77,27.77,0,0,0-3.62.42,11.32,11.32,0,0,1-3.65-.73c-.55-.21-1.54-.64-2.94-1.15A12,12,0,0,1,85,75.43a7.63,7.63,0,0,1-2.8-4.59,9.92,9.92,0,0,1,.21-4c2.53-6.73,7.39-10.29,17.26-11.41,3.19-.35,5.66.1,7.41,1.38a24.11,24.11,0,0,1,4.19,3.76C111.62,61.29,111.32,63.08,111.34,65Zm-7.42-3.55a4.59,4.59,0,0,0-1.92-.92c-2.56.49-5,1-7.67,1.79a7.57,7.57,0,0,0-2.58,1.57c-1,.93-1.5,1.51-1.45,2s.13.52.39.49l10.12-1c2.38-.27,3.8-.77,4.12-1.54C104.65,63.15,104.28,62.32,103.92,61.48Z"/><path class="cls-1" d="M145.31,64.55c.11,2.14-.21,3.45-.9,3.93-1.19.13-3.65,1-7.54,1.59l-4.51.7a36.11,36.11,0,0,0-6.46,1,3.3,3.3,0,0,0-1.83-.13c-.23.36-.41.52-.41.58.07.6,5.37,2.61,13,2.35a58,58,0,0,1,6-.71c2.69,0,1.86.74,2,1.74,0,.26,1.53.75,0,1.74l-1.18,1.47A27.23,27.23,0,0,0,139.55,80c-.06,0-1.2.07-3.34.11s-5.51.37-5.71.39a11.32,11.32,0,0,1-3.64-.73c-.56-.21-1.55-.64-3-1.15a12.05,12.05,0,0,1-5.46-3.14,7.68,7.68,0,0,1-2.8-4.59,9.88,9.88,0,0,1,.22-4c2.53-6.73,7.38-10.29,17.26-11.41,3.18-.35,5.65.1,7.41,1.38a23.72,23.72,0,0,1,4.18,3.76A10.54,10.54,0,0,1,145.31,64.55Zm-7.93-3.07a4.59,4.59,0,0,0-1.92-.92c-2.56.49-5,1-7.67,1.79a7.48,7.48,0,0,0-2.58,1.57c-1,.93-1.51,1.51-1.45,2s.12.52.39.49l10.11-1c2.39-.27,3.81-.77,4.13-1.54C138.1,63.15,137.74,62.32,137.38,61.48Z"/><path class="cls-1" d="M42.76,80.57h0Z"/><path class="cls-1" d="M73.73,58a11,11,0,0,0-6.27-2.53,1.85,1.85,0,0,0-1.2-.29,4.45,4.45,0,0,1-1.87-.12A25.44,25.44,0,0,0,61.72,55c-1,0,2.73-2.39,2.73-2.79,5.34-4.13,8.67-6.89,10-8.22,2.87-3,4.34-5.85,4.34-8.59,0-.93-.74-2.36-2.27-4.4q-5.7-2.55-9.41-2a10.75,10.75,0,0,1-1.33,0,7.33,7.33,0,0,0-1.07-.11,84.27,84.27,0,0,0-13.89,3.37c-.7.23-1.72.23-2.45.49-2,.71-6.54,2.1-9.19,3.23a9.13,9.13,0,0,0-2,1.4c-.86.19-1.6.37-2.13.52-7.41,3.56-10.17,4.57-13.44,7-.3.21.81.88.92,2.1.07.77-1,2-.69,2.65.43.78-.07,1.84.7,1.74l7.12-3.45s2.23-1.42,2.22-1.46c2.35-1.28,9.25-3.68,11.39-4.72.41-.2.7-.25,1.1-.44,9.09-4.32,12.31-4.69,20.1-5.84a16.63,16.63,0,0,1,3.94.08c2.07.23,3.13.67,3.13,1.27,0,.8-1.86,2.74-5.6,5.7a77.37,77.37,0,0,1-11.61,7.66c-3.87,2-1.16,1-4.83,2.83l-.5.15q-.37.26-.72.54c-.46.53-.39.92-.36,1.65.07,1.29.05,2.93,0,4.22a23.06,23.06,0,0,0-.15,2.88c.15,1.72,1.85.69,2.8.42,0,0-1.14.45-1.12.45,2.13-.8,1.82-.68,2.08-.72a21.28,21.28,0,0,0,2.27-1c1.47-.62,2.2-.92,2.33-.94,12.28-1.83,14.15,1.15,14.15,4.42,0,1.4-1.93,3.22-5.87,5.47-.6.56-1.07,1-1.47,1.36a92,92,0,0,1-16.06,7c-.55.2-1.39.89-2,1.09-.41.15-.94.11-1.37.25a5,5,0,0,0-.76.27l.34-1.17L44,75.08l-.22-.49-.45,0-9.72,3.61-2,.66-2,.81-5.56.24c.09,1.07,0,3-.09,4.74,0,0,0,0,0,0-.2.37.1,1.91-.13,3.18a34.43,34.43,0,0,1-1.48,4.26c-1.19,3-3.12,7.9-1.52,6.32-.17.51.71-.3.6.08s-.37,1.07-.62,1.78c-.11.09,0,.53.39.65a2.51,2.51,0,0,0,.92.12,2.46,2.46,0,0,0,.59-.12l5.73-2.57a17.32,17.32,0,0,0,3.87-2.51c.57-.43,1.17-1.72,2.15-2.54a9.17,9.17,0,0,1,2-.92c1-1,2.79-2.3,3.35-3.4l5.15-2A24.28,24.28,0,0,1,49.91,85c.13,0,.53-.28,1.4-.74a6.81,6.81,0,0,1,1.33-.73,1.81,1.81,0,0,1,.54,0,.89.89,0,0,0,.46.06,11.39,11.39,0,0,0,3.73-2.1l.2,0,.14-.19.34-.25-.12-.08,2-.4,2.61-.39a2.69,2.69,0,0,1,1.73-1c.2,0,2.54-1.38,2.8-1.42,1.2-.18.54-.29,6.41-4.7a21.72,21.72,0,0,0,1.4-2.08,21.53,21.53,0,0,1,2.2-2.12,5.44,5.44,0,0,0,1.07-2.9A12.92,12.92,0,0,0,77.8,63C77.4,61.35,76,59.69,73.73,58Z"/><path class="cls-1" d="M171.68,141.36c-.76.16-.78.63-.9.65-.84.09-1.93-.4-3.4-1.54a3.32,3.32,0,0,0-.6-1.32c-1.66-1.74-3.48-5.8-5.52-12.13a4.46,4.46,0,0,0-.85-.59c-2.56.37-5.45,2.5-8.57,6.31l-7.38,8.94a3.48,3.48,0,0,1-2.38,1c-2.64.31-4.43-.52-5.29-2.49-.16-.53-.54-2-1.13-4.42-.25-1.1.23-2,0-2.95-.33-1.29-1.36-2.49-1.64-3.42a28.64,28.64,0,0,0-1.75-4.7,1.51,1.51,0,0,0-1.37-.53c-1,.12-2.49,1.46-4.54,4-.61.83-1.82,2.35-3.41,4.6-.66.91-1.62,2.61-3.17,5-1.92,3.12-3.52,4.69-4.74,4.83-.53.06-1-.47-1.76-1-.36-.25-.93-.27-1.34-.64a4.48,4.48,0,0,1-1.34-2,31.78,31.78,0,0,1-1.52-7.23c-.29-3.26-.11-5.35.48-6.26.2-.3.9-.29.9-.29a1.21,1.21,0,0,1,.64-.21,4.09,4.09,0,0,1,2.44,1.41l1.76,1.95.13.41.42.2c1-1.15,2.78-3.15,5.45-6,.42-.44.92-.63,1.31-1,.15-.15.19-.52.34-.66s.49-.23.66-.38.2-.44.37-.59c2.22-2,4-3.1,5.48-3.26s3.29.72,5.65,2.58a20.21,20.21,0,0,1,2.57,2.48c.19.2.62.41.68.53a49.73,49.73,0,0,1,3.17,8.33.94.94,0,0,0,.64.14c.78-.09,1.67-.89,2.69-2.39a20.2,20.2,0,0,0,2-1.88c1-1,2.91-2.76,5.68-5.29a15.89,15.89,0,0,1,8.4-2.91,4.22,4.22,0,0,0,2.18,1.47,35,35,0,0,1,4.45,4.6,37.43,37.43,0,0,1,2.47,8.2,25.77,25.77,0,0,0,1.59,4.38c.9,2.1,1.52,3.48,1.74,4.21A4.53,4.53,0,0,0,171.68,141.36Z"/><path class="cls-1" d="M207.29,141.91a2,2,0,0,1-1.6,1.16c-.87-.24-3.27-1.54-7.34-4-2.47-1.54-3.74-2.3-3.81-2.3a9.82,9.82,0,0,0-3.8,1.3c-2.13,1.08-3.4,1.77-3.87,1.92a11.73,11.73,0,0,1-4.33.77c-1.81,0-4-1.38-6.68-4.14a8,8,0,0,1-1.4-4.08,21.69,21.69,0,0,1,1.34-6.29,3.52,3.52,0,0,1,1.93-1.77c.33-.23,1-.54,2-1.07,4.67-3.31,9-4.92,12.88-4.92a11.57,11.57,0,0,1,4.34,1.08c.53.22,1.13,1.07,1.93,2.61a8.48,8.48,0,0,1,1.2,3.3c0,1.31-.86,1.36-2.13,2.28-2.67-1.77-4.8-2.61-6.27-2.61a10.72,10.72,0,0,0-5,1.38,23.9,23.9,0,0,0-5.67,3.85c.13.76,1.28,3.14,2.68,3.14-.4,0,2-.93,5.24-2.16s5.09-2.58,7-2.58c.46,0,2.06,1.31,4.8,4a42,42,0,0,0,6.47,5.46c.47.53.73.92.73,1.15A4.78,4.78,0,0,1,207.29,141.91Z"/><path class="cls-1" d="M241.28,123.6l-.68-.53a1.39,1.39,0,0,1-1.12.53c-.34,0-.31.3-5-.09H234c-6.47,0-10.69,2.13-12.67,6.34a15.77,15.77,0,0,0-1.06,5.47l-.63.73a28.22,28.22,0,0,1,.07,5.87,8,8,0,0,1-2.92.54c-2.4,0-3.76-1.47-4.2-4.47,0-.54-.1-2.07-.2-4.54-.1-2.94-.24-5.2-.35-6.87.8-2.74,1.67-4.07,2.67-4.07,0,0,.35.13.92.4a4.86,4.86,0,0,0,1.12.33c.13,0,.55-.33,1.25-1l1-.93c1.17-.67,2.89-1.67,5.25-2.87a14.54,14.54,0,0,1,6.8-1.4c.8,0-2.93-.39,8.08,1.41a2.71,2.71,0,0,0,.68.61l3.4.4c.22,1.46.47,2.27.77,2.47C243.91,122,243,122.54,241.28,123.6Z"/><path class="cls-1" d="M282.77,115.62a10.8,10.8,0,0,1-3.41,1.08,6.93,6.93,0,0,0-2.83,1l-1.29.2c-.91.14-1.43.2-1.56.2a52.68,52.68,0,0,0-7.82.75c-1,.14-1.71.48-1.81,1.15-.27,1.28-.85,8.07-1,10.63a89.16,89.16,0,0,1,.45,10.91s-.16.27-.49.74a3.75,3.75,0,0,0-.39.87c-2.4-.13-3.92-.53-4.54-1.14a4.91,4.91,0,0,1-.77-2.49c-.25-1.68-.07-11.57-.3-20.12a2.85,2.85,0,0,0-1.89-.67,7.82,7.82,0,0,1-2,.07c-2.13-.14-4.32-.2-6.45-.27-2.71-.47-4.24-1.81-4.57-4a2.51,2.51,0,0,1,.54-2.09,2.22,2.22,0,0,1,1.78-.94c.13,0,.74.06,1.88.19a15.25,15.25,0,0,0,1.87.14,10,10,0,0,0,1.5-.14c.92-.07,1.38-.07,1.51-.07a3.72,3.72,0,0,1,.84.27c.48.13.76.27.83.27s.78-.07,1.83-.14,1.7-.13,1.76-.13a1.6,1.6,0,0,0,1.8-1.69c.15-1.21-.15,2.14,0,.53l1.22-6.4c0-.88,0-2,0-3.44a23.85,23.85,0,0,0,1.2-3c1.71-5.39,3.43-8,5.21-8,.73,0,2,1.21,3.73,3.7a8.34,8.34,0,0,1-.73,3A15.86,15.86,0,0,0,267.57,99c-.3,1.55-.32,1.36-1.45,6.62a15.65,15.65,0,0,0-.49,5.51,23.09,23.09,0,0,0,2.88.68l1.76-.21a24.38,24.38,0,0,1,3.12-.34,18.68,18.68,0,0,1,4.09.4l1.71.4q4,0,4.24,1.82A1.63,1.63,0,0,1,282.77,115.62Z"/><path class="cls-1" d="M102.94,122.53c-1.43-1.94-2.67-4.48-4.94-5.55l-1.25-.57a13.79,13.79,0,0,0-1.1-1.07c-.53-.08-1.06-.12-1.56-.15-3.47-1.59-7-3.12-10.44-4.43l-.61-.2c-1-.6-2.05-.66-2.54-1C78,108.5,76,108.24,75.06,107.7c-2.5-1.8-4.37-3.14-5.55-4.08-.29-.47,0-1.4-.22-1.73.86-.54.51-1.63,1.45-1.77,2.76-.34,4.52-1.44,6.06-1.78a63.12,63.12,0,0,1,8-.25H87c1,.06,2.3.38,2.71.31l2.52,1.6c1.68-.14,2.54,1.73,2.71,1.85a5.41,5.41,0,0,1,2.26,1.25c1.29,1.12,2,1.71,2.15,1.79,2,1.39,3.85,1.51,5-.18,1.56-2.24-.67-5-5.16-8.06-2.25-1.54-10-6-13.87-5.61-3.22.35-6.47.61-7.35.68-6.31.83-8.21,2-10.62,2.62a35.27,35.27,0,0,0-3.3,2c-.73.34-.84,1.44-1.24,1.57a2.47,2.47,0,0,0-.73.41l-.83,1.85c-.58.67-.36,2.22-.34,2.76.07,1.74,1.48,3.45,6.33,6.93a31.69,31.69,0,0,0,8,4.09c.75.33,4,1.51,8.34,3.24,2.94,1.14,6.05,1.27,8.05,2.47,1.8,1.07,2.55,2.75,3.17,3.15.12.07.2.14.3.21A15.48,15.48,0,0,1,97,126a3,3,0,0,1,.46.87s.06,2.17-.46,1.45c-.21,1.66-1.91,3.73-5.43,5.9A25.92,25.92,0,0,1,77,137.86a26.23,26.23,0,0,1-4.33-.09c-.09,0-.15-.07-.23-.09a1.16,1.16,0,0,0-.77-.46,1.21,1.21,0,0,0-.42,0l-.16-.08-.12-.13,0,0a8.19,8.19,0,0,0-1-.47,27.47,27.47,0,0,1-3.24-1.37c-.17-.13-.34-.26-.5-.4l-.26-.24a15.34,15.34,0,0,1-2.08-2.92,3.25,3.25,0,0,0-2.18-1.23,2.26,2.26,0,0,0-2.47,1.76,3,3,0,0,0,.83,2.33l-.08.08a3.19,3.19,0,0,0,.89,2.28c.71.74,5.94,5.14,7.55,5.13.21,0,3.42,1.77,6,1.16,1-.27,2.38.11,3,0,3.2.41,7.82-.12,8.87-.6s2-.54,3.3-1c.43-.16.88,0,1.15-.32,0-.14.12-.29.26-.44.83-.33,1.82.53,2.33-.12.37-.29,2.64-.43,3.71-.8.13,0,.22-.75.5-.82,1-.08,1-.65,1.88-1.31,1.16-1.18,2-.59,2.72-2.24a21.06,21.06,0,0,0,1.63-2.43,5,5,0,0,0,1.13-2.55,3.57,3.57,0,0,0,.52-2A10.11,10.11,0,0,0,102.94,122.53Z"/><path class="cls-1" d="M61.58,8.27"/><path class="cls-1" d="M23.57,57.16c0,.06,0,.11,0,.16.13.62.91.81,1.49.63l.55-.19c.44-.13.79-.48,1.23-.61a48.8,48.8,0,0,0,5-1.83,20.24,20.24,0,0,1,4.24-1.68,37.73,37.73,0,0,0,5-1.44,24.66,24.66,0,0,0,3.62-1.36c.35-.18.87-.35.83-.72,0,0-.49-.57-.54-.67a9,9,0,0,1-.21-.9,4.36,4.36,0,0,1,0-1.61c.06-.42.09-.46-.28-.62s-1.41.18-1.86.29a9.64,9.64,0,0,0-2.64,1C39,48.22,38,49,36.88,49.52a39.43,39.43,0,0,1-4.64,1.42,49.11,49.11,0,0,0-5,2.12c-.81.38-1.79.91-2.61,1.26-.37.16-1,.28-1.26.61s0,.64,0,1S23.56,56.93,23.57,57.16Z"/><path class="cls-1" d="M28,66.43a49.36,49.36,0,0,1,5.1-1.58,40.74,40.74,0,0,0,4.64-1.41c1.11-.54,2.55-.88,3.62-1.47A9.64,9.64,0,0,1,44,61c.45-.1,1.07-.5,1.49-.34a24.24,24.24,0,0,0,.08-2.69,2,2,0,0,1,.13-.37l.08-2.69-1.93.84-1.44.2-7.45,3-9.75,3.12c0,.2-.7-.19-.67.72s.18.82,0,1.52a20.79,20.79,0,0,0,0,3.79,1,1,0,0,1,.09-.18c.26-.34.89-.46,1.26-.61C26.74,66.94,27.16,66.81,28,66.43Z"/><path class="cls-1" d="M45.86,65.65c-.08-.18-.2-.49-.38-.59a1.31,1.31,0,0,0-.56,0,.2.2,0,0,1-.14-.06,1.76,1.76,0,0,0-.44.12,20,20,0,0,1-3.19,1.28A35.62,35.62,0,0,1,36.37,68a19.07,19.07,0,0,0-4.19,1.25,48.71,48.71,0,0,1-4.88,2.09c-.44.13-.9.17-1.33.3-.26.08-1.2.25-1.45.32a.48.48,0,0,1-.39,0c-.11,1.75.18,3.09.08,4.46,0,0,6.53-2.39,6.56-2.56l5.72-1.72c.07,0,.4-.13,1-.35s.94-.34,1-.35c.93-.14,5.34-1.1,6.56-1.44a.73.73,0,0,0,.3-.22,1,1,0,0,1,.38-.26,10.63,10.63,0,0,0,.33-3.33A4.94,4.94,0,0,0,45.86,65.65Z"/><path class="cls-1" d="M38.27,22.63a11.4,11.4,0,0,0,0-3,10.29,10.29,0,0,0-2.6-2.52s-2.37-2.24-4.43-2.66a15.62,15.62,0,0,0-8.58.31,8,8,0,0,0-1,.36A55.77,55.77,0,0,0,18.09,8C16.52,5.84,8.32-1.24,8.08.19s3.7,4.38,3.7,4.38l.62,1,6.22,10.29s-1.51.91-1.53.91C13.23,13.14,5.47,9.68.52,10.07c-.23,0-.5,0-.52.3s2.38,1,2.38,1l1.39,1.07L9,14.28l.79.46s3.54,2.41,4.14,4.37a21.87,21.87,0,0,0-2.13,2.34A20.33,20.33,0,0,0,8,28.2a11.08,11.08,0,0,0-.41,3.24c0,1.11,0,2.07-.06,3.18A8,8,0,0,0,8,36.93c0,1.37.22,2.86.84,3.52.17.25.16,1.63.56,2.76.08.23.62.46.78.35a18.72,18.72,0,0,0,5.73-6.32c1,.43.09,3.6-.76,5.2-.11.2.09.3.29.18,3.33-1.82,8.24-4.75,8.24-4.75,1.83-.95,5.89-3.67,6.91-4.1a10.81,10.81,0,0,0,3.14-1.64c1.9-1.84,3.15-2.39,4.47-5,.24-.78.16-1.36.43-1.73S38.08,23.07,38.27,22.63Zm-13.33.63c.1-.53-1-1-1-1a5.34,5.34,0,0,0-1.78.2c-.34.11-.56.5-.83.63-.23.72-2.47.75-2.21-.05.88-2.67,6.89-3.36,6.74.15C25.87,24,24.91,24,24.94,23.26Z"/></g></g></svg>