<svg xmlns="http://www.w3.org/2000/svg" viewBox="0 0 283.46 77.42"><defs><style>.a{fill:#2e2f2d;}</style></defs><title>logo-black</title><path class="a" d="M241.36,39.91c4.83,4.83,7.1,10.18,7.1,16.25a23.6,23.6,0,0,1-6.38,15.63A22.81,22.81,0,0,1,224.8,79.2c-6.48,0-12-1.85-16.66-7.41-4.53-5.35-5.56-9.67-5.56-15.94a23,23,0,0,1,8.64-17.07,22.27,22.27,0,0,1,14.61-4.94A21.76,21.76,0,0,1,241.36,39.91Zm-5.45,15.94c0-11.31-6-17.9-10.7-17.9a8.07,8.07,0,0,0-6.48,2.78c-3.19,3.6-4.42,7.92-4.42,15.43,0,6,.41,9.87,3.19,14.3a8.64,8.64,0,0,0,8.13,4.42C232.41,74.88,235.91,66.35,235.91,55.85Z" transform="translate(0 -3.64)"/><path class="a" d="M1.44,40.65A1.3,1.3,0,0,1,0,39.22c0-.82.62-1.44,1.95-1.95,2.87-1,11.79-8.61,14-12.92a1.69,1.69,0,0,1,1.64-1c.82,0,1.23.62,1.23,1.44l-.41,10.15H32c.61,0,.82.41.72.82l-1,4.31c-.1.41-.41.62-1,.62H18.25c-.21,4.31-.31,9.23-.31,13.74V65.68c0,8,3.38,9.64,5.43,9.64a14.21,14.21,0,0,0,5.95-1.23c.72-.31,1-.31,1.23.21l.62,1.23A1.27,1.27,0,0,1,30.76,77a21.33,21.33,0,0,1-12.92,4.1c-6.15,0-10.77-4.92-10.77-9.23,0-3.69.31-13.95.31-17.84V40.65Z" transform="translate(0 -3.64)"/><path class="a" d="M101.54,48.55c0-3.08-.62-5.13-5.33-6.36-.92-.21-1-.51-1-.92V40.14c0-.41.21-.62.72-.82,1.44-.62,11.59-4.2,13.33-4.92a7.09,7.09,0,0,1,2.46-.62c.62,0,.92.41.82,1.23-.2,1.64-.2,8.2-.2,16.71V62.8c0,3.9,0,7.59.2,8.82.2,1.85.62,2.67,1.64,2.67h4.1c.82,0,1,.21,1,.72v2.05c0,.62-.2,1-.82,1-.82,0-5.54-.31-12.41-.31-5.95,0-9.84.31-11.07.31-.51,0-.82-.21-.82-1V75.11c0-.62.41-.82,1-.82H99.7c1,0,1.54-.41,1.64-2.05.1-3.08.2-6.36.2-9.23Z" transform="translate(0 -3.64)"/><path class="a" d="M136.72,34.4a4.59,4.59,0,0,1,2.05-.62c.62,0,1.13.41,1.23,1.44l.62,5.95H141a19.57,19.57,0,0,1,14.77-7.38c6.15,0,9.64,3.08,12.1,7.59h.62c3.28-4.31,8.61-7.59,14.36-7.59,4.1,0,6.77.62,9.43,3.49S197,41.58,197,50.5V62.19c0,2.87-.21,7.79-.21,9,0,2.26,1.23,3.08,2.67,3.08h2.67c.61,0,.82.21.82.72v2.15c0,.62-.21.92-.82.92s-3.49-.31-9.84-.31c-5.74,0-9.43.31-10,.31s-.82-.31-.82-.82V75.11c0-.62.21-.82.82-.82h1.64a1.93,1.93,0,0,0,2.05-2.05c.2-2.26.41-5.95.41-9v-12c0-4.92-.41-7.59-2.26-9.23a7.9,7.9,0,0,0-6.15-2.26c-2.87,0-5.95,2.26-7.28,4.2-1.54,2.15-1.54,5.23-1.54,8V71c0,2.26.62,3.28,1.85,3.28h2.66c.82,0,1,.21,1,.72v2.26c0,.51-.1.82-.62.82-.82,0-3.49-.31-10.05-.31-6.36,0-9.74.31-10.36.31s-.72-.31-.72-.82V75.31c0-.82.2-1,.82-1H156c1.43,0,2.46-1,2.46-4.72V52c0-7.38-1.23-9.64-2.67-10.87-1.23-1-3.49-1.44-5.54-1.44A9,9,0,0,0,142.87,44c-1.44,2.05-1.64,4.31-1.64,7.28V69.57c0,3.69.82,4.72,2.05,4.72h2.26c.82,0,1,.21,1,.62v2.36c0,.51-.2.82-.82.82-.82,0-3.69-.31-10.25-.31-6.15,0-9.43.31-10.25.31-.62,0-.82-.21-.82-.92V75c0-.51.41-.72,1.23-.72h3.08c1,0,1.64-.82,1.84-2.67V50.4c0-3.28-.61-5.13-3.08-6.56l-2.15-1.13c-.51-.31-.72-.51-.72-.92v-1c0-.41.31-.62.72-.82Z" transform="translate(0 -3.64)"/><path class="a" d="M105,23.43c-3.28,0-6.56-2.56-6.56-6.15,0-3.08,3-6.36,7.18-6.36A6.16,6.16,0,0,1,112,16.86C112,19.94,109.85,23.43,105,23.43Z" transform="translate(0 -3.64)"/><path class="a" d="M243,71.61" transform="translate(0 -3.64)"/><path class="a" d="M241.8,71.79" transform="translate(0 -3.64)"/><path class="a" d="M276.37,39.9a21.76,21.76,0,0,0-15.53-6.07,22.27,22.27,0,0,0-14.61,4.94c-.29.23-.56.47-.83.71.13.15.27.28.4.43a25.52,25.52,0,0,1,4.38,7.64,15.72,15.72,0,0,1,3.56-6.83,8.07,8.07,0,0,1,6.48-2.78c4.73,0,10.7,6.58,10.7,17.9,0,10.49-3.5,19-10.29,19a8.64,8.64,0,0,1-8.13-4.42,18.84,18.84,0,0,1-2.41-5.65,26.83,26.83,0,0,1-3.7,7,19.7,19.7,0,0,1-1.53,1.84c4.27,4.13,9.25,5.56,15,5.56a22.81,22.81,0,0,0,17.28-7.41,23.6,23.6,0,0,0,6.38-15.63C283.46,50.09,281.2,44.74,276.37,39.9Z" transform="translate(0 -3.64)"/><path class="a" d="M144.4,0" transform="translate(0 -3.64)"/><path class="a" d="M88.32,74.29H86.47c-1.64,0-3.49-.2-3.49-1.64V53c0-5.84.21-11-4.51-15.07-3.08-2.67-5.74-4.1-10.25-4.1a17.93,17.93,0,0,0-10.67,3.63v4.22a10.2,10.2,0,0,1,6.26-2.51,7.45,7.45,0,0,1,5.74,2.46c2.67,2.67,2.67,8.41,2.67,13.74v6.87c0,3.28,0,8.61-.2,10-.21,1.64-1.64,2.05-2.87,2.05H67.4c-.51,0-.72.21-.72.62v2.46c0,.51.2.72.82.72,1,0,4.72-.31,10.87-.31s9.54.31,10.15.31.82-.31.82-.82V75C89.34,74.49,89.14,74.29,88.32,74.29Z" transform="translate(0 -3.64)"/><path class="a" d="M58.68,74.29H56.22c-1.43,0-1.84-1-1.84-4.31V47.83c0-.07,0-.14,0-.2V40h0V33.68c0-5,0-25.74.2-27.58.21-1.64,0-2.46-.82-2.46a8.79,8.79,0,0,0-2.87.82C47.61,6.1,40.63,9.58,37.56,10.4c-1.23.62-1.44.82-1.44,1.23v1c0,.41.21.61.82.82l1.84.62c3.49,1.44,4.72,3.49,4.72,9.23l.2,36.61c0,4.72-.1,10.66-.51,12.71-.31,1.23-1.74,1.64-3.38,1.64H37.25c-.51,0-.92.21-.92.72v2.26c0,.62.31.82.82.82.82,0,4.72-.31,11.08-.31,5.33,0,9.84.31,10.66.31.62,0,.82-.41.82-1V75.21C59.71,74.49,59.3,74.29,58.68,74.29Z" transform="translate(0 -3.64)"/></svg>