<svg xmlns="http://www.w3.org/2000/svg" viewBox="0 0 369.74 399.07"><defs><style>.a{fill:#799577;}.b{fill:#eaeaea;}.c{fill:#4e4437;}.d{fill:#575857;}</style></defs><title>closel-bourbon</title><path class="a" d="M142.85,320.25c.54,3.48,2.49,6.95,5.73,8.34a3.58,3.58,0,0,0,3.08.11,3.09,3.09,0,0,0,1.41-2.17,9.06,9.06,0,0,0,0-2.67c-.36-3.31,0-9.09-2.59-11.68-1.51-1.5-5.49-2.45-7.12-.57-1.45,1.66-.8,6.59-.48,8.65"/><path class="a" d="M159.64,294.72c1.37,1.41,1,3.86-.18,5.39a12.29,12.29,0,0,1-4.91,3.17c-1.46.64-10,6.07-9.48,1.16.19-1.64,14-10.27,14.57-9.73"/><path class="a" d="M178.09,297.93a10.4,10.4,0,0,1-3.72,11.32c-5.56,4.08-5.15-1.76-2.87-5.52.87-1.43,4.49-4.76,4.49-6.36a1.46,1.46,0,0,1,.75-.66c.65-.16,1.15.58,1.35,1.22"/><path class="a" d="M187.77,308.85a1.84,1.84,0,0,0,0,1.46c.38.6,1.24.58,1.93.44a12,12,0,0,0,9-8.72,1.53,1.53,0,0,0-.25-1.56,1.62,1.62,0,0,0-1.16-.2c-5.71.46-8,2.94-9.56,8.58"/><path class="a" d="M186.5,320.41a6.87,6.87,0,0,1,0-2.71,2.33,2.33,0,0,1,1.85-1.78c1.23-.12,2.17,1,2.77,2.13a25,25,0,0,1,2.91,8.73,5.81,5.81,0,0,1-.17,3,2.35,2.35,0,0,1-2.34,1.56,3.3,3.3,0,0,1-2.09-1.8,21.66,21.66,0,0,1-3.06-9.71"/><path class="a" d="M174.26,328.29c4.14,1.21,4.32-3,2.78-5.43s-4.66-6.65-7.76-5.95a3.73,3.73,0,0,0-2.77,3.49c-.06,2.56,2.82,4.49,4.59,5.94a9.36,9.36,0,0,0,3.16,1.95"/><path class="a" d="M213.75,325c2-.37,3.17-2.57,3-4.57a9.91,9.91,0,0,0-2.53-5.34,32.19,32.19,0,0,0-3.72-3.92,3.78,3.78,0,0,0-3-1.29c-4.61.88,1.75,15.95,6.22,15.11"/><path class="a" d="M233.68,313.54c-1.12-2.37-2.3-5.46-3.92-7.5-2.69-3.4-6.68-1.76-5.67,2.19a16.65,16.65,0,0,0,6.91,9,2.66,2.66,0,0,0,2.44.36c1.34-.69.88-2.69.24-4.05"/><path class="a" d="M232.29,297.07a5.89,5.89,0,0,1-1.77,2.76c-1.59,1.14-4,.29-5-1.41a5.92,5.92,0,0,1,.26-5.61c1-1.86,3.79-5.65,6.4-4.73,3.32,1.16,1,6.89.11,9"/><path class="a" d="M237.42,302.33c-3.89-3.36,15.13-6.42,16.71-6.35a3,3,0,0,1,2.16.72,2.11,2.11,0,0,1-.52,2.86,6.12,6.12,0,0,1-3,1l-13.53,2a2.22,2.22,0,0,1-1.8-.25"/><path class="a" d="M211.46,299.67a22.75,22.75,0,0,1-.43,6.83,1.67,1.67,0,0,1-2.4-.43,4.81,4.81,0,0,1-.65-2.66c-.07-1.41-1.29-7.43,1.47-7.25,1.25.08,1.82,1.62,2,3.5"/><path class="a" d="M131.5,309.3a18.79,18.79,0,0,1-.64,6.29,7.65,7.65,0,0,1-1.06,2.89,2.64,2.64,0,0,1-2.67,1.17,2.59,2.59,0,0,1-1.72-2.07,6.93,6.93,0,0,1,.2-2.81c.68-3.09,4.6-15.89,5.89-5.48"/><path class="a" d="M145.1,287.9a4.7,4.7,0,0,1-.19,4.14,13.1,13.1,0,0,1-2.67,3.34q-1.93,1.91-3.93,3.75c-1.31,1.21-3,2.47-4.71,1.86a3.42,3.42,0,0,1-1.81-3.84,10,10,0,0,1,2.15-4c1.74-2.32,7.64-12.16,11.17-5.2"/><path class="b" d="M178.87,371.82c.92,1.67,3.16,5.06,5.27,5.17,2.6.14,2.06-2.93,1.11-4.54a11.64,11.64,0,0,0-3.41-4.12c-2.57-1.58-4.33,1-3,3.48"/><path class="b" d="M186.85,386.13a4.58,4.58,0,0,0-.19-2.95c-2.28-4.21-8.48,6.29-9.07,8.23a4.14,4.14,0,0,0,0,3.15,2.81,2.81,0,0,0,3.06,1.22,5.58,5.58,0,0,0,2.88-2,16.27,16.27,0,0,0,3.34-7.7"/><path class="b" d="M181.69,2.7c-.31,2.09-2.2,3.44-3.68,4.9s-2.67,3.91-1.41,5.57c1,1.3,3,1.26,4.35.36a10,10,0,0,0,2.94-3.83A9.93,9.93,0,0,0,185.27,6a3.36,3.36,0,0,0-1.61-3.37,2,2,0,0,0-2.79,1.7"/><path class="b" d="M186.59,22.17a6.41,6.41,0,0,0-2.92-3.63,4.36,4.36,0,0,0-5,.59c-2.75,2.72,2.82,12.51,6.15,12,1.17-.19,1.72-1.57,2-2.77a12.64,12.64,0,0,0,0-5.49c-.06-.23-.12-.45-.2-.67"/><path class="c" d="M351.4,115a174.39,174.39,0,0,0-18.49-30.64A149.13,149.13,0,0,0,319.79,69,166.3,166.3,0,0,0,275.7,36.81c-26.22-13.16-55.43-18.87-80.5-22.71l-.1-.12-.29.1-.3,0a1.49,1.49,0,0,0-1.05.28c-.95.19-1.64,1.41-1.86,1.82a1.82,1.82,0,0,0,0,1.76v.45l.3.33c.54.6,1.84,1,15.57,3.6,5,1,10.29,2,14.24,2.84a247.86,247.86,0,0,1,30.16,8.67c1.32.56,2.64,1.12,4.12,1.8,1,.28,1.94.6,2.91.93l1.63.61,1.67.68a181.3,181.3,0,0,1,23.21,12,61.17,61.17,0,0,1,5.36,4.9,44.21,44.21,0,0,0,5.39,4.83,15.67,15.67,0,0,0,3.69,2,8.36,8.36,0,0,1,1,.47c1,1.07,2,2.28,3,3.46,1.08,1.33,2.21,2.71,3.4,3.9a56.32,56.32,0,0,0,5.2,4.09c3.56,2.63,8,5.9,10.73,8.79,2.19,2.57,4.06,4.87,5.71,7,1.49,2,2.92,4.09,4.29,6.14l.59.91c2.46,3.75,4.85,7.75,7.06,11.84.1.2.21.4.32.6s.2.35.31.58L343.3,113c.61,1.2,1.22,2.4,1.81,3.65a196.43,196.43,0,0,1,16.75,50.13l.2,1.16c.1.61.21,1.21.29,1.74l1.18,15.9a214.79,214.79,0,0,1-1.58,33.82l-.59,4.15c-.24,1.62-.48,3.23-.75,4.84l-.3,1.66q-.54,3.06-1.17,6.1l-.46,2.09a71.72,71.72,0,0,1-2.77,7.16c-1,2.25-2.17,5-3.77,9.4a48.17,48.17,0,0,0-2.82,11.47,34.31,34.31,0,0,1-1.11,5.63c-9,21.75-21.33,40.62-36.74,56.08a145,145,0,0,1-24.62,19.93A146.11,146.11,0,0,1,269.65,357a103.42,103.42,0,0,1-10.81,3.86,424.43,424.43,0,0,1-69.43,15.6,1.24,1.24,0,0,0-.41.18l-.44-1c-1.47-3.23-3.13-6.9-5.53-9.46a7.63,7.63,0,0,0-1.09-1,3.56,3.56,0,0,0-3.79-.66,2.89,2.89,0,0,0-.45.26l-.14.09a3.86,3.86,0,0,0-1.24,1.66,5.18,5.18,0,0,0-.38,2.87,3.65,3.65,0,0,0,.11.63,3.93,3.93,0,0,0,.63,1.76,11.6,11.6,0,0,0,1.56,2.28c.54.62,1.11,1.21,1.68,1.8s1.19,1.21,1.72,1.85c.38.45.77.87,1.23,1.32l.12.14a9.41,9.41,0,0,0,1.63,1.4,25.29,25.29,0,0,0-3.29,4.77l0,0-.3.73c-.06.16-.13.33-.19.49l0,.09c-.19.65-2.82,10.37-.49,12.12a1.44,1.44,0,0,0,.88.3,3.18,3.18,0,0,0,2-1c1.35-.8,2.88-4.28,4.15-8.35a33.24,33.24,0,0,0,1.86-6.91,243.65,243.65,0,0,0,37.11-6.22,376.35,376.35,0,0,0,39.13-11.39c17.07-6,33.12-16.31,49.07-31.65a161.16,161.16,0,0,0,30.16-40.33,190.26,190.26,0,0,0,11-23.86A210.44,210.44,0,0,0,368.28,217c.31-2.62.57-5.25.79-7.89a190.52,190.52,0,0,0,.64-19.67v-1.73c0-1.12,0-2.24,0-3.36C369.31,162.84,363.32,140.16,351.4,115ZM183.06,375.46l-.87-.9c-.36-.36-.73-.7-1.12-1.06l0,0q-.16-1.08-.26-2a6.92,6.92,0,0,1,.22-.66l.11-.27-.09-.27h0c0-.49,0-.89,0-1.22l1.89,2.32.09.15c.14.23.27.45.41.73,1.13,2,2.17,4,3.13,6.12h0A13.85,13.85,0,0,1,183.06,375.46Zm2.74,13.77c-.86,2-1.67,2.65-2.14,2.86a1.66,1.66,0,0,1-1.41,0c.27-.62.67-1.56,1.13-2.65.81-1.89,2.13-5,3.16-7.31l.19.17a1.33,1.33,0,0,0,.23.29l.44.34C186.94,385.09,186.41,387.26,185.8,389.23Z"/><path class="c" d="M190.32,28.21c0-.13,0-.25,0-.38,0-.4-.11-.81-.21-1.3a14.32,14.32,0,0,0-.9-2.89l-.15-.32L189,23.2c-.07-.15-.14-.3-.2-.42a12.86,12.86,0,0,0-2.21-3.3,11.8,11.8,0,0,0-2.23-1.88A14.81,14.81,0,0,0,181.2,16a16.52,16.52,0,0,0,2.17-2.55,22.59,22.59,0,0,0,1.85-3.72l.12-.27c.14-.31.27-.62.4-.92l.09-.21.17-.39.09-.18A5.66,5.66,0,0,0,187,4.47a2.43,2.43,0,0,0-.14-.46,3.86,3.86,0,0,0-.38-1,3.14,3.14,0,0,0-.28-.42l-.45-.88a4.6,4.6,0,0,0-.16-.49c-.18-.68-.5-1.09-1.54-1.2H184a3.1,3.1,0,0,0-2.59.93l-.13.12-.1.12a6.56,6.56,0,0,0-1.62,2.59l-.09.2c-.81,2-1.61,4-2.36,6A23,23,0,0,0,176,14.18a1.44,1.44,0,0,0-.82-.15l-.25,0-.08,0-.29,0C149.45,17.94,120.25,23.64,94,36.81A166.28,166.28,0,0,0,49.95,69,148.84,148.84,0,0,0,36.83,84.38,174.65,174.65,0,0,0,18.33,115C6.41,140.16.43,162.83,0,184.36c0,1.19,0,2.38,0,3.56v1.5a193,193,0,0,0,.63,19.7c.22,2.63.47,5.27.79,7.88a210.35,210.35,0,0,0,12.72,52.35,190.52,190.52,0,0,0,11,23.86,161,161,0,0,0,30.16,40.34c15.94,15.35,32,25.7,49.06,31.65a375.59,375.59,0,0,0,39.11,11.39c6.16,1.55,17.25,3.36,23.87,4.45l1.1.18.22,0c2.42-.52,3-1.73,3.2-2.4a2.74,2.74,0,0,0-1.19-2.78l-.13-.09c-2.52-1.47-6.61-2.24-10.56-3l-2.66-.51a467.15,467.15,0,0,1-46.44-11.57A102.73,102.73,0,0,1,100.1,357a146.46,146.46,0,0,1-17.2-9.09A145.13,145.13,0,0,1,58.26,328c-15.41-15.45-27.77-34.32-36.7-56a64.62,64.62,0,0,1-1.67-7.46,71.57,71.57,0,0,0-2.28-9.71,93.26,93.26,0,0,0-3.53-9,79.86,79.86,0,0,1-3-7.53l-.49-2.19q-.63-3-1.16-6.1l-.3-1.66c-.29-1.72-.54-3.46-.81-5.26l-.19-1.25c-.11-.69-.21-1.38-.3-2.07L6.67,220h0l1.12-.55a214.75,214.75,0,0,1-1.58-33.78l1.18-15.87c.09-.64.2-1.27.31-1.9l.18-1a196.55,196.55,0,0,1,16.76-50.19c.6-1.27,1.24-2.52,1.88-3.77l1.78-3.48c.09-.19.19-.37.29-.55s.21-.38.29-.54c2.25-4.16,4.63-8.16,7.06-11.84l.59-.91c1.39-2.09,2.83-4.15,4.3-6.16,1.68-2.19,3.5-4.42,5.69-7A77.83,77.83,0,0,1,62.27,69.63l.31-.28a88.82,88.82,0,0,1,6.3-7.28c1.13-.72,4.34-3.3,9-7.08,2.53-2,5-4,6.35-5.08a180,180,0,0,1,23.3-12.11l1.66-.68,1.63-.61c1-.32,1.93-.65,3.09-1,1.32-.62,2.65-1.18,4.07-1.79a249.13,249.13,0,0,1,30-8.61c8.33-1.81,17.21-3.42,28.53-5.17,1.92,3,3.92,5.9,5.94,8.69a23.78,23.78,0,0,0,2.92,4l.22.22a2.86,2.86,0,0,0,.91.6,2.12,2.12,0,0,0,.73.14,1.87,1.87,0,0,0,.54-.08l.18,0a2.78,2.78,0,0,0,1.75-1.86,7.16,7.16,0,0,0,.56-2.19,6.39,6.39,0,0,0,0-.87C190.34,28.45,190.33,28.33,190.32,28.21ZM180.37,8.39c.2-.5.41-1,.61-1.49l.9-2.14c.12-.29.24-.57.37-.85a3.24,3.24,0,0,1,.71-.17l.29-.09.13-.09.21,0,0,2.46-.12,2.51-.51,1.13c-1.15,1.79-2.62,3.75-3.6,5.05l-.19.25c-.16.15-.33.3-.55.48l-.14.16A31.57,31.57,0,0,1,180.37,8.39Zm4.58,17.12c.15.86.26,1.61.35,2.26l-.18-.25-.83-1.29c-1.74-2.42-3.41-4.93-5.06-7.44a1.28,1.28,0,0,0,0-.67l.6.2,5.29,4.6c.09.35.16.69.21,1a8.6,8.6,0,0,1-.35,1.16l-.08.21Z"/><polygon class="c" points="308.74 213.48 308.69 213.48 308.69 237.17 294.25 213.48 286.85 213.48 286.85 249.41 294.25 249.41 294.25 225.77 308.67 249.41 316.07 249.41 316.07 220.81 308.74 213.48"/><path class="c" d="M61.06,233.77v9.7h6.34a7.56,7.56,0,0,0,2.47-.36,4.87,4.87,0,0,0,1.73-1,4,4,0,0,0,1-1.48,5.08,5.08,0,0,0,.33-1.86,6.84,6.84,0,0,0-.3-2.09,3.82,3.82,0,0,0-2.57-2.58,7.45,7.45,0,0,0-2.42-.35Zm0-5.23h5.48a6.7,6.7,0,0,0,4.22-1.2,4,4,0,0,0,1.38-3.27,4.14,4.14,0,0,0-1.42-3.52,7.48,7.48,0,0,0-4.48-1.07H61.06Zm-7.4,20.88V213.48H66.25a24.23,24.23,0,0,1,5.6.59A12,12,0,0,1,76,215.88,8,8,0,0,1,78.65,219a9.88,9.88,0,0,1,.9,4.37,9.08,9.08,0,0,1-.31,2.37,7.62,7.62,0,0,1-2.53,3.91,8.18,8.18,0,0,1-2.29,1.32,8,8,0,0,1,2.7,1.2A7.39,7.39,0,0,1,80,236.29a9.88,9.88,0,0,1,.33,2.55q0,5.23-3.37,7.9t-9.59,2.66Z"/><path class="c" d="M113.49,230.63q0-5.65-2-8.59a7.15,7.15,0,0,0-11.55,0q-2,2.94-2,8.59v1.63a21,21,0,0,0,.53,5,11.13,11.13,0,0,0,1.53,3.63,6.65,6.65,0,0,0,2.46,2.22,7.11,7.11,0,0,0,3.33.75,6.51,6.51,0,0,0,5.75-3q2-3,2-8.61Zm7.5,1.63a23,23,0,0,1-1.11,7.39,16,16,0,0,1-3.12,5.54,13.62,13.62,0,0,1-4.82,3.49,16.32,16.32,0,0,1-12.39,0,13.84,13.84,0,0,1-4.85-3.49,16.11,16.11,0,0,1-3.17-5.54,22.47,22.47,0,0,1-1.14-7.39v-1.58a22.65,22.65,0,0,1,1.12-7.38,16.22,16.22,0,0,1,3.15-5.58,13.54,13.54,0,0,1,4.84-3.52,16.32,16.32,0,0,1,12.39,0,13.58,13.58,0,0,1,4.84,3.52,16.34,16.34,0,0,1,3.15,5.58,22.75,22.75,0,0,1,1.12,7.38Z"/><path class="c" d="M216,233.77v9.7h6.34a7.56,7.56,0,0,0,2.47-.36,4.87,4.87,0,0,0,1.73-1,4,4,0,0,0,1-1.48,5.08,5.08,0,0,0,.33-1.86,6.84,6.84,0,0,0-.3-2.09,3.82,3.82,0,0,0-2.57-2.58,7.45,7.45,0,0,0-2.42-.35Zm0-5.23h5.48a6.7,6.7,0,0,0,4.22-1.2,4,4,0,0,0,1.38-3.27,4.14,4.14,0,0,0-1.42-3.52,7.48,7.48,0,0,0-4.48-1.07H216Zm-7.4,20.88V213.48h12.59a24.23,24.23,0,0,1,5.6.59,12,12,0,0,1,4.18,1.81,8,8,0,0,1,2.62,3.07,9.88,9.88,0,0,1,.9,4.37,9.08,9.08,0,0,1-.31,2.37,7.62,7.62,0,0,1-2.53,3.91,8.18,8.18,0,0,1-2.29,1.32,8,8,0,0,1,2.7,1.2,7.39,7.39,0,0,1,2.91,4.17,9.88,9.88,0,0,1,.33,2.55q0,5.23-3.37,7.9t-9.59,2.66Z"/><path class="c" d="M268.41,230.63q0-5.65-2-8.59a7.15,7.15,0,0,0-11.55,0q-2,2.94-2,8.59v1.63a21,21,0,0,0,.53,5,11.13,11.13,0,0,0,1.53,3.63,6.62,6.62,0,0,0,2.46,2.22,7.11,7.11,0,0,0,3.33.75,6.51,6.51,0,0,0,5.75-3q2-3,2-8.61Zm7.5,1.63a23,23,0,0,1-1.11,7.39,16,16,0,0,1-3.12,5.54,13.62,13.62,0,0,1-4.82,3.49,16.32,16.32,0,0,1-12.39,0,13.84,13.84,0,0,1-4.85-3.49,16.11,16.11,0,0,1-3.17-5.54,22.47,22.47,0,0,1-1.14-7.39v-1.58a22.66,22.66,0,0,1,1.12-7.38,16.22,16.22,0,0,1,3.15-5.58,13.54,13.54,0,0,1,4.84-3.52,16.32,16.32,0,0,1,12.39,0,13.58,13.58,0,0,1,4.84,3.52,16.34,16.34,0,0,1,3.15,5.58,22.75,22.75,0,0,1,1.12,7.38Z"/><path class="c" d="M151.7,213.5v23.7q0,3.53-1.66,5.15a7.58,7.58,0,0,1-9.35,0Q139,240.72,139,237.2V213.48h-7.4V237.2a13.79,13.79,0,0,0,1,5.49,11,11,0,0,0,2.85,4,12.11,12.11,0,0,0,4.36,2.42,19.17,19.17,0,0,0,11.06,0,12.12,12.12,0,0,0,4.35-2.42,11.12,11.12,0,0,0,2.86-4,13.67,13.67,0,0,0,1-5.49V220.93Z"/><path class="c" d="M189.62,227.11a4.52,4.52,0,0,1-1.1,1.68,4.87,4.87,0,0,1-1.83,1.09,7.7,7.7,0,0,1-2.55.39h-6V219.48h5.95a6,6,0,0,1,4.43,1.45,5.44,5.44,0,0,1,1.44,4,6.09,6.09,0,0,1-.37,2.18m1.22,22.3,5.29-5.29L191,234.38a13.22,13.22,0,0,0,2.67-1.58,9.31,9.31,0,0,0,2-2.13,9.42,9.42,0,0,0,1.29-2.79,13,13,0,0,0,.44-3.54,11.27,11.27,0,0,0-.91-4.69,9.06,9.06,0,0,0-2.61-3.39,11.69,11.69,0,0,0-4.17-2.07,20.4,20.4,0,0,0-5.58-.7H170.76v35.94h7.4V236.26h5.9l6.74,13.15Z"/><path class="c" d="M173.86,172.32q0-5.65-2-8.59a7.15,7.15,0,0,0-11.55,0q-2,2.94-2,8.59V174a21,21,0,0,0,.53,5,11.05,11.05,0,0,0,1.53,3.63,6.64,6.64,0,0,0,2.45,2.22,7.13,7.13,0,0,0,3.33.75,6.51,6.51,0,0,0,5.75-3q2-3,2-8.61Zm7.5,1.63a23,23,0,0,1-1.11,7.39,16,16,0,0,1-3.12,5.54,13.62,13.62,0,0,1-4.82,3.49,16.32,16.32,0,0,1-12.39,0,13.84,13.84,0,0,1-4.85-3.49,16.11,16.11,0,0,1-3.17-5.54,22.47,22.47,0,0,1-1.14-7.39v-1.58a22.75,22.75,0,0,1,1.12-7.38,16.29,16.29,0,0,1,3.15-5.58,13.54,13.54,0,0,1,4.84-3.52,16.32,16.32,0,0,1,12.39,0,13.54,13.54,0,0,1,4.84,3.52,16.29,16.29,0,0,1,3.15,5.58,22.75,22.75,0,0,1,1.12,7.38Z"/><polygon class="c" points="270.33 162.6 262.92 155.19 262.92 191.1 286.05 191.1 286.05 185.15 270.33 185.15 270.33 162.6"/><polygon class="c" points="236.34 175.53 250.55 175.53 250.55 169.73 236.34 169.73 236.34 161.17 252.97 161.17 246.97 155.17 228.93 155.17 228.93 191.1 253.02 191.1 253.02 185.16 236.34 185.16 236.34 175.53"/><polygon class="c" points="127.9 185.16 127.9 162.6 120.49 155.19 120.49 191.1 143.62 191.1 143.62 185.16 127.9 185.16"/><path class="c" d="M215.34,174.49a15.47,15.47,0,0,0-3.72-2.52,35,35,0,0,0-5.17-2,20.44,20.44,0,0,1-5.32-2.24,3.49,3.49,0,0,1-1.81-3,3.72,3.72,0,0,1,1.42-3,5.13,5.13,0,0,1,1.78-.89,9,9,0,0,1,2.53-.32,8,8,0,0,1,2.61.38A5.1,5.1,0,0,1,209.5,162a4.29,4.29,0,0,1,1.1,1.65s0,.06,0,.09l5-5a10.9,10.9,0,0,0-.89-.94,12.5,12.5,0,0,0-4.17-2.31,16.9,16.9,0,0,0-5.43-.83,18.57,18.57,0,0,0-5.35.73,13.48,13.48,0,0,0-4.19,2,9.23,9.23,0,0,0-2.74,3.17,8.73,8.73,0,0,0-1,4.11,8.44,8.44,0,0,0,.95,4.1,10.39,10.39,0,0,0,2.59,3.1,17.2,17.2,0,0,0,3.82,2.33,43.33,43.33,0,0,0,4.65,1.77,34.19,34.19,0,0,1,3.54,1.31,9.59,9.59,0,0,1,2.15,1.26,3.29,3.29,0,0,1,1,1.4,5,5,0,0,1,.27,1.69,4,4,0,0,1-.34,1.62,3.36,3.36,0,0,1-1,1.29,5.1,5.1,0,0,1-1.75.85,9.06,9.06,0,0,1-2.49.31,12.24,12.24,0,0,1-2.91-.32,6,6,0,0,1-2.23-1,4.74,4.74,0,0,1-1.44-1.84,6.62,6.62,0,0,1-.52-2.76h-7.43a11.2,11.2,0,0,0,.58,3.69,10.28,10.28,0,0,0,1.6,3,11,11,0,0,0,2.41,2.27,14.54,14.54,0,0,0,3,1.6,17.07,17.07,0,0,0,3.39,1,20.92,20.92,0,0,0,3.55.31,19.71,19.71,0,0,0,5.37-.68A12.45,12.45,0,0,0,214.8,189a8.7,8.7,0,0,0,2.63-3.12,9.31,9.31,0,0,0,.93-4.22,9.81,9.81,0,0,0-.77-4,9.53,9.53,0,0,0-2.26-3.16"/><path class="c" d="M104.38,183.1a4.89,4.89,0,0,1-.72.86,5.32,5.32,0,0,1-2.12,1.2,10.2,10.2,0,0,1-3,.4,7.42,7.42,0,0,1-3.37-.7,5.64,5.64,0,0,1-2.27-2.11,10.35,10.35,0,0,1-1.28-3.5,25.92,25.92,0,0,1-.41-4.89v-2.42q0-5.72,1.84-8.45a6.27,6.27,0,0,1,5.59-2.73,9.79,9.79,0,0,1,3.11.43,5.12,5.12,0,0,1,2.1,1.27,5,5,0,0,1,.69.9l4.73-4.73c-.11-.11-.19-.25-.3-.35a12.76,12.76,0,0,0-4.38-2.64,17.13,17.13,0,0,0-5.94-1,15.22,15.22,0,0,0-6.17,1.21,13,13,0,0,0-4.7,3.45,15.89,15.89,0,0,0-3,5.45A22.8,22.8,0,0,0,83.68,172v2.37a23.46,23.46,0,0,0,1,7.17A15.62,15.62,0,0,0,87.64,187a12.74,12.74,0,0,0,4.66,3.44,15.46,15.46,0,0,0,6.21,1.2,17.64,17.64,0,0,0,5.94-.92,13.16,13.16,0,0,0,4.43-2.57c.09-.08.15-.18.24-.26Z"/><path class="c" d="M76.73,99.52c0-4.11-.62-5.22-4.42-5.4V92.81H85.74v1.31c-3.8.13-4.74,1.25-4.74,5.71v21.94c0,7.38-2.86,11.4-8.83,11.4-4,0-6.72-1.72-6.72-4.29,0-1.5.87-2.08,2.26-2.34,1.14-.21,2.39.27,2,2.09s.92,2.89,3.21,2.71,3.8-3,3.8-7.76Z"/><path class="c" d="M108.18,112.29h10.44L113.45,99Zm11.28,2.21H107.3c-2,4.86-2.74,7.29-2.74,8.49,0,1.64,1.38,2.53,3.81,2.53v1.31H97.63v-1.31c2.7-.31,3.8-1.42,4.82-3.94l11.49-28.77h1.9l10,24.92c2.7,6.63,3.67,7.75,6.72,7.75v1.36H118.18v-1.36c3.14,0,4.11-.9,4.11-2.26a9.76,9.76,0,0,0-1-3.94Z"/><path class="c" d="M153.74,108.49h3.5c5.83,0,8.7-2,8.7-6.94,0-4.72-2.21-7-7-7h-4.07a1.39,1.39,0,0,0-1.11,1.11Zm9.07,1.86,9.76,11.75a9.06,9.06,0,0,0,6.06,3.41v1.32h-8.16L159.64,113c-1.55-2-3.16-2.25-5.9-2.25v9.19c0,4.37,1.11,5.62,6.46,5.62v1.32H144.6v-1.32c4.16-.13,4.86-1.25,4.86-5.4V99.52c0-4.11-.62-5.22-4.42-5.4V92.8h13.88c8.09,0,12.77,3.18,12.77,8.53,0,4.68-2.7,8-8.88,9"/><path class="c" d="M200.42,94.61a1.39,1.39,0,0,0-1.12,1.12v23.91c0,3.4,2.49,5.4,6.95,5.4,8,0,12.51-5.27,12.51-14.55,0-9.77-4.86-15.88-12.73-15.88Zm-10.7,32.23v-1.31c4.51-.13,5.3-1.2,5.3-5.4V99.52c0-4.11-.62-5.23-4.42-5.4V92.81h15.51c10.65,0,18.38,7.42,18.38,17.59,0,9.68-7.2,16.44-17.5,16.44Z"/><path class="c" d="M248.27,118.48c0,5.83,1,6.91,5.18,7v1.31H239.14v-1.31c4.15-.13,5.22-1.25,5.22-6.73V100.85c0-5-1-6.55-4.79-6.73V92.81H253v1.31c-3.8.13-4.74,1.69-4.74,7Z"/><path class="c" d="M296.76,127.28l-21-27.66h-.54v18.87c0,5.83,1,6.9,4.74,7v1.31H268.08v-1.31c4.15-.13,5.22-1.25,5.22-6.73V100.85c0-5-1-6.55-4.79-6.73V92.81h8.75l19.31,25.76h.54V101.16c0-5.84-1-6.91-4.74-7V92.81h11.89v1.31c-4.15.13-5.22,1.25-5.22,6.73v26.43Z"/><path class="d" d="M263.06,294.34a2.69,2.69,0,0,0-.41-1l0-.07a1.9,1.9,0,0,0-.93-.93c-1.73-.72-4.68-.34-7.19.15h.19l-.32,0h.35c-.55.08-1.1.16-1.64.26h-.17l.72-.15.74-.11h-.13l.26,0a11.47,11.47,0,0,0-3.65.42A25.65,25.65,0,0,0,240.07,297l-1,.44s0,0,0,0a.82.82,0,0,0-.64-.31l-.15-.1L234,298.36l-.6.2q5.82-4.51,4.93-7.65c.05-.12.09-.25.14-.37a9.54,9.54,0,0,0,.77-2.3,6.75,6.75,0,0,0,0-2.38,3.25,3.25,0,0,0-2-2.85l-.15,0-.06,0a5.13,5.13,0,0,0-4.67.55,8.41,8.41,0,0,0-2.73,2.47,46.62,46.62,0,0,0-3.26,5.47c-.52,1-1,2-1.45,3a12.94,12.94,0,0,0-.92,3.09c0,.07,0,.15,0,.23s0,.21,0,.31a8.92,8.92,0,0,0,0,2.91c0,.19,0,.37,0,.57,0,0,0,0,0,.06-3.6,1.15-7.22,2.26-10.86,3.29a32.26,32.26,0,0,0,5.24-7,11.51,11.51,0,0,0,1.79-6.73,4.44,4.44,0,0,0-.13-.69c0-.15,0-.3-.05-.44-.19-1-.66-2-1.87-2.13l-.09,0a3.14,3.14,0,0,0-1.34.06c-2.84.39-5.77,4.33-6.79,5.82a14.75,14.75,0,0,0-1.8,3.65c0,.13-.09.27-.14.4s-.13.39-.18.59a51.74,51.74,0,0,0-1.27,8,.38.38,0,0,0,.1.22v0c-4.06,1-8.13,1.89-12.22,2.57.46-.37.92-.74,1.4-1.18,1.8-1.66,3.81-3.11,5.62-4.75a16.69,16.69,0,0,0,2.47-2.75,4.47,4.47,0,0,0,1-1.9,5.63,5.63,0,0,0,.25-.81,4.72,4.72,0,0,0-.14-3.17,3.4,3.4,0,0,0-1.29-1.71l-.15-.08a3.08,3.08,0,0,0-.47-.25,5,5,0,0,0-4.57.75l-.09.06A11,11,0,0,0,197,294.6c-4.46,3.77-7.71,9.46-10.68,14.06a.42.42,0,0,0,0,.29l-.14.22c0,.06,0,.2.06.36a.6.6,0,0,0,0,.18c-.05.11.1.35.26.44l-12.48.28a49.09,49.09,0,0,0,8.54-6.17c1.45-1.32,3.5-3.11,4.15-5a3.45,3.45,0,0,0,.35-2s0-.06,0-.1,0-.13,0-.19a3,3,0,0,0-.58-1.56,8.52,8.52,0,0,0-3.46-2.7,4.08,4.08,0,0,0-1.05-.45,2.87,2.87,0,0,0-2.49.32,12.11,12.11,0,0,0-3.84,2.94,25.12,25.12,0,0,0-3.39,4.28l-.07.11a69.43,69.43,0,0,0-4.69,9.58.28.28,0,0,0,0,.16l-.14.32s0,.07,0,.09c-1.63-.18-3.28-.39-4.91-.64l-.46-.11-.63-.16-.16,0-.73-.06-.44,0c-2.89-.51-5.74-1.16-8.57-1.88a29.51,29.51,0,0,0,4.84-1.78,22.93,22.93,0,0,0,4.05-2.44,22.12,22.12,0,0,0,4.36-4.41c.19-.24.37-.49.55-.74s.21-.27.31-.42a21.08,21.08,0,0,0,2.19-4c.28-.69.49-1.27.67-1.82.05-.17.11-.34.15-.5s.08-.31.11-.46a8.09,8.09,0,0,0,.18-1.13,7.71,7.71,0,0,0-.34-2.9,2.82,2.82,0,0,0-1.75-2.17,1.94,1.94,0,0,0-.2,0,2.49,2.49,0,0,0-1.5,0,4.65,4.65,0,0,0-1.25.62l-.14.11-.18.11a42.26,42.26,0,0,0-5.84,5.47q-7.3,6.94-14.2,14.17s0,.05,0,.07c-3-.94-6-1.95-8.89-3a14,14,0,0,0,3.94-2.18,24.52,24.52,0,0,0,5.56-4.57,14.07,14.07,0,0,0,2.66-3.57c.38-.52.78-1,1.19-1.52l.08-.1c.47-.53.94-1,1.36-1.59l.34-.39a3.75,3.75,0,0,0,.39-.71,2.32,2.32,0,0,0,.16-.42,1.82,1.82,0,0,0,.15-1.07,1.53,1.53,0,0,0-.46-1.11,3.45,3.45,0,0,0-2.2-.77,14,14,0,0,0-7.16,1.23l-.19.11-.13.06c-5.9,2.74-8,9.53-10,14.39a.27.27,0,0,0,0,.15l-.13.33s0,0,0,.05c-7.15-2.82-14-5.88-20.49-8.79a1,1,0,0,0-.59-.06,1.65,1.65,0,0,0-1.08.34,2,2,0,0,0-.73.54l-.1.07a2.07,2.07,0,0,0-.3.18,1,1,0,0,0-.63.91l0,.51.45.2c6.87,3.09,14.06,6.31,21.56,9.24-2.2,5.35-5.25,11.37-3.28,16.69,0,.11.11.22.16.34s.13.38.2.56c.19.92.55,1.51,1.12,1.68a2.74,2.74,0,0,1-.38-.38,2.61,2.61,0,0,0,.46.38h-.08a2.37,2.37,0,0,0,.44.36,2.86,2.86,0,0,0,.82.27l.13,0h.07a2.67,2.67,0,0,0,1.1,0,3.32,3.32,0,0,0,2.45-1.71,5,5,0,0,0,.68-1.24c.09-.23.14-.45.21-.68a5.71,5.71,0,0,0,.62-2l-.08.29c0-.13,0-.25.08-.38h0v.1l0-.11c2.9-2.61,3-6.73.29-12.32,3.19,1.16,6.43,2.25,9.73,3.24a27.21,27.21,0,0,0,.76,8.28q1.16,4.48,2.47,8.91a7.69,7.69,0,0,0,2,3.85c.05.07.09.14.15.21l.18.17.06.08a3.82,3.82,0,0,0,3,1.11l.2,0h.11c1.28-.06,1.44-.34,1.7-.92a5.39,5.39,0,0,0,.43-.76c.34-.42.74-.93,1.07-1.36h0c.21-.21.43-.42.61-.64a5.11,5.11,0,0,0,.75-1.16,3.16,3.16,0,0,0,.3-.52c.5-1.31-.32-3.12-.85-4.42-.11-.32-.21-.64-.31-1-.18-.61-.38-1.2-.58-1.81a26,26,0,0,0-2.11-5.43,16.24,16.24,0,0,0-1.74-2.41,117.86,117.86,0,0,0,15.22,2.59,28.78,28.78,0,0,0-.08,5.39c0,.36.07.72.12,1.07,0,.18.06.35.09.53.06.36.14.72.23,1.09s.13.53.21.79c0,.1.06.2.09.3a7.23,7.23,0,0,0,1.85,4.33,9.66,9.66,0,0,0,4.26,5.08c.19.17.38.34.58.5,1.18,1,2.45,1.75,3.58,1.6a2,2,0,0,0,.67,0l.11,0a1.79,1.79,0,0,0,.24,0c.75-.21.77,0,1.14-.93a2.78,2.78,0,0,0,.24-.49,6.18,6.18,0,0,0,.09-2.58,25.74,25.74,0,0,0-.63-3.75c0-.21-.1-.41-.15-.62l0-.14-.06-.23V325c-.46-2-1-4-1.6-6a26.59,26.59,0,0,0-1.87-5.28h1.2c3.27,0,6.64-.22,10.08-.56.16,4.68-.53,9.64.49,14.15a11.62,11.62,0,0,0,3.46,6.33l.27.28.14.14.46.41h0a8,8,0,0,0,2,1.32l-.18-.17.06,0a5.05,5.05,0,0,0,1.08.41l-.33-.05a4.45,4.45,0,0,1-.63-.21c1.15,1,2.09,1.08,2.81.31l.24,0a2.76,2.76,0,0,0,2.32-2.27,3,3,0,0,0,.09-.7c0-.59,0-1.2-.08-1.83.53-1.09.19-2.93-1-5.49-.23-.87-.49-1.7-.77-2.46h0c0-.09,0-.17-.08-.26-.09-.25-.21-.49-.31-.74a17.68,17.68,0,0,0-2.91-5.14,43.81,43.81,0,0,0-3.77-4.37l.36,0a130.5,130.5,0,0,0,16.64-3.16c1.35,4.81,2,10.19,4.78,14.39a12.06,12.06,0,0,0,3.85,4,5.65,5.65,0,0,0,2.12,1,3.76,3.76,0,0,0,1.7.15,3.15,3.15,0,0,0,.34-.09H220a3,3,0,0,0,2.23-1.47,2.89,2.89,0,0,0,.47-1.18c.51-1.65-.14-3.87-.91-5.7.06-1.8-1.32-3.84-3.29-5.81a30.55,30.55,0,0,0-7.26-6.33l1.63-.45q2.3-.64,4.59-1.33c2.53-.74,5.07-1.52,7.61-2.31.35,3.78.84,7.62,2.4,11,.12.28.26.55.4.82l.09.18a13.76,13.76,0,0,0,1.26,2l.07.11c.11.14.23.28.36.43s.35.38.53.56l.35.35.39.36c2.19,3.56,3.92,4.49,5.2,2.83a3.29,3.29,0,0,0,.87,0,1.73,1.73,0,0,0,.2-.07,1.51,1.51,0,0,0,1.3-.69.86.86,0,0,0,.42-.77,1.7,1.7,0,0,0-.1-1c-.19-.57-.36-1.16-.54-1.75q-.08-.32-.18-.64a72,72,0,0,0-3.46-10.57,9.53,9.53,0,0,0-3.92-4.86l3.68-1.17,2.23-.72a42.39,42.39,0,0,0,15.29,1.32c.5-.06,1.26-.16,2.14-.31s1.56-.25,2.33-.41l.22,0a11.9,11.9,0,0,0,3-.76l.34-.11a6.92,6.92,0,0,0,2.22-.85l.2-.09a3.15,3.15,0,0,0,.45-.38,1.6,1.6,0,0,0,.73-.93,3,3,0,0,0,.05-1.08A16.52,16.52,0,0,0,263.06,294.34Zm-105-1.4.34-.47c1.35-1.3,2.68-2.62,4-3.91l.47-.29q0,1-.08,2a48.5,48.5,0,0,1-1.64,4.82,11.54,11.54,0,0,1,.34,2.12,16.85,16.85,0,0,1-.94,2.16l-10.82,6.74-1.07.25s-.07.06-.1.1c-1.07-.29-2.13-.58-3.19-.9Q151.58,299.12,158.05,292.94Zm-20.78-2.2c.21-.17.41-.36.63-.52.07-.14.14-.27.21-.4a12.93,12.93,0,0,1,5.88-3.49l2.67.82a3.27,3.27,0,0,1,.46,1.94c0,.18-.09.38-.13.57a4.55,4.55,0,0,1-.4.32c-1.11,1.16-2.19,2.35-3.28,3.52-.7.62-1.41,1.23-2.17,1.8a16.52,16.52,0,0,1-1.77,2c-1,.72-2,1.42-3,2.07a28.63,28.63,0,0,1-3.92,1.73l-.63-.25C133.18,297.5,134.77,293.7,137.28,290.74Zm-5.6,24v1.43a7.59,7.59,0,0,1-2,.94L126.41,314a20,20,0,0,1,1.08-3.29q1.42-3.31,2.69-6.65l1.22.45Q131.54,309.61,131.67,314.7Zm21.88,2.73.59,1.58c0,.18.09.35.13.53q-.24,1.94-.47,3.89l-.8,5-2.1-.29c-.14-.09-.27-.16-.41-.27a6.33,6.33,0,0,1-1.91-.59l-.09-.16c-.17-.52-.34-1-.5-1.57l-.82-2.71c-.28-.92-.56-1.84-.82-2.77A39.61,39.61,0,0,1,144.89,309q2,.58,4.07,1.1C150.28,312.07,152.13,314.85,153.55,317.43Zm17.92-12.2a15.7,15.7,0,0,1,5.42-6.92c.34-.34.68-.71,1-1.07l1.16-.36a12.91,12.91,0,0,1,2.7,2.62l-4.57,7.3a50,50,0,0,1-6.28,3.61l-1.72-.15C169.94,308.57,170.68,306.89,171.48,305.22Zm5.73,18.26a26.59,26.59,0,0,1,1.36,5.51c0,.25,0,.5,0,.75l-5.43-5.66-.2-.28-.13-.06-5-5.25q0-1.1.05-2.22t.29-2.43a.28.28,0,0,0,0-.16l0-.28c2,.17,4.06.3,6.12.36.27.52.52,1,.77,1.56a33,33,0,0,1,1.16,3.38C176.55,320.31,176.85,321.95,177.21,323.49Zm31.92-22.12c.17-.5.34-1,.54-1.49a11.29,11.29,0,0,1,.23-1.35l.31-.5q5.08-.13,6.13,1l-3.73,4.64-1.75,1.9c-.8.22-1.6.41-2.4.62C208.65,304.58,208.82,303,209.13,301.37Zm-15.34-.17c.27-.4.58-.78.88-1.15l4.49-4.32.56-.41a9.93,9.93,0,0,1,.08,3.79l0,0-.12.28a8.71,8.71,0,0,1,.31,1.15q-.32,1.36-.78,3l-.31.33c-.63.45-1.26.91-1.87,1.41a44.13,44.13,0,0,1-5.74,4.32c-1.12.15-2.23.33-3.35.45h-.32A105.48,105.48,0,0,1,193.79,301.2Zm-4.85,11.92.11.11,7.34,16.19a8.25,8.25,0,0,1-2.19.78l-.36.43-4.53-2.13c-.2-1-.32-1.94-.39-2.58q.09-4.17.13-8.34a34,34,0,0,0-.21-4.18.2.2,0,0,0-.07-.12c0-.06,0-.12,0-.19s-.07-.05-.1-.08l.15,0ZM220.3,321a7.39,7.39,0,0,1-1.52,2.27c0,.15,0,.26,0,.4-.41-.17-.86-.38-1.35-.61a6.2,6.2,0,0,1-4.29-.5c-.17-.34-.33-.68-.48-1a36,36,0,0,1-1.38-4.56c-.66-2.64-1.33-5.26-2.12-7.85l.57-.15a34,34,0,0,1,5.29,3.9ZM233,298.7l-.17.05c.69-.71,1.38-1.43,2-2.19C234.27,297.3,233.64,298,233,298.7Zm-3.69-8.09a33.08,33.08,0,0,1,5.81-1.49q.59,1.35,1.2,3.23c-.2.34-.4.69-.62,1l-5.8,6.33-3.58,1.17A19.84,19.84,0,0,1,229.31,290.62Zm7.84,29.25-.27.07-.08,0-2.3-1.55c-.4-.32-.81-.66-1.28-1.07l-.45-.1-.17-.11a10.3,10.3,0,0,1-1.73-.54,7.34,7.34,0,0,1-1.25-.74,3.54,3.54,0,0,1-.36-.37,19.41,19.41,0,0,1-.84-2.2l-.55-2.12c0-.23-.09-.46-.13-.69-.36-1.94-.52-3.92-.7-5.89a.23.23,0,0,0-.07-.11c0-.06,0-.13,0-.2s-.1-.14-.24-.21h0l1.62-.52ZM257.84,298a11.21,11.21,0,0,1-3.37,2.31,36.65,36.65,0,0,1-7.5.45,40.69,40.69,0,0,1-8.2-1.3,1.63,1.63,0,0,0,.18-.2,1.11,1.11,0,0,0,.3-.74h0L262,295.79l.1.23C261.58,296.6,260.16,297.27,257.84,298Z"/></svg>