<svg xmlns="http://www.w3.org/2000/svg" viewBox="0 0 283.46 90.22"><defs><style>.a{fill:#00847f;}.b{fill:#727372;}.c{fill:#66b5b2;}</style></defs><title>echallens</title><path class="a" d="M76.64.75C78.95-.06,82.1,0,85.16,0,88,.07,90,1.79,90,4.73V5.95c0,1.91-.62,3.22-2.08,3.75,1.5.56,2.08,2,2.08,4v1c0,3.09-1.82,4.79-5,4.79-3,0-5.87.08-8.17-.73l0-3.19h6.23c1.88,0,2.63-.08,2.63-1.55v-.56c0-1.41-.86-1.62-2.47-1.69l-4.79-.18V8l4.79-.26c1.8-.08,2.52-.31,2.52-1.61V5.52c0-1.43-1.16-1.6-2.52-1.6H76.64Z"/><path class="a" d="M31,32.17c0-6.72,4.54-8.42,8.48-8.31,0,0,16.1.6,18.46.92v5.47H40.73c-3,0-3,1.67-3,3.23v8.39l17.74.6v5.47l-17.74.56v8.39c0,3.06,1.9,3,3.58,3H58V65.3c-2.08.28-17.88,1-17.88,1-3.78.19-9.06-.71-9.06-8Z"/><path class="b" d="M112.09,37.82c0-2.73,1.65-3.71,3.52-3.63l8.82.45v1.62h-8.82c-1.45,0-1.45.81-1.45,1.56V43.4l9.15.28v1.65l-9.15.28v5.58c0,1.48.92,1.45,1.73,1.45h8.54v1.59l-8.54.47c-1.84.11-3.79-.36-3.79-3.52Z"/><path class="b" d="M128.69,34.19l6,17.13,6.25-17.13h2.26l-7.51,20.42H133.6l-7.17-20.42Z"/><path class="b" d="M149.28,34.19h2.06l7.17,20.42h-2.45l-1.76-5.69h-8.15l-1.84,5.69h-2.54Zm4.3,12.67-3.29-9.51-3.38,9.51Z"/><path class="b" d="M161.38,34.19h2.12l10.88,16.57V34.19h2.07V54.62h-2.07L163.47,38V54.62h-2.09Z"/><path class="b" d="M186.2,34a55,55,0,0,1,7.09.75v1.65c-.17,0-4.32-.33-7.09-.33-3.68,0-4.46,2.68-4.46,8.31,0,6.19,1.14,8.31,4.58,8.37a18,18,0,0,0,5.36-1.28V45.86H187V44.46a16.82,16.82,0,0,1,4.85-.7c.59,0,1.23,0,1.9.08V54.62h-1.56l-.45-1.37a10.93,10.93,0,0,1-5.41,1.51c-5.78.06-6.64-4.55-6.64-10.46C179.67,38.71,180.64,34,186.2,34Z"/><path class="b" d="M197.17,37.82c0-2.73,1.65-3.71,3.52-3.63l8.82.45v1.62h-8.82c-1.45,0-1.45.81-1.45,1.56V43.4l9.15.28v1.65l-9.15.28v5.58c0,1.48.92,1.45,1.73,1.45h8.54v1.59L201,54.7c-1.84.11-3.79-.36-3.79-3.52Z"/><path class="b" d="M212.63,34.19h2.06V51.1c0,1.48.92,1.45,1.73,1.45H225v2.06h-8.54c-1.84,0-3.79-.36-3.79-3.52Z"/><path class="b" d="M228,34.19H230V54.62H228Z"/><path class="b" d="M241.23,34.05c4.83,0,7.92.92,7.92,10.49,0,9-2.9,10.18-7.92,10.18s-7.87-.89-7.87-10.18C233.36,35,236.43,34.05,241.23,34.05Zm0,18.61c4.35,0,5.86-1.17,5.86-8.12,0-8.34-2.06-8.43-5.86-8.43s-5.8.08-5.8,8.43C235.43,51.72,236.82,52.66,241.23,52.66Zm.61,2.87a4.48,4.48,0,0,0,4.69.56v2.23c-2,.75-5.69,0-6.14-2.79Z"/><path class="b" d="M252.43,34.19h2.06V45.69c0,7.17,2.23,7,5.5,7,2.76,0,5.33-.06,5.33-7V34.19h2.09V45.69c0,9-4,9.07-7.42,9.07-3.79,0-7.56.22-7.56-9.07Z"/><path class="b" d="M271.13,37.82c0-2.73,1.65-3.71,3.51-3.63l8.82.45v1.62h-8.82c-1.45,0-1.45.81-1.45,1.56V43.4l9.15.28v1.65l-9.15.28v5.58c0,1.48.92,1.45,1.73,1.45h8.54v1.59l-8.54.47c-1.84.11-3.79-.36-3.79-3.52Z"/><path class="b" d="M112.09,10.77c0-2.73,1.65-3.71,3.52-3.63l8.82.45V9.21h-8.82c-1.45,0-1.45.81-1.45,1.56v5.58l9.15.28v1.65l-9.15.28v5.58c0,1.48.92,1.45,1.73,1.45h8.54v1.59l-8.54.47c-1.84.11-3.79-.36-3.79-3.52Z"/><path class="b" d="M133.17,6.92a55,55,0,0,1,7.09.75V9.32c-.17,0-4.32-.33-7.09-.33-3.68,0-4.46,2.68-4.46,8.31,0,6.19,1.14,8.31,4.58,8.37a18,18,0,0,0,5.36-1.28V18.8H134V17.41a16.82,16.82,0,0,1,4.85-.7c.59,0,1.23,0,1.9.08V27.56h-1.56l-.45-1.37a10.92,10.92,0,0,1-5.41,1.51c-5.78.06-6.64-4.55-6.64-10.46C126.64,11.66,127.62,6.92,133.17,6.92Z"/><path class="b" d="M144.15,7.14h2.06V24c0,1.48.92,1.45,1.73,1.45h8.54v2.06h-8.54c-1.84,0-3.79-.36-3.79-3.52Z"/><path class="b" d="M159.47,7.14h2.06V27.56h-2.06Z"/><path class="b" d="M164.63,11.94c0-4,2.4-5,5.52-5,1.48,0,5.92.53,7,.67V9.32c-1.79-.11-7-.28-7-.28-2-.08-3.46.11-3.46,2.9v1.84c0,2.54,1.17,2.73,2.85,2.73h4c3.71,0,4.35,2.51,4.35,4.8v1.9c0,4-2.87,4.58-5.64,4.58-1.37,0-5.69-.47-7-.7V25.42c1.12.11,4.38.31,7,.31,1.14,0,3.57-.06,3.57-2.51v-1.9c0-1.59-.47-2.73-2.29-2.73H169.6c-4.47,0-5-2.46-5-4.8Z"/><path class="b" d="M181,10.77c0-2.73,1.65-3.71,3.52-3.63l8.82.45V9.21H184.5c-1.45,0-1.45.81-1.45,1.56v5.58l9.15.28v1.65l-9.15.28v5.58c0,1.48.92,1.45,1.73,1.45h8.54v1.59l-8.54.47c-1.84.11-3.79-.36-3.79-3.52Z"/><path class="a" d="M111.7,65.26c0-3.25,2.2-4.07,4.1-4,0,0,7.78.29,8.92.45v2.64h-8.34c-1.45,0-1.45.81-1.45,1.56V70l8.58.29v2.64l-8.58.27v4.06c0,1.48.92,1.45,1.73,1.45h8.06v2.62c-1,.14-8.64.47-8.64.47-1.83.09-4.38-.34-4.38-3.89Z"/><path class="a" d="M133.46,61a29,29,0,0,1,7,.84v2.54s-3.74-.35-6.42-.35c-3.09,0-4.24,1-4.24,7.39,0,4.58.86,7.34,4.25,7.34,2.93,0,6.41-.22,6.41-.22v2.54a29.08,29.08,0,0,1-7,.71c-5.16,0-6.9-4.13-6.9-10.43C126.56,64.87,127.9,61,133.46,61Z"/><path class="a" d="M143,61.24h3.24v9h8v-9h3.24V81.66H154.2V73.31h-8v8.36H143Z"/><path class="a" d="M166.94,61.24h3.58l6.83,20.42H173.8l-1.56-4.95H165l-1.61,4.95h-3.59Zm4.45,12.52-2.66-8.1-2.79,8.1Z"/><path class="a" d="M179.3,61.24h3.24V77.17c0,1.48.92,1.45,1.73,1.45h7.56v3h-8.44c-2.09,0-4.09-.66-4.09-3.81Z"/><path class="a" d="M194.32,61.24h3.24V77.17c0,1.48.92,1.45,1.73,1.45h7.56v3h-8.44c-2.09,0-4.09-.66-4.09-3.81Z"/><path class="a" d="M209.31,65.26c0-3.25,2.2-4.07,4.1-4,0,0,7.78.29,8.92.45v2.64H214c-1.45,0-1.45.81-1.45,1.56V70l8.57.29v2.64l-8.57.27v4.06c0,1.48.92,1.45,1.73,1.45h8.06v2.62c-1,.14-8.64.47-8.64.47-1.83.09-4.38-.34-4.38-3.89Z"/><path class="a" d="M224.9,61.24h3.29l9.11,14.43V61.24h3.24V81.66h-3.24l-9.14-14.33V81.66H224.9Z"/><path class="a" d="M243.35,66.24c0-4,2.4-5.13,5.52-5.16a39,39,0,0,1,7.56.76v2.56c-1.79-.14-6.23-.28-6.88-.28-1.8-.05-3,.09-3,2.32v1.3c0,2,.82,2.25,2.44,2.25h3.49c3.9,0,4.65,2.92,4.65,5.19v1.56c0,4.39-2.88,5.16-5.64,5.16A33.71,33.71,0,0,1,244,81.1V78.54c1.12.11,4.47.31,7.06.31,1.16,0,2.9-.14,2.9-2V75.42c0-1.32-.39-2.21-2-2.21h-3.42c-4.76,0-5.16-3.21-5.16-5.19Z"/><path class="c" d="M72.36,4.19A20.64,20.64,0,0,1,72.78,0H0V90.22H0l8.08-8.08v-74H72.73A20.58,20.58,0,0,1,72.36,4.19Z"/><path class="a" d="M83.58,23.53c-.5,0-1,0-1.48-.07V82.14h-74L0,90.22H90.18V22.43A20.44,20.44,0,0,1,83.58,23.53Z"/></svg>