<svg xmlns="http://www.w3.org/2000/svg" xmlns:xlink="http://www.w3.org/1999/xlink" viewBox="0 0 217.35 217.33"><defs><style>.cls-1,.cls-13{fill:none;}.cls-2{clip-path:url(#clip-path);}.cls-3{fill:#01313e;}.cls-4{font-size:59.58px;}.cls-4,.cls-7{fill:#fff;font-family:LubalinGraphITCbyBT-Book, LubalinGraphITCbyBT Book;}.cls-5{letter-spacing:0.1em;}.cls-6{letter-spacing:0.1em;}.cls-7{font-size:22px;}.cls-8{letter-spacing:0.07em;}.cls-9{letter-spacing:0.07em;}.cls-10{letter-spacing:0.07em;}.cls-11{letter-spacing:0.07em;}.cls-12{letter-spacing:0.07em;}.cls-13{stroke:#fff;stroke-miterlimit:10;stroke-width:0.5px;}</style><clipPath id="clip-path" transform="translate(-188.96 -312.28)"><rect class="cls-1" width="595.28" height="841.89"/></clipPath></defs><title>IQRI_Logo</title><g id="Calque_2" data-name="Calque 2"><g id="Calque_1-2" data-name="Calque 1"><g class="cls-2"><rect class="cls-3" x="0.01" width="217.33" height="217.33"/><text class="cls-4" transform="translate(27.84 75.28)"><tspan class="cls-5">I</tspan><tspan class="cls-6" x="20.14" y="0">Q</tspan><tspan class="cls-5" x="67.15" y="0">R</tspan><tspan x="105.1" y="0">I</tspan></text><text class="cls-7" transform="translate(28.84 130.78)"><tspan class="cls-8">I</tspan><tspan class="cls-9" x="6.78" y="0">ns</tspan><tspan class="cls-8" x="30.78" y="0">t</tspan><tspan class="cls-9" x="39.58" y="0">i</tspan><tspan class="cls-8" x="46.27" y="0">t</tspan><tspan class="cls-10" x="55.07" y="0">u</tspan><tspan class="cls-8" x="68.73" y="0">t po</tspan><tspan class="cls-9" x="111.34" y="0">u</tspan><tspan x="125" y="0">r</tspan></text><text class="cls-7" transform="translate(28.84 151.79)"><tspan class="cls-9">l</tspan><tspan class="cls-11" x="6.73" y="0">e</tspan><tspan class="cls-9" x="19.27" y="0">s</tspan><tspan class="cls-12" x="29.52" y="0"> </tspan><tspan class="cls-9" x="35.71" y="0">Qu</tspan><tspan class="cls-8" x="66.06" y="0">e</tspan><tspan class="cls-9" x="78.6" y="0">s</tspan><tspan class="cls-8" x="88.86" y="0">t</tspan><tspan class="cls-9" x="97.66" y="0">i</tspan><tspan class="cls-11" x="104.34" y="0">o</tspan><tspan class="cls-9" x="117.94" y="0">n</tspan><tspan x="131.69" y="0">s</tspan></text><text class="cls-7" transform="translate(28.84 172.8)"><tspan class="cls-8">Re</tspan><tspan class="cls-9" x="25.89" y="0">l</tspan><tspan class="cls-8" x="32.63" y="0">at</tspan><tspan class="cls-9" x="53.55" y="0">iv</tspan><tspan class="cls-11" x="72.36" y="0">e</tspan><tspan x="84.9" y="0">s</tspan></text><text class="cls-7" transform="translate(28.84 193.81)"><tspan class="cls-8">à </tspan><tspan class="cls-9" x="18.3" y="0">l’</tspan><tspan class="cls-8" x="31.13" y="0">I</tspan><tspan class="cls-9" x="37.91" y="0">sl</tspan><tspan class="cls-8" x="54.89" y="0">a</tspan><tspan x="67.01" y="0">m</tspan></text><line class="cls-13" y1="102.08" x2="217.35" y2="102.08"/></g></g></g></svg>