<svg xmlns="http://www.w3.org/2000/svg" xmlns:xlink="http://www.w3.org/1999/xlink" viewBox="0 0 341.85 347.75"><defs><style>.cls-1,.cls-6{fill:none;}.cls-2{clip-path:url(#clip-path);}.cls-3{fill:#a7c342;}.cls-4{fill:#765a49;}.cls-5{fill:#f6f6db;}.cls-6{stroke:#f6f6db;stroke-miterlimit:10;stroke-width:0.63px;}</style><clipPath id="clip-path" transform="translate(-0.52 -0.33)"><rect class="cls-1" width="343.01" height="349.3"/></clipPath></defs><title>La_Portion_Magique_Logo</title><g id="Calque_2" data-name="Calque 2"><g id="Calque_1-2" data-name="Calque 1"><g class="cls-2"><path class="cls-3" d="M342.36,281.6c-.28-34.35-.56-117.1-.84-151.44-.16-19.94,1.49-43.11-6.31-62.23-.1-.26-.09-.34-.38-1.16s-3.16,3-8.74,3.5c-3,.3-195.74-.29-296.3-1.6-14-.19-20.54-8.44-21.83-5.36C6.55,65.7,5.87,74.83,5.62,77.47c-1.86,19.27-2.87,38.81-1.45,56.46,3.39,42.17,4.27,126.65,7.66,168.82.52,6.48,1.12,13.17,5.16,18.95,9.38,13.45,32.46,19.91,53.06,21.77,64.46,5.83,130.17,5.52,195,2.45,21.26-1,44.33-3.21,59.33-14.21,17.2-12.6,18.13-32.36,18-50.11" transform="translate(-0.52 -0.33)"/><path class="cls-4" d="M335.58,27c-.46-5.32-1.73-11-5.41-15-3.39-3.72-8.3-5.52-13-6.77C305.43,2.13,293.2,2,281.19,1.36,255,0,228.69.22,202.43.7,150.12,1.65,97.81,2.34,45.5,3.08c-6.59.1-13.18.1-19.77.26-5.26.12-10.87,0-15.88,1.91C.71,8.66,0,18.15.73,26.71c.75,8.83,2.28,17.73,9.1,24,7.78,7.13,19.69,7.71,29.66,7.87,25.16.38,50.41-.6,75.59-.68q39.42-.14,78.85,0c26,.1,52,0,78,.26,12.83.14,25.59.36,38.41.19,5.38-.08,12.52,1.61,17.52-.88,4.12-2.06,5.68-7.66,6.87-11.77,1.74-6,1.44-12.51.89-18.72" transform="translate(-0.52 -0.33)"/><path class="cls-5" d="M165.66,131a58.71,58.71,0,0,0-6.23.7c-.72.13-1.79,0-1.89-.76-.16-1.13-5.14-22.07-5.34-23.38s3.94-2.17,4.09-1c.12,1,2.63,15.73,3.55,21.78,2-.1,5.27,0,6.14,0,1.11,0,.8,2.63-.32,2.62" transform="translate(-0.52 -0.33)"/><path class="cls-5" d="M177.31,123.13a71.37,71.37,0,0,0-2,7.2c-.05,1.14-3.21.78-3.2-.36s6.22-22.06,6.3-23.38c.06-1,3-1.2,4.24-.62.67.25,1.2.63,1.15,1.13-.14,1.32,2.46,23,2.28,24.1s-2.81,1-2.67-.11a72.13,72.13,0,0,0-.77-7.5c-2.11-.24-3.17-.33-5.29-.46m4.94-1.83c-.5-3.32-.78-5-1.4-8.3-.92,2.44-1.92,5.25-2.8,7.93,1.68.12,2.52.19,4.2.37" transform="translate(-0.52 -0.33)"/><path class="cls-5" d="M51.21,180.74c.43,11,.87,21.55.87,22.51,0,2.18-5.1,1.65-5.1-.53s-3.19-44.31-3.19-46.93c0-1.4,1.81-2.18,3.54-2.27,0,0,18.91-.17,18.91,14.13,0,11.17-9,13-15,13.09M51,175.5c4,.35,9.93.62,9.93-7.5,0-7.5-7.17-8.2-10.62-8.11Z" transform="translate(-0.52 -0.33)"/><path class="cls-5" d="M109.18,181.18c0,14.48-7.68,22.94-17.18,22.94s-17.19-8.46-17.19-22.94S82.5,151.86,92,151.86s17.18,14.92,17.18,29.32m-7,1c0-16.49-5.7-24.86-10.62-24.86S81.72,172,81.72,181.79s5.53,15.7,10.45,15.7,10-5.5,10-15.27" transform="translate(-0.52 -0.33)"/><path class="cls-5" d="M123.08,154.31s23.32-.18,23.32,13.78a11,11,0,0,1-6.65,10.64c4.15,3.32,7,9.6,7,15.44,0,5.41,2.94,6.72,4.14,6.72s1.3,1.4,1.3,1.4a18.94,18.94,0,0,0-.26,2.79c0,1.39-2.59,1.22-2.59,1.22s-7.43-.61-7.43-11.43c0-8.81-7.6-13.43-11.31-13.43-1.47,0-2.77,0-3.72.08.44,10.47.87,20.33.87,21.29,0,2.18-5,1.66-5-.52s-3.11-43.19-3.11-45.72c0-1.39,1.81-2.18,3.45-2.18Zm2.94,6.28c.17,3.75.43,9.33.61,15.18,4.49.35,11.91.69,11.91-7.33,0-7.59-8.72-8-12.52-7.85" transform="translate(-0.52 -0.33)"/><path class="cls-5" d="M181.59,159.28c-.86,0-5.33.09-9.05.26.44,10.9,1.73,41.44,1.73,43.18,0,2.1-5,1.66-5-.52,0-1.83-2.24-32-2.93-42.4-3.8.18-8.45.35-9.4.26-2.5-.08-2.76-5.93-.34-5.84s23.62,0,25.69.09,1.47,5.06-.69,5" transform="translate(-0.52 -0.33)"/><path class="cls-5" d="M208.64,203.86c-2.16-.18-9.67.43-12.18.17-2.59-.09-2.67-6-.25-5.84.86.08,2.59.17,4.57.26l-2.85-40.13h-3c-2.59-.09-2.59-6.11-.26-5.85s11.14.44,13.39.61c2.07.09,1.29,5.15-.95,5.06-.61-.08-1.64,0-2.77,0,.26,9,1.3,31.67,1.56,40.48,1.64.09,3,.18,3.63.26,2.15.09,1.38,5.15-.87,5" transform="translate(-0.52 -0.33)"/><path class="cls-5" d="M255,181.18c0,14.48-7.69,22.94-17.19,22.94s-17.19-8.46-17.19-22.94,7.69-29.32,17.19-29.32S255,166.78,255,181.18m-7,1c0-16.49-5.7-24.86-10.62-24.86s-9.85,14.65-9.85,24.43,5.53,15.7,10.45,15.7,10-5.5,10-15.27" transform="translate(-0.52 -0.33)"/><path class="cls-5" d="M299.32,155.61c0,2.1-1.82,44.58-1.82,46.94,0,2.18-4.92,2-6,.17l-.17-.17c-.78-1.31-12.27-21.29-19.44-33.85.52,13.43,1.3,32.37,1.3,33.76,0,2.18-5,1.66-5-.52S265,158.76,265,156.22c0-2.35,5.18-3,6.13-1.22,1.21,1.75,15.46,28.09,20.64,37.52,1-12.92,2.6-34.81,2.6-36.38,0-2.18,4.92-2.62,4.92-.53" transform="translate(-0.52 -0.33)"/><path class="cls-5" d="M74.77,268.85c-.25-1.76-1.5-23.71-2.16-35.94C69,240.7,64.15,251,63.48,252.18c0,0-.49,1-1.16,1s-1.24-1-1.24-1C60.42,251,55.61,240.78,52,233c-.75,12.24-1.91,34-2.16,35.78-.25,2.43-6.39,2.93-6,.67s3.81-43.07,4.06-45.08,4.31-1.67,4.64.09c1,1.59,6.56,12.9,9.79,19.35,3.15-6.2,8.88-17.34,9.87-18.93-.33-2.1,4.4-2.52,4.65-.51s3.81,42.81,4.06,45.08-5.81,1.84-6-.59" transform="translate(-0.52 -0.33)"/><path class="cls-5" d="M100.08,256.12c-1.66,7-2.9,12.73-2.9,13.4,0,2.1-5.81,1.59-5.81-.5s8.79-40.89,8.79-43.32c0-1.84,4.15-2.59,6.06-1.75,1,.33,1.83.92,1.83,1.84,0,2.43,8.7,41.22,8.7,43.31s-4.81,2.52-4.81.5c0-.67-1.24-6.36-2.9-13.48Zm8-4.11-3.49-14.91c-1.08,4.61-2.32,9.88-3.48,14.91Z" transform="translate(-0.52 -0.33)"/><path class="cls-5" d="M144.27,254.78a1.51,1.51,0,0,1-1.82-1.68c0-1.76.66-4.44,4.31-4.44h7.3s1.08-.17,1.08,1.34v.75a2.65,2.65,0,0,1,.16.76c0,13.07-5.47,19.44-13.44,19.44-9,0-16.25-11-16.25-24.64s7.3-24.54,16.25-24.54c5.89,0,11,5.61,11,8.63,0,1.59-2.49,3.93-3.82,3.93s-2.4-6.87-7.3-6.87c-5.64,0-9.37,6.71-9.37,17.93,0,11.82,3.23,19,9.7,19,6,0,7.22-5.78,7.55-10.3Z" transform="translate(-0.52 -0.33)"/><path class="cls-5" d="M179.9,270.69c-2.07-.16-9.29.42-11.69.17-2.49-.08-2.57-5.78-.25-5.61.83.08,2.49.17,4.4.25L169.62,227h-2.5c-2.49-.08-2.49-5.86-.25-5.61s9.73.42,11.89.58c2,.09,1.24,4.95-.92,4.86a17.48,17.48,0,0,0-2.08,0c.24,8.63,1.24,30.42,1.49,38.88,1.57.08,2.9.17,3.48.25,2.08.08,1.33,4.94-.83,4.77" transform="translate(-0.52 -0.33)"/><path class="cls-5" d="M216.12,268.84c-.83,0-.75-.67-.75-.67l-.33-5.62c0-2.09.91-2.76.91-2.76l.09-.17c1.82-2.51,1.52-4.51,1.52-9.2,0-15.84-5.56-23.88-10.2-23.88s-9.54,14.08-9.54,23.46A19.21,19.21,0,0,0,199,257a10.35,10.35,0,0,1,6.47-2.76c7,0,7.63,4.61,7.63,11.81,0,6.45,2.57,7,2.57,7s.83-.09.83,1.17c0,.92-2,3.77-6.06-.34-2.81-2.85.42-13.48-3.64-13.48a4.35,4.35,0,0,0-4.15,2.42,4.94,4.94,0,0,0,2.73,1.66l.08.08a1.47,1.47,0,0,1,1.16,1.6v4.35s.08.5-1.33.5H205c-8.21-1.08-13.84-8.69-13.84-21.51,0-13.82,7.47-28.15,16.59-28.15s16.51,14.33,16.51,28.15c0,9.81-2.44,16.08-7.83,19.34Z" transform="translate(-0.52 -0.33)"/><path class="cls-5" d="M256.71,226.29c0-2.6,1-3.27,2.82-3.27,2.48,0,2.4,2.6,2.4,2.6s.67,29.41.67,32-.75,13.24-13.94,13.32c-13.19-.08-13.93-10.72-13.93-13.32l.16-32s-.58-2.6,2.91-2.6c1.65,0,2.4,1.09,2.4,3.77l1,31.25s0,5.95,7.88,5.95c6.55,0,7.21-5.78,7.21-5.78Z" transform="translate(-0.52 -0.33)"/><path class="cls-5" d="M298.87,270.69c-1.91-.16-15.26.25-19.32.25-1.41.17-3.24-.5-3.24-1.84,0-2.09-3-41.47-3-43.9,0-1.25,1.4-1.93,2.9-2.09a1.13,1.13,0,0,1,.58-.09c2.07.09,17.75-.42,20.15-.25s2.49,6.29.25,6.12c-1.74-.09-12.11-.42-17.75-.59.17,3.6.33,9.22.58,15.25,3.4.08,9,.33,10.54.42,2.07.17,1.32,4.94-.75,4.77-1.66-.08-6.39.17-9.54.25l.66,15.92c5.4.34,17.09.93,18.75,1,2,.17,1.25,4.94-.83,4.77" transform="translate(-0.52 -0.33)"/><path class="cls-4" d="M89.14,130.45c-15.06.12-30.41,1.19-45.5.36a3.78,3.78,0,0,1-2.2-.6,2.53,2.53,0,0,1,.14-2.91c5,0,10-.49,15-.35l78.4-.3a11.17,11.17,0,0,1,4.27.55,3.82,3.82,0,0,1,2.53,3.24c-8,1.57-17.13.22-25.35.06-9.12-.18-18.22-.12-27.32-.05" transform="translate(-0.52 -0.33)"/><path class="cls-4" d="M293.35,126.13c-19.69.53-39.1.9-58.8.76-9.36-.07-20.83.53-30.18.53-1.22,0-2.29,2.69-.5,2.84s34.4.07,48.18.15c9.83.05,19.65.13,29.48.07,4.26,0,10.46.1,14.69-.23,2.42-.2.21-4.2-2.87-4.12" transform="translate(-0.52 -0.33)"/><path class="cls-4" d="M159.37,295.38a1.51,1.51,0,0,0-1.43-1.11L132.5,294l-86.41-.86a1.51,1.51,0,0,0-1.5,1.27l-.39,2.22a1.52,1.52,0,0,0,1.5,1.78c37.37-.2,109.88-.62,112.13-.62s1.77-1.62,1.54-2.43" transform="translate(-0.52 -0.33)"/><path class="cls-4" d="M297.16,294.55a6.5,6.5,0,0,0-3.81-.69c-16.27.44-32.8.06-49.07.5-18.34.49-36.48.4-54.83.22,0,0-2.79-.26-3.37.34s.18,1.63.73,2.25c.26.29,1,1.06,1.4,1.05,5.58,0,44.55-.17,58.61-.11,16.3.08,32.92.29,49.24-.13a1.91,1.91,0,0,0,1.14-3.41l0,0" transform="translate(-0.52 -0.33)"/><path class="cls-4" d="M175.76,292.49a6.83,6.83,0,0,0,1.86-.05c.63,0,1.36.25,1.51.87a1.37,1.37,0,0,1-.5,1.24c-.34.31-.76.53-1.1.85a2.69,2.69,0,0,0-.72,2.63c.17.58.53,1.09.7,1.67a1.37,1.37,0,0,1-.46,1.6,1.41,1.41,0,0,1-1.05,0c-1.26-.39-2.4-1.52-3.69-1.22a6.31,6.31,0,0,0-1.79,1,1.63,1.63,0,0,1-1.92.07c-.63-.61-.32-1.75-.26-2.51a3.79,3.79,0,0,0-.78-2.69c-.56-.74-1.42-1.15-2-1.85a1.28,1.28,0,0,1-.32-1.17,1.3,1.3,0,0,1,1.12-.77c.48-.06,1,0,1.43,0A3.07,3.07,0,0,0,170,291a9.65,9.65,0,0,0,.89-1.93c.42-1,1.48-2.49,2.58-1.24a3.33,3.33,0,0,1,.65,1.74c.18,1.17.29,2.62,1.66,3" transform="translate(-0.52 -0.33)"/><path class="cls-5" d="M42,32.42l-1,0a1,1,0,0,0-.85.31V45.63l2.31-.12c1.58,0,2.37.37,2.37,1.1v.15a1.91,1.91,0,0,1-1,.88,4,4,0,0,1-1.22.35c-.35,0-.81,0-1.36,0h-1.3c-1,0-1.66-.21-1.9-.62a1.51,1.51,0,0,1-.16-.76V22.28a12,12,0,0,0-.29-2.13A11.73,11.73,0,0,1,37.29,18v-.14a8.16,8.16,0,0,1,1-1.48L41.4,16a2.47,2.47,0,0,1,1.27.37,1.14,1.14,0,0,1,.64,1c0,.83-.63,1.25-1.89,1.25l-1.19,0a2.64,2.64,0,0,0-.45,0l.33,6.92c0,.56,0,1.38-.11,2.45s-.1,1.85-.1,2.34c.15,0,.35-.07.61-.14A5.66,5.66,0,0,1,41.84,30a1.22,1.22,0,0,1,.85.35,1.1,1.1,0,0,1,.38.84,1.41,1.41,0,0,1-.31.88.94.94,0,0,1-.79.39" transform="translate(-0.52 -0.33)"/><path class="cls-6" d="M42,32.42l-1,0a1,1,0,0,0-.85.31V45.63l2.31-.12c1.58,0,2.37.37,2.37,1.1v.15a1.91,1.91,0,0,1-1,.88,4,4,0,0,1-1.22.35c-.35,0-.81,0-1.36,0h-1.3c-1,0-1.66-.21-1.9-.62a1.51,1.51,0,0,1-.16-.76V22.28a12,12,0,0,0-.29-2.13A11.73,11.73,0,0,1,37.29,18v-.14a8.16,8.16,0,0,1,1-1.48L41.4,16a2.47,2.47,0,0,1,1.27.37,1.14,1.14,0,0,1,.64,1c0,.83-.63,1.25-1.89,1.25l-1.19,0a2.64,2.64,0,0,0-.45,0l.33,6.92c0,.56,0,1.38-.11,2.45s-.1,1.85-.1,2.34c.15,0,.35-.07.61-.14A5.66,5.66,0,0,1,41.84,30a1.22,1.22,0,0,1,.85.35,1.1,1.1,0,0,1,.38.84,1.41,1.41,0,0,1-.31.88A.94.94,0,0,1,42,32.42Z" transform="translate(-0.52 -0.33)"/><path class="cls-5" d="M53.27,46.59l.2-15a78.54,78.54,0,0,0-1.07-15,1.88,1.88,0,0,1,1.6-.94,5.79,5.79,0,0,1,2.81.69,6,6,0,0,1,2.06,1.85,9.48,9.48,0,0,1,1.64,5.47,11.84,11.84,0,0,1-1.32,5.58,9.33,9.33,0,0,1-3.87,3.9l.32,13.06c0,1.16-.46,1.75-1.38,1.75a.8.8,0,0,1-.75-.45,2,2,0,0,1-.24-1m1.95-15.42a9.47,9.47,0,0,0,3.16-7.11v0a6.77,6.77,0,0,0-.57-3.29c-.19-.3-.34-.54-.46-.71a3.61,3.61,0,0,0-.69-.69c-.42-.34-1.07-.82-1.93-1.45,0,1.47.08,3.69.24,6.63s.25,5.17.25,6.64" transform="translate(-0.52 -0.33)"/><path class="cls-6" d="M53.27,46.59l.2-15a78.54,78.54,0,0,0-1.07-15,1.88,1.88,0,0,1,1.6-.94,5.79,5.79,0,0,1,2.81.69,6,6,0,0,1,2.06,1.85,9.48,9.48,0,0,1,1.64,5.47,11.84,11.84,0,0,1-1.32,5.58,9.33,9.33,0,0,1-3.87,3.9l.32,13.06c0,1.16-.46,1.75-1.38,1.75a.8.8,0,0,1-.75-.45A2,2,0,0,1,53.27,46.59Zm1.95-15.42a9.47,9.47,0,0,0,3.16-7.11v0a6.77,6.77,0,0,0-.57-3.29c-.19-.3-.34-.54-.46-.71a3.61,3.61,0,0,0-.69-.69c-.42-.34-1.07-.82-1.93-1.45,0,1.47.08,3.69.24,6.63S55.22,29.7,55.22,31.17Z" transform="translate(-0.52 -0.33)"/><path class="cls-5" d="M73.89,18.25l-.73,0a.82.82,0,0,0-.59.17.93.93,0,0,0-.2.69q0,4.1.51,12.27t.51,12.26v1.62a6,6,0,0,1,.85-.06c1.15,0,1.72.49,1.72,1.47v.25l-1,.72-2.82.1c-2.39,0-3.59-.42-3.59-1.25,0-.67.42-1,1.26-1l.87.07c.4,0,.61-.33.61-1,0-2.15-.13-5.39-.39-9.69s-.38-7.54-.38-9.7l.08-4.28c0-.9,0-1.68-.1-2.34a3,3,0,0,1-1,.19c-.65,0-1-.33-1-1a1.07,1.07,0,0,1,.63-.89,4.41,4.41,0,0,1,1.56-.55A17.14,17.14,0,0,1,73.3,16a1.75,1.75,0,0,1,1.2.34,1.08,1.08,0,0,1,.37.8,1.26,1.26,0,0,1-.28.8.84.84,0,0,1-.7.34" transform="translate(-0.52 -0.33)"/><path class="cls-6" d="M73.89,18.25l-.73,0a.82.82,0,0,0-.59.17.93.93,0,0,0-.2.69q0,4.1.51,12.27t.51,12.26v1.62a6,6,0,0,1,.85-.06c1.15,0,1.72.49,1.72,1.47v.25l-1,.72-2.82.1c-2.39,0-3.59-.42-3.59-1.25,0-.67.42-1,1.26-1l.87.07c.4,0,.61-.33.61-1,0-2.15-.13-5.39-.39-9.69s-.38-7.54-.38-9.7l.08-4.28c0-.9,0-1.68-.1-2.34a3,3,0,0,1-1,.19c-.65,0-1-.33-1-1a1.07,1.07,0,0,1,.63-.89,4.41,4.41,0,0,1,1.56-.55A17.14,17.14,0,0,1,73.3,16a1.75,1.75,0,0,1,1.2.34,1.08,1.08,0,0,1,.37.8,1.26,1.26,0,0,1-.28.8A.84.84,0,0,1,73.89,18.25Z" transform="translate(-0.52 -0.33)"/><path class="cls-5" d="M86.35,27.32,86,30.25v1a61.41,61.41,0,0,0,.21,6.45c.15,1.06.29,2,.44,2.83a10.81,10.81,0,0,0,.58,2.13,9.57,9.57,0,0,0,.84,1.66,3,3,0,0,0,2.7,1.56,3.29,3.29,0,0,0,1.76-.75,3.27,3.27,0,0,1,1.6-.75,1.75,1.75,0,0,1,1.18.63,3.14,3.14,0,0,1-2.37,3,7.6,7.6,0,0,1-2.56.43A4.57,4.57,0,0,1,88,47.89a5.13,5.13,0,0,1-1.62-1.45,8.88,8.88,0,0,1-1.14-2.29,21.88,21.88,0,0,1-.77-2.76c-.16-.93-.3-2-.4-3.2-.17-2-.25-4.23-.27-6.63l0-5a21,21,0,0,1,.29-3.87A6.61,6.61,0,0,1,84,21.36a5,5,0,0,1,1.91-4.11,7.32,7.32,0,0,1,4.7-1.52,3.84,3.84,0,0,1,1.95.56,1.68,1.68,0,0,1,1,1.49.79.79,0,0,1-.34.69,2,2,0,0,1-1.17.25,1.2,1.2,0,0,1-1.12-.51v0h-.57v-.1A3.45,3.45,0,0,0,87,19.64a10.06,10.06,0,0,0-.82,4.79Z" transform="translate(-0.52 -0.33)"/><path class="cls-6" d="M86.35,27.32,86,30.25v1a61.41,61.41,0,0,0,.21,6.45c.15,1.06.29,2,.44,2.83a10.81,10.81,0,0,0,.58,2.13,9.57,9.57,0,0,0,.84,1.66,3,3,0,0,0,2.7,1.56,3.29,3.29,0,0,0,1.76-.75,3.27,3.27,0,0,1,1.6-.75,1.75,1.75,0,0,1,1.18.63,3.14,3.14,0,0,1-2.37,3,7.6,7.6,0,0,1-2.56.43A4.57,4.57,0,0,1,88,47.89a5.13,5.13,0,0,1-1.62-1.45,8.88,8.88,0,0,1-1.14-2.29,21.88,21.88,0,0,1-.77-2.76c-.16-.93-.3-2-.4-3.2-.17-2-.25-4.23-.27-6.63l0-5a21,21,0,0,1,.29-3.87A6.61,6.61,0,0,1,84,21.36a5,5,0,0,1,1.91-4.11,7.32,7.32,0,0,1,4.7-1.52,3.84,3.84,0,0,1,1.95.56,1.68,1.68,0,0,1,1,1.49.79.79,0,0,1-.34.69,2,2,0,0,1-1.17.25,1.2,1.2,0,0,1-1.12-.51v0h-.57v-.1A3.45,3.45,0,0,0,87,19.64a10.06,10.06,0,0,0-.82,4.79Z" transform="translate(-0.52 -0.33)"/><path class="cls-5" d="M108.1,32.42l-1,0a1,1,0,0,0-.85.31V45.63l2.31-.12c1.58,0,2.37.37,2.37,1.1v.15a1.91,1.91,0,0,1-1,.88,4,4,0,0,1-1.22.35c-.35,0-.8,0-1.35,0h-1.3c-1,0-1.67-.21-1.91-.62a1.51,1.51,0,0,1-.16-.76V22.28a12.77,12.77,0,0,0-.28-2.13,11.94,11.94,0,0,1-.29-2.15v-.14a8,8,0,0,1,1-1.48l3.08-.36a2.5,2.5,0,0,1,1.27.37,1.15,1.15,0,0,1,.63,1c0,.83-.62,1.25-1.88,1.25l-1.2,0a2.51,2.51,0,0,0-.44,0l.32,6.92c0,.56,0,1.38-.1,2.45s-.1,1.85-.1,2.34c.14,0,.35-.07.6-.14A5.66,5.66,0,0,1,108,30a1.22,1.22,0,0,1,.85.35,1.1,1.1,0,0,1,.38.84,1.4,1.4,0,0,1-.3.88,1,1,0,0,1-.8.39" transform="translate(-0.52 -0.33)"/><path class="cls-6" d="M108.1,32.42l-1,0a1,1,0,0,0-.85.31V45.63l2.31-.12c1.58,0,2.37.37,2.37,1.1v.15a1.91,1.91,0,0,1-1,.88,4,4,0,0,1-1.22.35c-.35,0-.8,0-1.36,0h-1.29c-1,0-1.67-.21-1.91-.62a1.51,1.51,0,0,1-.16-.76V22.28a12.77,12.77,0,0,0-.28-2.13,11.94,11.94,0,0,1-.29-2.15v-.14a8,8,0,0,1,1-1.48l3.08-.36a2.5,2.5,0,0,1,1.27.37,1.15,1.15,0,0,1,.63,1c0,.83-.62,1.25-1.88,1.25l-1.2,0a2.51,2.51,0,0,0-.44,0l.32,6.92c0,.56,0,1.38-.1,2.45s-.1,1.85-.1,2.34c.14,0,.35-.07.6-.14A5.66,5.66,0,0,1,108,30a1.22,1.22,0,0,1,.85.35,1.1,1.1,0,0,1,.38.84,1.4,1.4,0,0,1-.3.88A1,1,0,0,1,108.1,32.42Z" transform="translate(-0.52 -0.33)"/><path class="cls-5" d="M119.24,46.55,119.4,22V16.79a1,1,0,0,1,.2-.69,1.69,1.69,0,0,1,1.07-.21,4,4,0,0,1,1.74.42,4.4,4.4,0,0,1,1.49,1.12,8.72,8.72,0,0,1,1,1.64,8.86,8.86,0,0,1,.81,3.79,13.31,13.31,0,0,1-1,4.69q-.12.28-.48,1.2c-.25.62-.39,1-.43,1.09a29.24,29.24,0,0,0,1.56,8.09q.52,1.68,1.5,4.6c.65,1.94,1.06,3.18,1.22,3.69v.11c0,.94-.11,1.49-.32,1.64a1.16,1.16,0,0,1-.69.24c-.52,0-1-.38-1.5-1.13v-.14A53.14,53.14,0,0,0,123,35.41q-1.09-3.52-1.52-5.22V46.72a1.9,1.9,0,0,1-.22,1,.9.9,0,0,1-.81.35,1.14,1.14,0,0,1-.89-.34,1.25,1.25,0,0,1-.29-.83Zm2.29-28.73-.22,8.56c0,.86,0,1.5,0,1.92a12.74,12.74,0,0,0,1.4-1.61l.64-3.63a2.59,2.59,0,0,0,.07-.65,9.24,9.24,0,0,0-.41-2.44c-.38-1.31-.88-2-1.52-2.15" transform="translate(-0.52 -0.33)"/><path class="cls-6" d="M119.24,46.55,119.4,22V16.79a1,1,0,0,1,.2-.69,1.69,1.69,0,0,1,1.07-.21,4,4,0,0,1,1.74.42,4.4,4.4,0,0,1,1.49,1.12,8.72,8.72,0,0,1,1,1.64,8.86,8.86,0,0,1,.81,3.79,13.31,13.31,0,0,1-1,4.69q-.12.28-.48,1.2c-.25.62-.39,1-.43,1.09a29.24,29.24,0,0,0,1.56,8.09q.52,1.68,1.5,4.6c.65,1.94,1.06,3.18,1.22,3.69v.11c0,.94-.11,1.49-.32,1.64a1.16,1.16,0,0,1-.69.24c-.52,0-1-.38-1.5-1.13v-.14A53.14,53.14,0,0,0,123,35.41q-1.09-3.52-1.52-5.22V46.72a1.9,1.9,0,0,1-.22,1,.9.9,0,0,1-.81.35,1.14,1.14,0,0,1-.89-.34,1.25,1.25,0,0,1-.29-.83Zm2.29-28.73-.22,8.56c0,.86,0,1.5,0,1.92a12.74,12.74,0,0,0,1.4-1.61l.64-3.63a2.59,2.59,0,0,0,.07-.65,9.24,9.24,0,0,0-.41-2.44C122.67,18.66,122.17,17.94,121.53,17.82Z" transform="translate(-0.52 -0.33)"/><path class="cls-5" d="M141.1,18.25l-.73,0a.86.86,0,0,0-.6.17.93.93,0,0,0-.19.69q0,4.1.51,12.27t.5,12.26v1.62a6.18,6.18,0,0,1,.85-.06c1.15,0,1.73.49,1.73,1.47v.25l-1,.72-2.82.1c-2.39,0-3.58-.42-3.58-1.25,0-.67.42-1,1.25-1l.88.07q.6,0,.6-1c0-2.15-.13-5.39-.38-9.69s-.39-7.54-.39-9.7l.08-4.28a22.69,22.69,0,0,0-.1-2.34,2.91,2.91,0,0,1-1,.19c-.65,0-1-.33-1-1a1.07,1.07,0,0,1,.63-.89,4.27,4.27,0,0,1,1.56-.55A17.18,17.18,0,0,1,140.5,16a1.8,1.8,0,0,1,1.21.34,1.07,1.07,0,0,1,.36.8,1.25,1.25,0,0,1-.27.8.85.85,0,0,1-.7.34" transform="translate(-0.52 -0.33)"/><path class="cls-6" d="M141.1,18.25l-.73,0a.86.86,0,0,0-.6.17.93.93,0,0,0-.19.69q0,4.1.51,12.27t.5,12.26v1.62a6.18,6.18,0,0,1,.85-.06c1.15,0,1.73.49,1.73,1.47v.25l-1,.72-2.82.1c-2.39,0-3.58-.42-3.58-1.25,0-.67.41-1,1.25-1l.88.07q.6,0,.6-1c0-2.15-.13-5.39-.38-9.69s-.39-7.54-.39-9.7l.08-4.28a22.69,22.69,0,0,0-.1-2.34,2.91,2.91,0,0,1-1,.19c-.65,0-1-.33-1-1a1.07,1.07,0,0,1,.63-.89,4.27,4.27,0,0,1,1.56-.55A17.18,17.18,0,0,1,140.5,16a1.8,1.8,0,0,1,1.21.34,1.07,1.07,0,0,1,.36.8,1.25,1.25,0,0,1-.27.8A.85.85,0,0,1,141.1,18.25Z" transform="translate(-0.52 -0.33)"/><path class="cls-5" d="M155.92,32.42l-1,0a1,1,0,0,0-.85.31V45.63l2.31-.12c1.58,0,2.37.37,2.37,1.1v.15a1.91,1.91,0,0,1-1,.88,4,4,0,0,1-1.22.35c-.35,0-.8,0-1.36,0h-1.29c-1,0-1.67-.21-1.91-.62a1.51,1.51,0,0,1-.16-.76V22.28a12.77,12.77,0,0,0-.28-2.13,11.94,11.94,0,0,1-.29-2.15v-.14a7.58,7.58,0,0,1,1-1.48l3.08-.36a2.44,2.44,0,0,1,1.26.37,1.14,1.14,0,0,1,.64,1c0,.83-.63,1.25-1.88,1.25l-1.2,0a2.7,2.7,0,0,0-.45,0l.33,6.92c0,.56,0,1.38-.1,2.45s-.1,1.85-.1,2.34c.14,0,.35-.07.6-.14a5.66,5.66,0,0,1,1.33-.23,1.22,1.22,0,0,1,.85.35,1.1,1.1,0,0,1,.38.84,1.4,1.4,0,0,1-.3.88,1,1,0,0,1-.8.39" transform="translate(-0.52 -0.33)"/><path class="cls-6" d="M155.92,32.42l-1,0a1,1,0,0,0-.85.31V45.63l2.31-.12c1.58,0,2.37.37,2.37,1.1v.15a1.91,1.91,0,0,1-1,.88,4,4,0,0,1-1.22.35c-.35,0-.8,0-1.36,0h-1.29c-1,0-1.67-.21-1.91-.62a1.51,1.51,0,0,1-.16-.76V22.28a12.77,12.77,0,0,0-.28-2.13,11.94,11.94,0,0,1-.29-2.15v-.14a7.58,7.58,0,0,1,1-1.48l3.08-.36a2.44,2.44,0,0,1,1.26.37,1.14,1.14,0,0,1,.64,1c0,.83-.63,1.25-1.88,1.25l-1.2,0a2.7,2.7,0,0,0-.45,0l.33,6.92c0,.56,0,1.38-.1,2.45s-.1,1.85-.1,2.34c.14,0,.35-.07.6-.14a5.66,5.66,0,0,1,1.33-.23,1.22,1.22,0,0,1,.85.35,1.1,1.1,0,0,1,.38.84,1.4,1.4,0,0,1-.3.88A1,1,0,0,1,155.92,32.42Z" transform="translate(-0.52 -0.33)"/><path class="cls-5" d="M186.52,32.42l-1,0a1,1,0,0,0-.85.31V45.63l2.31-.12c1.58,0,2.37.37,2.37,1.1v.15a1.91,1.91,0,0,1-1,.88,4,4,0,0,1-1.22.35c-.35,0-.8,0-1.36,0h-1.29c-1,0-1.67-.21-1.91-.62a1.51,1.51,0,0,1-.16-.76V22.28a12,12,0,0,0-.29-2.13,11.73,11.73,0,0,1-.28-2.15v-.14a8.16,8.16,0,0,1,1-1.48L186,16a2.46,2.46,0,0,1,1.26.37,1.14,1.14,0,0,1,.64,1c0,.83-.63,1.25-1.88,1.25l-1.2,0a2.7,2.7,0,0,0-.45,0l.33,6.92c0,.56,0,1.38-.1,2.45s-.11,1.85-.11,2.34c.15,0,.36-.07.61-.14a5.66,5.66,0,0,1,1.33-.23,1.22,1.22,0,0,1,.85.35,1.1,1.1,0,0,1,.38.84,1.35,1.35,0,0,1-.31.88.94.94,0,0,1-.79.39" transform="translate(-0.52 -0.33)"/><path class="cls-6" d="M186.52,32.42l-1,0a1,1,0,0,0-.85.31V45.63l2.31-.12c1.58,0,2.37.37,2.37,1.1v.15a1.91,1.91,0,0,1-1,.88,4,4,0,0,1-1.22.35c-.35,0-.8,0-1.36,0h-1.29c-1,0-1.67-.21-1.91-.62a1.51,1.51,0,0,1-.16-.76V22.28a12,12,0,0,0-.29-2.13,11.73,11.73,0,0,1-.28-2.15v-.14a8.16,8.16,0,0,1,1-1.48L186,16a2.46,2.46,0,0,1,1.26.37,1.14,1.14,0,0,1,.64,1c0,.83-.63,1.25-1.88,1.25l-1.2,0a2.7,2.7,0,0,0-.45,0l.33,6.92c0,.56,0,1.38-.1,2.45s-.11,1.85-.11,2.34c.15,0,.36-.07.61-.14a5.66,5.66,0,0,1,1.33-.23,1.22,1.22,0,0,1,.85.35,1.1,1.1,0,0,1,.38.84,1.35,1.35,0,0,1-.31.88A.94.94,0,0,1,186.52,32.42Z" transform="translate(-0.52 -0.33)"/><path class="cls-5" d="M197.44,25.8l.28-7.7v-.26c0-1.39.3-2.09.91-2.09s1.3,1.3,2.23,3.89Q203.43,26.71,207,43l0,.2.16-14.62V16.14a1.25,1.25,0,0,1,1.36-1.05c.74,0,1.11.55,1.11,1.64V17a2.87,2.87,0,0,0-.24,1.23l-.26,15.5V46.53a2.55,2.55,0,0,1-.35,1.25,1,1,0,0,1-.85.61q-.87,0-3.41-8.63t-5-18.56V35c0,1.34.09,3.33.29,6s.29,4.64.29,6a.73.73,0,0,1-.46.64,2.38,2.38,0,0,1-1.19.26c-.48,0-.72-.22-.72-.65l.2-3c0-1.44-.08-3.79-.26-7s-.26-5.24-.26-6Z" transform="translate(-0.52 -0.33)"/><path class="cls-6" d="M197.44,25.8l.28-7.7v-.26c0-1.39.3-2.09.91-2.09s1.3,1.3,2.23,3.89Q203.43,26.71,207,43l0,.2.16-14.62V16.14a1.25,1.25,0,0,1,1.36-1.05c.74,0,1.11.55,1.11,1.64V17a2.87,2.87,0,0,0-.24,1.23l-.26,15.5V46.53a2.55,2.55,0,0,1-.35,1.25,1,1,0,0,1-.85.61q-.87,0-3.41-8.63t-5-18.56V35c0,1.34.09,3.33.29,6s.29,4.64.29,6a.73.73,0,0,1-.46.64,2.38,2.38,0,0,1-1.19.26c-.48,0-.72-.22-.72-.65l.2-3c0-1.44-.08-3.79-.26-7s-.26-5.24-.26-6Z" transform="translate(-0.52 -0.33)"/><path class="cls-5" d="M231.65,15.77q1.13,0,3.83,17.63c.7,4.6,1.09,7.08,1.15,7.44q.28-2.36,1-7.56a123,123,0,0,0,1.52-16.79,1.89,1.89,0,0,1,1.52-.84l.87.47c-.07.48-.22,1.83-.44,4.07s-.45,4.25-.65,6-.4,3.45-.59,5-.4,3.25-.62,5-.44,3.33-.64,4.73-.4,2.68-.61,3.84c-.43,2.44-.78,3.67-1,3.67a1.24,1.24,0,0,1-1-.45q-1-4.23-3-16.38t-2.53-15.06a1.08,1.08,0,0,1,1.16-.82" transform="translate(-0.52 -0.33)"/><path class="cls-6" d="M231.65,15.77q1.13,0,3.83,17.63c.7,4.6,1.09,7.08,1.15,7.44q.28-2.36,1-7.56a123,123,0,0,0,1.52-16.79,1.89,1.89,0,0,1,1.52-.84l.87.47c-.07.48-.22,1.83-.44,4.07s-.45,4.25-.65,6-.4,3.45-.59,5-.4,3.25-.62,5-.44,3.33-.64,4.73-.4,2.68-.61,3.84c-.43,2.44-.78,3.67-1,3.67a1.24,1.24,0,0,1-1-.45q-1-4.23-3-16.38t-2.53-15.06A1.08,1.08,0,0,1,231.65,15.77Z" transform="translate(-0.52 -0.33)"/><path class="cls-5" d="M250.24,46.55,250.4,22V16.79a.93.93,0,0,1,.21-.69c.13-.14.49-.21,1.06-.21a4,4,0,0,1,1.75.42,4.61,4.61,0,0,1,1.49,1.12,8.2,8.2,0,0,1,1,1.64,8.86,8.86,0,0,1,.81,3.79,13.5,13.5,0,0,1-1,4.69c-.08.19-.25.59-.49,1.2s-.38,1-.43,1.09a30,30,0,0,0,1.56,8.09q.54,1.68,1.51,4.6c.65,1.94,1.05,3.18,1.21,3.69v.11c0,.94-.11,1.49-.32,1.64a1.16,1.16,0,0,1-.69.24c-.51,0-1-.38-1.5-1.13v-.14A53.14,53.14,0,0,0,254,35.41c-.73-2.35-1.23-4.09-1.52-5.22V46.72a1.8,1.8,0,0,1-.22,1,.9.9,0,0,1-.81.35,1.11,1.11,0,0,1-.88-.34,1.21,1.21,0,0,1-.3-.83Zm2.29-28.73-.22,8.56c0,.86,0,1.5,0,1.92a12.74,12.74,0,0,0,1.4-1.61l.65-3.63a3.2,3.2,0,0,0,.06-.65,9.6,9.6,0,0,0-.4-2.44c-.38-1.31-.89-2-1.53-2.15" transform="translate(-0.52 -0.33)"/><path class="cls-6" d="M250.24,46.55,250.41,22V16.79a.93.93,0,0,1,.2-.69c.13-.14.49-.21,1.06-.21a4,4,0,0,1,1.75.42,4.61,4.61,0,0,1,1.49,1.12,8.2,8.2,0,0,1,1,1.64,8.86,8.86,0,0,1,.81,3.79,13.5,13.5,0,0,1-1,4.69c-.08.19-.25.59-.49,1.2l-.42,1.09a29.54,29.54,0,0,0,1.55,8.09q.54,1.68,1.51,4.6c.65,1.94,1.05,3.18,1.21,3.69v.11c0,.94-.11,1.49-.32,1.64a1.16,1.16,0,0,1-.69.24c-.51,0-1-.38-1.5-1.13v-.14A53.14,53.14,0,0,0,254,35.41c-.73-2.35-1.23-4.09-1.52-5.22V46.72a1.8,1.8,0,0,1-.22,1,.9.9,0,0,1-.81.35,1.11,1.11,0,0,1-.88-.34,1.21,1.21,0,0,1-.3-.83Zm2.29-28.73-.22,8.56c0,.86,0,1.5,0,1.92a12.74,12.74,0,0,0,1.4-1.61l.65-3.63a3.2,3.2,0,0,0,.06-.65,9.6,9.6,0,0,0-.4-2.44C253.68,18.66,253.17,17.94,252.53,17.82Z" transform="translate(-0.52 -0.33)"/><path class="cls-5" d="M276.69,47.76c-.86,0-1.28-.36-1.28-1.09V41.21a5.78,5.78,0,0,0-2.12-.7,25.4,25.4,0,0,0-2.73-.37,7.14,7.14,0,0,0-.7,2.13c-.18.93-.37,1.86-.57,2.81a7.11,7.11,0,0,1-.78,2.23c-1.08,0-1.69-.28-1.82-.84q.57-.82,1.84-8.38t2.1-11.83a59.42,59.42,0,0,1,1.78-7.17c.63-1.94,1.24-2.91,1.82-2.91a2.1,2.1,0,0,1,1.34.37q0,1.48.81,8.09c.54,4.39.81,7.24.81,8.53s.15,3.43.44,6.43.43,5.25.43,6.75a1.23,1.23,0,0,1-1.37,1.41m-1.75-13.69q-.36-3.72-.66-7.09c-.19-2.24-.29-3.6-.29-4.07a6.33,6.33,0,0,1,0-.81q-.64.67-1.88,7.51t-1.3,8.67a11.44,11.44,0,0,0,2.88.47,7.92,7.92,0,0,0,1.66-.12c0-.56-.19-2.08-.43-4.56" transform="translate(-0.52 -0.33)"/><path class="cls-6" d="M276.69,47.76c-.86,0-1.28-.36-1.28-1.09V41.21a5.78,5.78,0,0,0-2.12-.7,25.4,25.4,0,0,0-2.73-.37,7.14,7.14,0,0,0-.7,2.13c-.18.93-.37,1.86-.57,2.81a7.11,7.11,0,0,1-.78,2.23c-1.08,0-1.69-.28-1.82-.84q.57-.82,1.84-8.38t2.1-11.83a59.42,59.42,0,0,1,1.78-7.17c.63-1.94,1.24-2.91,1.82-2.91a2.1,2.1,0,0,1,1.34.37q0,1.48.81,8.09c.54,4.39.81,7.24.81,8.53s.15,3.43.44,6.43.43,5.25.43,6.75A1.23,1.23,0,0,1,276.69,47.76Zm-1.75-13.69q-.36-3.72-.66-7.09c-.19-2.24-.29-3.6-.29-4.07a6.33,6.33,0,0,1,0-.81q-.64.67-1.88,7.51t-1.3,8.67a11.44,11.44,0,0,0,2.88.47,7.92,7.92,0,0,0,1.66-.12C275.33,38.07,275.18,36.55,274.94,34.07Z" transform="translate(-0.52 -0.33)"/><path class="cls-5" d="M289.1,27.32l-.37,2.93v1A57.77,57.77,0,0,0,289,37.7c.14,1.06.28,2,.43,2.83a10.81,10.81,0,0,0,.58,2.13,10.33,10.33,0,0,0,.84,1.66,3,3,0,0,0,2.7,1.56,3.29,3.29,0,0,0,1.76-.75,3.27,3.27,0,0,1,1.6-.75A1.75,1.75,0,0,1,298,45a3.14,3.14,0,0,1-2.37,3,7.6,7.6,0,0,1-2.56.43,4.57,4.57,0,0,1-2.35-.57,5.13,5.13,0,0,1-1.62-1.45A8.88,8.88,0,0,1,288,44.15a21.88,21.88,0,0,1-.77-2.76c-.16-.93-.3-2-.4-3.2-.17-2-.25-4.23-.27-6.63l0-5a21,21,0,0,1,.29-3.87,7.42,7.42,0,0,1-.12-1.31,5,5,0,0,1,1.9-4.11,7.33,7.33,0,0,1,4.71-1.52,3.83,3.83,0,0,1,1.94.56,1.69,1.69,0,0,1,1,1.49.79.79,0,0,1-.35.69,2,2,0,0,1-1.17.25,1.2,1.2,0,0,1-1.12-.51v0h-.57v-.1a3.45,3.45,0,0,0-3.28,1.51,10.21,10.21,0,0,0-.81,4.79Z" transform="translate(-0.52 -0.33)"/><path class="cls-6" d="M289.1,27.32l-.37,2.93v1A57.77,57.77,0,0,0,289,37.7c.14,1.06.28,2,.43,2.83a10.81,10.81,0,0,0,.58,2.13,10.33,10.33,0,0,0,.84,1.66,3,3,0,0,0,2.7,1.56,3.29,3.29,0,0,0,1.76-.75,3.27,3.27,0,0,1,1.6-.75A1.75,1.75,0,0,1,298,45a3.14,3.14,0,0,1-2.37,3,7.6,7.6,0,0,1-2.56.43,4.57,4.57,0,0,1-2.35-.57,5.13,5.13,0,0,1-1.62-1.45A8.88,8.88,0,0,1,288,44.15a21.88,21.88,0,0,1-.77-2.76c-.16-.93-.3-2-.4-3.2-.17-2-.25-4.23-.27-6.63l0-5a21,21,0,0,1,.29-3.87,7.45,7.45,0,0,1-.13-1.31,5,5,0,0,1,1.91-4.11,7.33,7.33,0,0,1,4.71-1.52,3.83,3.83,0,0,1,1.94.56,1.69,1.69,0,0,1,1,1.49.79.79,0,0,1-.35.69,2,2,0,0,1-1.17.25,1.2,1.2,0,0,1-1.12-.51v0h-.57v-.1a3.45,3.45,0,0,0-3.28,1.51,10.21,10.21,0,0,0-.81,4.79Z" transform="translate(-0.52 -0.33)"/><path class="cls-5" d="M38.73,11.64a.44.44,0,0,1-.08-.36c0-.12.25-.29.65-.49s1.27-.63,2.64-1.27l2.49-1.18a1.27,1.27,0,0,1,.46.06c.17,0,.33.24.48.59a1.42,1.42,0,0,1,.12.92.67.67,0,0,1-.41.5,46.81,46.81,0,0,1-5.71,1.48.63.63,0,0,1-.33,0,.57.57,0,0,1-.31-.23" transform="translate(-0.52 -0.33)"/><path class="cls-6" d="M38.73,11.64a.44.44,0,0,1-.08-.36c0-.12.25-.29.65-.49s1.27-.63,2.64-1.27l2.49-1.18a1.27,1.27,0,0,1,.46.06c.17,0,.33.24.48.59a1.42,1.42,0,0,1,.12.92.67.67,0,0,1-.41.5,46.81,46.81,0,0,1-5.71,1.48.63.63,0,0,1-.33,0A.57.57,0,0,1,38.73,11.64Z" transform="translate(-0.52 -0.33)"/></g></g></g></svg>