<svg xmlns="http://www.w3.org/2000/svg" viewBox="0 0 151.67 21.49"><defs><style>.a{fill:#fff;}</style></defs><title>meteosuisse</title><path class="a" d="M16.08,21.16h4.23V1.47H13.65L10.21,14.13h-.06L7,1.47H0V21.16H4.23V5.58h.06L8.55,21.16h3L16,5.58h.06V21.16ZM26.77,4.8h2.59L32.19.68H28.29L26.77,4.8Zm0,7.76c0-.79,0-3.61,2.28-3.61,1.83,0,2.31,1.75,2.31,3.61Zm8.66,1.35c0-7.67-5-7.67-6.38-7.67-4.2,0-6.52,3.58-6.52,7.53,0,4.49,2.28,7.62,7.45,7.62a13.85,13.85,0,0,0,4.65-.85l-.08-3.36a9.15,9.15,0,0,1-4.15,1.16A3.28,3.28,0,0,1,26.8,15h8.66V13.91Zm1.18-4.32h2.43V17c0,3.22,2,4.34,4.32,4.34a10.64,10.64,0,0,0,3.1-.39V17.86a3.32,3.32,0,0,1-1.47.31c-.85,0-1.49-.4-1.49-1.83V9.59H46.4V6.46H43.53V2.06L39.18,3.44v3H36.64V9.59ZM51.9,4.8h2.6L57.32.68H53.43L51.9,4.8Zm0,7.76c0-.79,0-3.61,2.28-3.61,1.83,0,2.31,1.75,2.31,3.61Zm8.66,1.35c0-7.67-5-7.67-6.37-7.67-4.2,0-6.52,3.58-6.52,7.53,0,4.49,2.28,7.62,7.45,7.62a13.84,13.84,0,0,0,4.65-.85l-.08-3.36a9.15,9.15,0,0,1-4.15,1.16A3.28,3.28,0,0,1,51.93,15h8.66V13.91Zm1.69-.14c0,4.46,2.4,7.62,6.91,7.62s6.91-3.16,6.91-7.62-2.4-7.53-6.91-7.53-6.91,3.13-6.91,7.53Zm4.63,0c0-2.88.73-4.48,2.28-4.48s2.28,1.61,2.28,4.48-.73,4.57-2.28,4.57-2.28-1.69-2.28-4.57Zm22.31-12a19.29,19.29,0,0,0-4.63-.68c-6.6,0-6.83,5-6.83,5.61,0,7,7.76,5.16,7.76,9,0,1.61-1.41,2.34-2.88,2.34a11.13,11.13,0,0,1-4.32-1.21l-.25,3.84a18.92,18.92,0,0,0,5.3.82c3.92,0,6.88-2.26,6.88-6,0-7-7.76-5.33-7.76-8.91,0-1.47,1.13-2.14,2.62-2.14a9.38,9.38,0,0,1,3.89,1l.2-3.67Zm15.37,4.65h-4.46V14.7c0,1.89-.51,3.13-1.95,3.13-.9,0-1.72-.48-1.72-2.31V6.46H92v9.62c0,2.93,1.07,5.3,4.32,5.3a4,4,0,0,0,4.15-2.68h.06c0,1,.06,1.81.11,2.45h4.06a28.09,28.09,0,0,1-.11-3.07V6.46ZM108,21.16h4.46V6.46H108v14.7Zm0-17.21h4.46V0H108V3.95ZM124.4,6.83a13.5,13.5,0,0,0-4.09-.59c-4.37,0-5.5,2.82-5.5,4.4a4.57,4.57,0,0,0,3.07,4.51c1.92.79,3.08,1.07,3.08,1.72s-.14,1.38-2.23,1.38a7.33,7.33,0,0,1-3.67-1l-.11,3.44a15.25,15.25,0,0,0,4.82.7c3,0,5.42-1.27,5.42-4.54a4.11,4.11,0,0,0-3.08-4.29c-2.42-.9-3.07-1.21-3.07-2.12,0-.51.51-1.07,1.66-1.07a9.2,9.2,0,0,1,3.58.79l.11-3.33Zm12.16,0a13.51,13.51,0,0,0-4.09-.59c-4.37,0-5.5,2.82-5.5,4.4A4.57,4.57,0,0,0,130,15.15c1.92.79,3.07,1.07,3.07,1.72s-.14,1.38-2.23,1.38a7.33,7.33,0,0,1-3.67-1l-.11,3.44a15.25,15.25,0,0,0,4.82.7c3,0,5.42-1.27,5.42-4.54a4.11,4.11,0,0,0-3.07-4.29c-2.43-.9-3.08-1.21-3.08-2.12,0-.51.51-1.07,1.67-1.07a9.2,9.2,0,0,1,3.58.79l.11-3.33ZM143,12.55c0-.79,0-3.61,2.29-3.61,1.83,0,2.31,1.75,2.31,3.61Zm8.66,1.35c0-7.67-5-7.67-6.37-7.67-4.2,0-6.52,3.58-6.52,7.53,0,4.49,2.28,7.62,7.45,7.62a13.83,13.83,0,0,0,4.65-.85l-.08-3.36a9.15,9.15,0,0,1-4.15,1.16A3.28,3.28,0,0,1,143,15h8.66V13.91Z"/></svg>