<svg xmlns="http://www.w3.org/2000/svg" width="242" height="89">
  <path d="M77.56 43.824h-.002l.002-.002v-.006.008M77.56 43.816v.004-.004z"/>
  <path d="M77.556 43.83l.004-.008-.002.006-.002.002M45.749 62.496c.346.63.631 1.094.818 1.376a32.981 32.981 0 0 1-.818-1.376M74.714 49.566l.092-.137-.096.13c0 .003.004.006.004.007M46.784 64.223h.002l-.006-.002.004.002M46.78 64.223l.004.003h.002l-.002-.003h-.004"/>
  <path d="M46.78 64.221v.002h.004l-.004-.002M46.567 63.872c.072.116.141.233.213.349-.041-.071-.082-.138-.121-.207-.027-.039-.057-.088-.092-.142"/>
  <path d="M72.192 21.506a6.746 6.746 0 0 1-4.438-2.692 6.782 6.782 0 0 1-1.305-4.099 15.914 15.914 0 0 0-2.35-.553c-8.43-1.303-16.545 4.208-20.039 12.865.147 0 .443.009.883.029.106.004.229.012.354.019.217.013.436.026.658.045 1.053.067 2.096.172 3.127.317.023.003.041.004.064.008 3.053-3.961 7.672-6.189 12.432-5.457 6.119.941 11.115 7.159 11.194 13.286.039 3.016-.589 6.356-2.11 8.995-3.934 6.848-10.877 12.402-19.295 13.569a34.417 34.417 0 0 0 3.248 5.287c9.447-1.99 15.738-7.197 20.094-13.566.035-.046.064-.089.096-.13a22.48 22.48 0 0 0 2.066-3.746 18.28 18.28 0 0 0 .688-1.861 24.71 24.71 0 0 0 1.568-5.639c.98-6.371-.566-12.457-3.807-16.938-.979.32-2.044.43-3.128.261" fill="#94c356"/>
  <path d="M77.438 11.717a5.189 5.189 0 0 0-3.414-2.076 5.184 5.184 0 0 0-3.885.951 5.18 5.18 0 0 0-2.074 3.414 5.251 5.251 0 0 0 .945 3.887 5.2 5.2 0 0 0 5.258 2.024 5.234 5.234 0 0 0 4.121-4.316 5.18 5.18 0 0 0-.951-3.884" fill="#94c356"/>
  <path d="M53.008 63.388c-1.34-1.5-2.389-3.307-3.341-5.206-3.902-7.83-5.662-16.164-2.91-24.761-1.576-.177-5.019 0-5.193.048-2.691 8.568-1.492 16.396 2.004 24.632.031.076.066.15.096.225a40.866 40.866 0 0 0 2.086 4.171c.26.465.535.923.818 1.376.035.056.064.103.092.142.039.069.08.139.127.213a24.83 24.83 0 0 0 2.406 3.395c7.641 9.058 20.168 11.049 27.984 4.457 7.793-6.573 7.959-19.207.375-28.248a17.05 17.05 0 0 1-.68 1.854 22.503 22.503 0 0 1-2.066 3.744c-.029.049-.061.092-.092.14 1.064 3.227 1.094 6.584.094 9.52 2.381 1.352 3.812 4.069 3.369 6.931-.568 3.694-4.041 6.239-7.736 5.669a6.785 6.785 0 0 1-5.373-4.494c.003.009-3.203.196-3.502.178-1.176-.074-2.371-.271-3.494-.629-2.105-.675-3.729-1.863-5.064-3.357z" fill="#ac9c7b"/>
  <path d="M74.224 60.544a5.1 5.1 0 0 0-1.951-.722 5.164 5.164 0 0 0-3.883.948 5.197 5.197 0 0 0-1.781 6.098 5.225 5.225 0 0 0 4.07 3.278 5.229 5.229 0 0 0 5.959-4.365 5.228 5.228 0 0 0-2.414-5.237" fill="#ac9c7b"/>
  <path d="M49.147 27.445l-.064-.008a40.76 40.76 0 0 0-3.127-.317c-1.182-.093-1.904-.092-1.908-.092-6.975.024-13.348 3.043-17.068 7.878a6.775 6.775 0 0 1 2.906 2.26 6.777 6.777 0 0 1 1.227 5.045c-.543 3.52-3.723 5.988-7.217 5.721 1.537 7.796 8.641 14.423 18.061 15.973 1.635.268 3.25.371 4.824.316-.072-.115-.141-.232-.213-.349a19.779 19.779 0 0 1-.818-1.376 40.48 40.48 0 0 1-2.082-4.168c-.033-.077-.068-.151-.1-.227-7.609-2.035-12.689-8.692-11.559-15.573.702-4.269 4.073-8.414 8.215-9.797 2.206-.737 4.663-.935 6.972-.672 8.695.975 16.301 5.573 22.053 11.605 1.096-1.903 1.824-3.883 2.088-5.848-5.901-5.371-12.945-9.058-22.19-10.371" fill="#5c79bb"/>
  <path d="M28.624 38.089a5.175 5.175 0 0 0-2.564-1.866 5.182 5.182 0 0 0-4.737.739 5.207 5.207 0 0 0-2.076 3.417 5.228 5.228 0 0 0 4.365 5.958c.016.005.035.005.051.006a5.23 5.23 0 0 0 5.91-4.37 5.191 5.191 0 0 0-.949-3.884" fill="#5c79bb"/>
  <path d="M98.898 10.72c.325-.029.62-.059.886-.088a28.675 28.675 0 0 1 1.595-.134c.28-.014.59-.022.93-.022.753 0 1.498.074 2.237.222a5.682 5.682 0 0 1 1.971.775 4.282 4.282 0 0 1 1.406 1.495c.362.627.542 1.421.542 2.381 0 .576-.096 1.1-.288 1.572a5.044 5.044 0 0 1-1.739 2.225 7.938 7.938 0 0 1-1.096.676l-.266.133 4.629 6.71a12.423 12.423 0 0 1-2.547 0l-5.094-7.375v-.088l.177-.044a10.54 10.54 0 0 0 1.262-.421c.443-.177.853-.41 1.229-.698a3.82 3.82 0 0 0 .941-1.041c.251-.406.376-.897.376-1.473 0-1.063-.313-1.853-.941-2.37-.628-.517-1.473-.775-2.536-.775-.251 0-.483.007-.697.022-.214.015-.454.037-.72.066v14.196c-.163.015-.344.029-.543.044a8.082 8.082 0 0 1-.564.022c-.177 0-.37-.004-.576-.011a4.543 4.543 0 0 1-.576-.055V10.72zM113.227 21.528c.03 1.24.351 2.149.963 2.724.613.576 1.517.864 2.713.864a8.128 8.128 0 0 0 2.99-.554c.118.222.214.491.288.809.074.317.118.631.133.941a7.378 7.378 0 0 1-1.606.465c-.584.103-1.229.155-1.938.155-1.033 0-1.919-.144-2.657-.432-.739-.288-1.348-.694-1.827-1.218a4.829 4.829 0 0 1-1.052-1.86 7.965 7.965 0 0 1-.332-2.358c0-.842.107-1.628.321-2.359a5.318 5.318 0 0 1 .985-1.905c.443-.539 1-.967 1.672-1.284.672-.317 1.465-.476 2.381-.476.783 0 1.469.133 2.06.398s1.085.631 1.484 1.096c.399.465.701 1.019.908 1.661.206.642.31 1.34.31 2.093 0 .207-.008.425-.022.653-.015.229-.03.425-.044.587h-7.73zm5.625-1.639c0-.413-.055-.809-.166-1.185a3.007 3.007 0 0 0-.487-.985 2.38 2.38 0 0 0-.819-.676c-.333-.169-.728-.254-1.185-.254-.901 0-1.591.273-2.071.819-.48.546-.771 1.307-.874 2.281h5.602zm-2.392-6.378c-.163.03-.34.052-.531.066a8.319 8.319 0 0 1-.642.022c-.163 0-.329-.007-.498-.022a7.137 7.137 0 0 1-.521-.066l2.547-2.812c.222-.03.45-.052.687-.066a11.521 11.521 0 0 1 1.462 0c.221.015.435.037.642.066l-3.146 2.812zM123.702 24.606a7.23 7.23 0 0 0 1.318.388c.48.096.956.144 1.429.144.339 0 .664-.037.974-.11.31-.074.58-.184.809-.333.228-.147.413-.328.554-.542.14-.214.21-.454.21-.72 0-.295-.056-.539-.166-.731a1.536 1.536 0 0 0-.443-.487 2.93 2.93 0 0 0-.642-.343 12.462 12.462 0 0 0-.786-.277l-.775-.288c-.945-.354-1.631-.753-2.059-1.196-.428-.443-.642-1.041-.642-1.794 0-1.004.358-1.801 1.074-2.392.716-.59 1.768-.886 3.156-.886.576 0 1.141.055 1.694.166.554.111 1.037.24 1.451.388-.03.295-.085.59-.167.886a5.09 5.09 0 0 1-.299.819 11.261 11.261 0 0 0-1.163-.343 6.054 6.054 0 0 0-1.451-.166c-.546 0-1.03.096-1.451.288-.421.192-.631.532-.631 1.019 0 .251.052.465.155.642.103.177.244.329.421.454s.38.232.609.321c.229.088.476.177.742.266l.974.332c.355.119.69.259 1.008.421.317.163.59.366.819.609.229.244.413.54.554.886.14.347.21.764.21 1.251 0 .546-.111 1.045-.332 1.495a3.308 3.308 0 0 1-.941 1.152 4.53 4.53 0 0 1-1.473.742 6.464 6.464 0 0 1-1.905.266c-.708 0-1.329-.048-1.86-.144a9.507 9.507 0 0 1-1.484-.387 4.39 4.39 0 0 1 .188-.897c.096-.304.202-.603.321-.899zM135.617 21.528c.029 1.24.351 2.149.963 2.724.612.576 1.517.864 2.713.864a8.128 8.128 0 0 0 2.99-.554c.118.222.214.491.288.809.074.317.118.631.133.941a7.37 7.37 0 0 1-1.605.465c-.584.103-1.229.155-1.938.155-1.034 0-1.919-.144-2.658-.432-.738-.288-1.347-.694-1.827-1.218a4.816 4.816 0 0 1-1.052-1.86 7.933 7.933 0 0 1-.332-2.358c0-.842.107-1.628.321-2.359a5.32 5.32 0 0 1 .986-1.905c.443-.539 1-.967 1.672-1.284.672-.317 1.465-.476 2.381-.476.782 0 1.469.133 2.059.398.59.266 1.086.631 1.484 1.096.398.465.701 1.019.908 1.661.207.642.31 1.34.31 2.093 0 .207-.008.425-.023.653-.015.229-.03.425-.044.587h-7.729zm5.625-1.639c0-.413-.056-.809-.166-1.185a2.987 2.987 0 0 0-.487-.985 2.374 2.374 0 0 0-.82-.676c-.332-.169-.727-.254-1.185-.254-.901 0-1.591.273-2.071.819-.48.546-.771 1.307-.875 2.281h5.604zM152.293 19.18c0-.871-.221-1.476-.664-1.816-.443-.339-1.085-.509-1.927-.509-.517 0-1 .041-1.451.122-.451.081-.89.188-1.318.321-.281-.487-.421-1.07-.421-1.75a10.086 10.086 0 0 1 1.661-.376 12.018 12.018 0 0 1 1.749-.133c1.476 0 2.599.336 3.366 1.007.768.672 1.152 1.746 1.152 3.223v7.109c-.517.119-1.145.24-1.882.366-.739.125-1.492.188-2.259.188a8.834 8.834 0 0 1-1.96-.199c-.584-.133-1.078-.347-1.484-.642a2.975 2.975 0 0 1-.941-1.129c-.221-.457-.332-1.011-.332-1.661 0-.635.129-1.192.388-1.672a3.494 3.494 0 0 1 1.052-1.196 4.684 4.684 0 0 1 1.528-.708 6.958 6.958 0 0 1 1.816-.233c.473 0 .86.011 1.163.033.303.023.557.048.764.078v-.423zm0 2.149a19.2 19.2 0 0 0-.841-.088c-.34-.03-.628-.044-.864-.044-.915 0-1.613.17-2.093.509-.48.34-.72.856-.72 1.55 0 .443.081.79.244 1.041.163.251.366.443.609.576.244.133.513.214.808.244.295.03.576.045.842.045.339 0 .69-.019 1.052-.056.362-.037.683-.092.963-.166v-3.611zM157.608 15.305a7.548 7.548 0 0 1 1.086-.089c.162 0 .347.008.554.023.207.015.391.037.554.066v6.223c0 .709.066 1.296.199 1.761.133.465.332.83.598 1.096.266.266.591.451.975.554a5.1 5.1 0 0 0 1.329.155c.753 0 1.395-.081 1.927-.244v-9.545a7.272 7.272 0 0 1 1.085-.089 7.32 7.32 0 0 1 1.085.089v11.007a20.23 20.23 0 0 1-1.85.421c-.716.133-1.457.199-2.225.199-.725 0-1.406-.063-2.049-.188a3.89 3.89 0 0 1-1.694-.764c-.487-.384-.872-.922-1.152-1.617-.281-.694-.421-1.609-.421-2.746v-6.312zM100.337 44.526c.03 1.24.351 2.148.963 2.724.613.576 1.517.864 2.713.864a8.152 8.152 0 0 0 2.99-.554c.118.222.214.491.288.809.074.317.118.631.133.941a7.378 7.378 0 0 1-1.606.465c-.583.103-1.229.155-1.938.155-1.033 0-1.92-.144-2.657-.432-.739-.288-1.348-.694-1.827-1.218a4.816 4.816 0 0 1-1.052-1.86 7.965 7.965 0 0 1-.332-2.358c0-.842.107-1.628.321-2.359a5.334 5.334 0 0 1 .985-1.905c.443-.539 1-.967 1.672-1.284.672-.317 1.465-.476 2.381-.476.783 0 1.469.133 2.06.398.59.266 1.085.631 1.484 1.096.399.465.701 1.019.908 1.661.207.642.31 1.34.31 2.093 0 .207-.008.425-.022.653-.015.229-.03.425-.044.587h-7.73zm5.626-1.638c0-.413-.055-.809-.166-1.185a3.007 3.007 0 0 0-.487-.985 2.38 2.38 0 0 0-.819-.676c-.333-.169-.728-.254-1.185-.254-.901 0-1.591.273-2.071.819-.48.546-.771 1.307-.874 2.281h5.602zm-2.392-6.379c-.163.03-.34.052-.531.066a8.319 8.319 0 0 1-.642.022c-.163 0-.329-.007-.499-.022a7.137 7.137 0 0 1-.521-.066l2.547-2.812a11.506 11.506 0 0 1 2.149-.066c.221.015.435.037.642.066l-3.145 2.812zM109.174 38.303c.207-.029.421-.052.642-.066a8.924 8.924 0 0 1 1.229 0c.229.015.424.037.587.066l3.101 9.368 3.123-9.368c.162-.029.347-.052.554-.066.206-.015.406-.022.598-.022a9.24 9.24 0 0 1 1.173.088l-4.429 11.361a7.521 7.521 0 0 1-1.108.088 6.443 6.443 0 0 1-1.063-.088l-4.407-11.361zM128.331 42.179c0-.871-.221-1.476-.664-1.816-.443-.339-1.085-.509-1.927-.509-.517 0-1 .041-1.451.122-.451.081-.89.188-1.318.321-.281-.487-.421-1.07-.421-1.749a10.187 10.187 0 0 1 1.661-.377 12.018 12.018 0 0 1 1.749-.133c1.476 0 2.599.336 3.366 1.007.768.672 1.152 1.746 1.152 3.223v7.109c-.517.119-1.145.24-1.882.366-.739.125-1.492.188-2.259.188a8.834 8.834 0 0 1-1.96-.199c-.584-.133-1.078-.347-1.484-.642a2.975 2.975 0 0 1-.941-1.129c-.221-.458-.332-1.011-.332-1.661 0-.635.129-1.192.388-1.672a3.494 3.494 0 0 1 1.052-1.196 4.684 4.684 0 0 1 1.528-.708 6.958 6.958 0 0 1 1.816-.233c.473 0 .86.011 1.163.033.303.022.557.048.764.078v-.423zm0 2.148a19.2 19.2 0 0 0-.841-.088c-.34-.03-.628-.044-.864-.044-.915 0-1.613.17-2.093.509-.48.34-.72.856-.72 1.55 0 .443.081.79.244 1.041.163.251.366.443.609.576.244.133.513.214.808.244.295.03.576.044.842.044.339 0 .69-.019 1.052-.056.362-.037.683-.092.963-.166v-3.61zM133.779 38.303a5.54 5.54 0 0 1 .952-.088 4.589 4.589 0 0 1 .908.088c.044.221.088.521.133.897.044.376.066.69.066.941a4.5 4.5 0 0 1 1.351-1.428 4.052 4.052 0 0 1 2.28-.675c1.299 0 2.259.373 2.879 1.118.62.746.93 1.849.93 3.311v7.198a5.15 5.15 0 0 1-.554.066 7.235 7.235 0 0 1-1.096 0c-.2-.015-.38-.037-.543-.066v-6.6c0-1.048-.163-1.82-.487-2.314-.325-.495-.841-.742-1.55-.742-.414 0-.805.074-1.174.222-.37.148-.694.376-.975.687-.281.31-.506.712-.676 1.207-.169.495-.254 1.089-.254 1.783v5.758a5.157 5.157 0 0 1-.542.066c-.2.015-.38.022-.543.022s-.347-.007-.554-.022a5.36 5.36 0 0 1-.553-.066V38.303zM152.67 48.203c1.314.03 2.266.31 2.857.842.59.532.886 1.262.886 2.192 0 .605-.155 1.148-.465 1.628-.31.479-.739.893-1.285 1.24-.546.347-1.192.612-1.938.797-.746.185-1.554.277-2.425.277-1.521 0-2.68-.236-3.477-.709-.797-.473-1.196-1.218-1.196-2.237 0-.605.163-1.148.487-1.627.325-.48.746-.86 1.262-1.141a2.664 2.664 0 0 1-.742-.72c-.199-.288-.299-.646-.299-1.074 0-.546.122-1.019.365-1.417.244-.398.572-.753.985-1.063a3.819 3.819 0 0 1-1.174-1.318c-.295-.539-.443-1.148-.443-1.827 0-.561.104-1.085.31-1.572.206-.487.506-.912.897-1.273.391-.362.875-.646 1.451-.853.576-.207 1.233-.31 1.971-.31.665 0 1.266.096 1.805.288.539.192 1 .436 1.384.731.295-.236.694-.432 1.196-.587a5.604 5.604 0 0 1 1.661-.232c.059.281.089.591.089.93a6.465 6.465 0 0 1-.088 1.041h-1.993c.163.251.288.524.376.819.089.295.133.635.133 1.019 0 .606-.11 1.152-.332 1.639a3.564 3.564 0 0 1-.941 1.251c-.406.347-.89.613-1.45.797a5.845 5.845 0 0 1-1.838.277 6.227 6.227 0 0 1-1.639-.199c-.207.118-.41.299-.609.542a1.222 1.222 0 0 0-.299.786c0 .266.096.499.288.698.191.199.62.307 1.284.321l2.946.044zm-2.99 1.75c-.665-.015-1.163.162-1.495.531a1.92 1.92 0 0 0-.499 1.329c0 .324.066.59.2.797.133.207.321.373.564.498.244.125.532.214.864.266.332.052.698.078 1.096.078 1.181 0 2.104-.196 2.769-.587.665-.391.997-.882.997-1.473 0-.443-.141-.783-.421-1.019-.281-.236-.797-.362-1.55-.376l-2.525-.044zm1.019-5.537c.797 0 1.388-.221 1.771-.664.384-.443.576-1.011.576-1.706 0-.708-.192-1.288-.576-1.738-.384-.45-.974-.676-1.771-.676-.797 0-1.384.226-1.761.676-.377.45-.565 1.03-.565 1.738 0 .694.188 1.263.565 1.706.376.442.963.664 1.761.664zM160.266 44.526c.03 1.24.352 2.148.964 2.724s1.517.864 2.714.864a8.147 8.147 0 0 0 2.989-.554c.118.222.214.491.288.809.073.317.117.631.133.941a7.386 7.386 0 0 1-1.605.465c-.584.103-1.229.155-1.938.155-1.033 0-1.919-.144-2.657-.432-.738-.288-1.348-.694-1.827-1.218a4.816 4.816 0 0 1-1.052-1.86 7.965 7.965 0 0 1-.332-2.358c0-.842.107-1.628.321-2.359a5.318 5.318 0 0 1 .985-1.905c.443-.539 1-.967 1.672-1.284.672-.317 1.465-.476 2.381-.476.782 0 1.469.133 2.059.398a4.18 4.18 0 0 1 1.484 1.096c.398.465.701 1.019.908 1.661.207.642.31 1.34.31 2.093 0 .207-.008.425-.022.653-.015.229-.03.425-.044.587h-7.731zm5.626-1.638c0-.413-.056-.809-.166-1.185a2.987 2.987 0 0 0-.487-.985 2.389 2.389 0 0 0-.819-.676c-.333-.169-.728-.254-1.185-.254-.901 0-1.592.273-2.071.819-.479.546-.771 1.307-.874 2.281h5.602zm-2.392-6.379c-.163.03-.34.052-.531.066a8.328 8.328 0 0 1-.643.022c-.163 0-.329-.007-.498-.022a7.068 7.068 0 0 1-.521-.066l2.547-2.812a11.474 11.474 0 0 1 2.148-.066c.222.015.435.037.642.066l-3.144 2.812zM170.896 33.431c.162-.029.344-.051.543-.066.199-.014.379-.022.542-.022.163 0 .343.008.543.022a5.4 5.4 0 0 1 .542.066v12.801c0 .414.037.738.111.974.074.236.174.417.299.543s.273.207.443.244c.169.037.35.055.542.055.133 0 .284-.007.454-.022.17-.015.313-.037.432-.066.133.517.199 1.078.199 1.683a2.848 2.848 0 0 1-.752.143c-.297.023-.569.033-.82.033-.428 0-.826-.052-1.195-.155a2.571 2.571 0 0 1-.975-.509c-.281-.236-.502-.554-.664-.953-.163-.398-.244-.893-.244-1.483V33.431zM178.205 40.031h-1.439a2.531 2.531 0 0 1-.066-.41 4.72 4.72 0 0 1 0-.908c.014-.155.036-.292.066-.41h3.588v11.361a5.178 5.178 0 0 1-.543.066 7.28 7.28 0 0 1-.543.022 7.022 7.022 0 0 1-1.063-.088v-9.633zm-.488-4.23a4.696 4.696 0 0 1-.055-.576 14.477 14.477 0 0 1-.012-.554c0-.162.004-.347.012-.554a3.9 3.9 0 0 1 .055-.553c.192-.03.399-.052.621-.067.221-.014.413-.022.576-.022.162 0 .354.008.575.022.222.015.421.037.599.067.029.163.047.347.055.553.008.207.012.392.012.554 0 .163-.004.347-.012.554a4.508 4.508 0 0 1-.055.576 8.16 8.16 0 0 1-1.153.088 8.878 8.878 0 0 1-1.218-.088zM191.184 49.665c-.311.074-.64.133-.986.177a9.303 9.303 0 0 1-1.162.066 8.475 8.475 0 0 1-2.193-.277 4.649 4.649 0 0 1-1.826-.941c-.525-.443-.941-1.022-1.252-1.738-.311-.716-.465-1.606-.465-2.669 0-.915.144-1.757.432-2.524a5.712 5.712 0 0 1 1.229-1.982 5.439 5.439 0 0 1 1.938-1.285c.761-.302 1.612-.454 2.558-.454.827 0 1.535.044 2.127.133.59.088 1.181.214 1.771.377v16.344a5.145 5.145 0 0 1-.543.066 7.28 7.28 0 0 1-.543.022c-.162 0-.343-.008-.542-.022a5.4 5.4 0 0 1-.542-.066v-5.227zm0-9.612a10.35 10.35 0 0 0-.521-.1 4.062 4.062 0 0 0-.398-.044l-.377-.022a7.81 7.81 0 0 0-.432-.011c-.649 0-1.218.111-1.705.333-.487.221-.89.531-1.207.93a4.156 4.156 0 0 0-.72 1.417 6.338 6.338 0 0 0-.243 1.816c0 .664.088 1.233.266 1.705.177.473.424.86.742 1.163.316.303.689.521 1.118.653.428.133.9.2 1.417.2.384 0 .75-.03 1.097-.089s.667-.125.964-.199v-7.752zM196.741 38.303a7.477 7.477 0 0 1 1.085-.088c.162 0 .348.008.555.022.206.015.391.037.553.066v6.223c0 .709.066 1.296.199 1.761.133.465.332.831.599 1.096.266.266.591.451.974.554.385.104.827.155 1.33.155.752 0 1.395-.081 1.926-.244v-9.545c.162-.029.344-.052.543-.066a7.26 7.26 0 0 1 .543-.022c.162 0 .343.008.543.022.199.015.379.037.542.066V49.31c-.517.148-1.134.288-1.85.421-.716.133-1.458.199-2.226.199a10.72 10.72 0 0 1-2.049-.188 3.88 3.88 0 0 1-1.693-.764c-.488-.384-.872-.922-1.152-1.617-.281-.694-.421-1.609-.421-2.746v-6.312zM211.225 44.526c.029 1.24.352 2.148.964 2.724s1.517.864 2.713.864a8.14 8.14 0 0 0 2.989-.554c.119.222.215.491.289.809.073.317.117.631.133.941a7.402 7.402 0 0 1-1.605.465c-.584.103-1.23.155-1.938.155-1.034 0-1.919-.144-2.657-.432-.738-.288-1.348-.694-1.828-1.218a4.827 4.827 0 0 1-1.051-1.86c-.223-.716-.333-1.502-.333-2.358 0-.842.107-1.628.321-2.359a5.32 5.32 0 0 1 .986-1.905c.442-.539 1-.967 1.672-1.284.672-.317 1.465-.476 2.381-.476.781 0 1.469.133 2.059.398a4.18 4.18 0 0 1 1.484 1.096c.398.465.701 1.019.908 1.661.207.642.311 1.34.311 2.093 0 .207-.008.425-.023.653a23.42 23.42 0 0 1-.043.587h-7.732zm5.626-1.638a4.17 4.17 0 0 0-.167-1.185 2.986 2.986 0 0 0-.486-.985 2.383 2.383 0 0 0-.82-.676c-.332-.169-.727-.254-1.184-.254-.901 0-1.592.273-2.071.819-.479.546-.771 1.307-.875 2.281h5.603zM98.477 70.604a7.23 7.23 0 0 0 1.318.388c.479.096.956.144 1.429.144.339 0 .664-.037.974-.11.31-.074.579-.185.809-.333a1.85 1.85 0 0 0 .554-.542c.14-.214.21-.454.21-.72 0-.295-.056-.539-.166-.731a1.536 1.536 0 0 0-.443-.487 2.93 2.93 0 0 0-.642-.343 12.462 12.462 0 0 0-.786-.277l-.775-.288c-.945-.354-1.631-.753-2.06-1.196-.428-.443-.642-1.041-.642-1.794 0-1.004.358-1.801 1.074-2.392.716-.59 1.768-.886 3.156-.886.576 0 1.141.055 1.694.166.554.111 1.037.24 1.451.388a5.436 5.436 0 0 1-.466 1.705 11.516 11.516 0 0 0-1.163-.343 6.054 6.054 0 0 0-1.451-.166c-.546 0-1.03.096-1.451.288-.421.192-.631.532-.631 1.019 0 .251.052.465.155.642.103.177.244.329.421.454s.38.232.609.321c.229.088.476.177.742.266l.974.332c.354.119.69.259 1.008.421.317.163.59.366.819.609.229.244.413.539.554.886.14.347.21.764.21 1.251 0 .546-.111 1.045-.332 1.495a3.299 3.299 0 0 1-.941 1.152 4.55 4.55 0 0 1-1.473.742 6.464 6.464 0 0 1-1.905.266 10.57 10.57 0 0 1-1.86-.144 9.507 9.507 0 0 1-1.484-.387 4.39 4.39 0 0 1 .188-.897c.097-.305.204-.604.322-.899zM108.62 61.302a7.48 7.48 0 0 1 1.086-.088c.162 0 .347.008.554.022.207.015.391.037.554.066v6.223c0 .709.066 1.296.199 1.761.133.465.332.831.598 1.096.266.266.59.451.974.554.384.104.827.155 1.329.155.753 0 1.395-.081 1.927-.244v-9.546c.162-.029.343-.052.543-.066.199-.015.38-.022.542-.022s.343.008.543.022a5.4 5.4 0 0 1 .542.066v11.007a20.23 20.23 0 0 1-1.85.421c-.716.133-1.458.199-2.226.199a10.7 10.7 0 0 1-2.048-.188 3.901 3.901 0 0 1-1.694-.764c-.487-.384-.872-.922-1.152-1.617-.281-.694-.421-1.609-.421-2.746v-6.311zM122.129 63.03h-1.439a2.646 2.646 0 0 1-.066-.41 4.72 4.72 0 0 1 0-.908 2.91 2.91 0 0 1 .066-.41h3.588v11.361a5.157 5.157 0 0 1-.542.066c-.2.015-.38.022-.543.022a7.022 7.022 0 0 1-1.063-.088V63.03zm-.487-4.23a4.334 4.334 0 0 1-.055-.576 14.277 14.277 0 0 1 0-1.108c.007-.207.025-.391.055-.553.192-.03.399-.052.62-.067a9.41 9.41 0 0 1 .576-.022c.162 0 .354.008.576.022.222.015.421.037.598.067.029.163.047.347.055.553.007.207.011.392.011.554 0 .163-.004.347-.011.554a4.696 4.696 0 0 1-.055.576 8.182 8.182 0 0 1-1.152.088 8.924 8.924 0 0 1-1.218-.088zM127.644 70.604a7.23 7.23 0 0 0 1.318.388c.479.096.956.144 1.429.144.339 0 .664-.037.974-.11.31-.074.58-.185.809-.333a1.85 1.85 0 0 0 .554-.542c.14-.214.21-.454.21-.72 0-.295-.056-.539-.167-.731a1.536 1.536 0 0 0-.443-.487 2.907 2.907 0 0 0-.642-.343 12.462 12.462 0 0 0-.786-.277l-.775-.288c-.945-.354-1.631-.753-2.06-1.196-.428-.443-.642-1.041-.642-1.794 0-1.004.358-1.801 1.074-2.392.716-.59 1.768-.886 3.156-.886.576 0 1.141.055 1.694.166.554.111 1.037.24 1.451.388a5.436 5.436 0 0 1-.466 1.705 11.516 11.516 0 0 0-1.163-.343 6.054 6.054 0 0 0-1.451-.166c-.546 0-1.03.096-1.451.288-.421.192-.631.532-.631 1.019 0 .251.052.465.155.642.103.177.244.329.421.454s.38.232.609.321c.229.088.476.177.742.266l.974.332c.355.119.69.259 1.008.421.317.163.59.366.819.609.229.244.413.539.554.886.14.347.211.764.211 1.251 0 .546-.111 1.045-.332 1.495a3.299 3.299 0 0 1-.941 1.152 4.55 4.55 0 0 1-1.473.742 6.464 6.464 0 0 1-1.905.266 10.57 10.57 0 0 1-1.86-.144 9.507 9.507 0 0 1-1.484-.387 4.39 4.39 0 0 1 .188-.897c.097-.305.204-.604.322-.899zM137.145 70.604a7.23 7.23 0 0 0 1.318.388c.48.096.956.144 1.429.144.339 0 .664-.037.974-.11.31-.074.58-.185.809-.333a1.85 1.85 0 0 0 .554-.542c.14-.214.21-.454.21-.72 0-.295-.056-.539-.166-.731a1.536 1.536 0 0 0-.443-.487 2.93 2.93 0 0 0-.642-.343 12.462 12.462 0 0 0-.786-.277l-.775-.288c-.945-.354-1.631-.753-2.06-1.196-.428-.443-.642-1.041-.642-1.794 0-1.004.358-1.801 1.074-2.392.716-.59 1.768-.886 3.156-.886.576 0 1.141.055 1.694.166.554.111 1.037.24 1.451.388-.03.295-.085.59-.167.886a5.09 5.09 0 0 1-.299.819 11.516 11.516 0 0 0-1.163-.343 6.054 6.054 0 0 0-1.451-.166c-.546 0-1.03.096-1.451.288-.421.192-.631.532-.631 1.019 0 .251.052.465.155.642.103.177.244.329.421.454s.38.232.609.321c.229.088.476.177.742.266l.974.332c.354.119.69.259 1.008.421.317.163.59.366.819.609.229.244.413.539.554.886.14.347.21.764.21 1.251 0 .546-.111 1.045-.332 1.495a3.299 3.299 0 0 1-.941 1.152 4.55 4.55 0 0 1-1.473.742 6.464 6.464 0 0 1-1.905.266c-.708 0-1.329-.048-1.86-.144a9.507 9.507 0 0 1-1.484-.387 4.39 4.39 0 0 1 .188-.897c.097-.305.204-.604.322-.899zM149.06 67.525c.029 1.24.351 2.148.963 2.724.612.576 1.517.864 2.713.864a8.149 8.149 0 0 0 2.99-.554c.118.222.214.491.288.809.074.317.118.631.133.941a7.378 7.378 0 0 1-1.606.465c-.583.103-1.229.155-1.938.155-1.034 0-1.919-.144-2.658-.432-.738-.288-1.347-.694-1.827-1.218a4.816 4.816 0 0 1-1.052-1.86 7.932 7.932 0 0 1-.333-2.358c0-.842.107-1.628.321-2.359a5.304 5.304 0 0 1 .986-1.905c.443-.539 1-.967 1.672-1.284.672-.317 1.465-.476 2.381-.476.782 0 1.469.133 2.06.399.59.266 1.085.631 1.484 1.096.398.465.701 1.019.908 1.661.206.642.31 1.34.31 2.093 0 .207-.008.425-.023.653-.015.229-.03.425-.044.587h-7.728zm5.625-1.638c0-.413-.056-.809-.166-1.185a2.987 2.987 0 0 0-.487-.985 2.374 2.374 0 0 0-.82-.676c-.332-.169-.727-.254-1.185-.254-.901 0-1.591.274-2.071.819-.48.546-.772 1.307-.875 2.281h5.604z"/>
</svg>
